{"glyphs":{"0":{"ha":597,"x_min":72,"x_max":525,"o":"m 72 482 q 85 720 72 624 q 125 875 97 817 q 195 959 153 933 q 299 985 238 985 q 401 959 358 985 q 472 875 444 933 q 513 720 500 817 q 525 482 525 624 q 513 244 525 340 q 472 89 500 147 q 401 5 444 31 q 299 -21 358 -21 q 195 5 238 -21 q 125 89 153 31 q 85 244 97 147 q 72 482 72 340 m 400 482 q 394 672 400 596 q 377 794 389 749 q 346 860 365 840 q 299 879 326 879 q 251 860 271 879 q 220 794 232 840 q 203 672 208 749 q 197 482 197 596 q 203 292 197 368 q 220 169 208 215 q 251 104 232 124 q 299 85 271 85 q 346 104 326 85 q 377 169 365 124 q 394 292 389 215 q 400 482 400 368 z "},"1":{"ha":597,"x_min":97,"x_max":386,"o":"m 97 771 q 152 808 124 786 q 207 856 181 831 q 256 909 233 882 q 294 963 279 936 l 386 963 l 386 0 l 267 0 l 267 774 q 212 726 243 749 q 146 685 181 704 l 97 771 z "},"2":{"ha":597,"x_min":61,"x_max":513,"o":"m 61 903 q 261 985 143 985 q 433 926 374 985 q 493 742 493 867 q 474 631 493 683 q 425 528 454 578 q 361 431 396 479 q 294 331 326 382 q 239 226 263 281 q 210 108 215 171 l 513 108 l 513 0 l 82 0 l 82 26 q 103 192 82 119 q 156 322 125 264 q 225 431 188 381 q 294 528 263 481 q 347 627 325 576 q 368 739 368 678 q 339 845 368 813 q 251 878 310 878 q 178 862 211 878 q 119 821 146 846 l 61 903 z "},"3":{"ha":597,"x_min":58,"x_max":503,"o":"m 357 518 q 465 430 426 493 q 503 267 503 367 q 438 56 503 133 q 243 -21 374 -21 q 143 -6 192 -21 q 58 35 94 10 l 90 132 q 158 99 122 113 q 232 85 193 85 q 342 128 303 85 q 382 268 382 172 q 338 413 382 364 q 199 461 294 461 l 163 461 l 163 563 l 193 563 q 317 607 276 563 q 357 731 357 651 q 325 842 357 806 q 240 879 293 879 q 172 865 204 879 q 115 831 139 851 l 68 918 q 153 968 104 951 q 251 985 203 985 q 418 917 360 985 q 476 736 476 849 q 445 602 476 657 q 357 518 414 547 z "},"4":{"ha":597,"x_min":58,"x_max":561,"o":"m 58 322 q 122 504 83 408 q 203 689 161 600 q 283 850 244 778 q 344 963 321 922 l 467 963 l 467 333 l 561 333 l 561 235 l 467 235 l 467 0 l 357 0 l 357 235 l 58 235 l 58 322 m 357 333 l 357 803 q 309 704 336 760 q 255 586 282 649 q 203 459 228 524 q 160 333 178 394 l 357 333 z "},"5":{"ha":597,"x_min":69,"x_max":503,"o":"m 265 858 q 256 692 258 758 q 250 586 253 625 q 442 492 381 568 q 503 285 503 415 q 482 154 503 211 q 424 58 461 97 q 338 -1 388 19 q 229 -21 288 -21 q 147 -10 189 -21 q 69 22 106 1 l 103 121 q 225 88 163 88 q 338 136 292 88 q 383 285 383 185 q 322 442 383 394 q 133 496 260 490 q 144 623 140 565 q 151 735 149 681 q 156 845 154 790 q 160 963 158 900 l 485 963 l 485 858 l 265 858 z "},"6":{"ha":597,"x_min":88,"x_max":533,"o":"m 483 868 q 387 845 431 861 q 308 795 343 829 q 251 706 274 761 q 217 567 228 650 q 273 585 246 579 q 324 590 300 590 q 478 512 424 590 q 533 296 533 433 q 481 64 533 149 q 317 -21 429 -21 q 217 1 260 -21 q 145 74 174 24 q 102 208 117 125 q 88 410 88 290 q 108 613 88 514 q 173 788 128 711 q 291 914 218 865 q 471 967 364 963 l 483 868 m 294 493 q 250 485 272 493 q 208 467 228 478 q 207 433 207 450 q 207 397 207 415 q 210 276 207 333 q 225 174 214 218 q 258 105 236 131 q 315 79 279 79 q 391 137 369 79 q 413 290 413 194 q 384 444 413 394 q 294 493 356 493 z "},"7":{"ha":597,"x_min":63,"x_max":525,"o":"m 160 0 q 174 144 163 67 q 204 300 186 221 q 244 459 222 379 q 290 612 265 539 q 340 747 315 685 q 390 857 365 810 l 63 857 l 63 963 l 525 963 l 525 869 q 451 722 492 815 q 376 510 411 628 q 314 261 340 393 q 282 0 288 129 l 160 0 z "},"8":{"ha":597,"x_min":65,"x_max":531,"o":"m 518 750 q 478 603 518 669 q 386 489 439 538 q 488 385 444 446 q 531 242 531 325 q 510 127 531 176 q 458 45 490 78 q 383 -4 425 13 q 297 -21 342 -21 q 203 -2 246 -21 q 129 49 160 17 q 82 128 99 82 q 65 228 65 174 q 103 381 65 314 q 206 500 142 449 q 119 602 153 540 q 86 747 86 664 q 106 855 86 810 q 156 929 125 900 q 226 972 188 958 q 306 985 265 985 q 383 972 344 985 q 451 930 421 958 q 500 857 482 901 q 518 750 518 813 m 414 233 q 402 301 414 269 q 371 359 390 332 q 327 408 351 386 q 276 450 303 431 q 210 363 236 413 q 183 238 183 313 q 215 117 183 163 q 300 72 246 72 q 380 113 346 72 q 414 233 414 154 m 203 763 q 210 684 203 718 q 231 624 217 650 q 265 578 244 599 q 311 539 285 557 q 374 624 350 579 q 399 742 399 669 q 371 859 399 826 q 303 892 343 892 q 269 886 288 892 q 237 866 251 881 q 213 826 222 851 q 203 763 203 801 z "},"9":{"ha":597,"x_min":79,"x_max":525,"o":"m 121 99 q 219 120 174 104 q 299 169 264 136 q 358 258 333 203 q 393 396 382 313 q 292 374 339 374 q 135 452 192 374 q 79 668 79 531 q 131 900 79 815 q 296 985 183 985 q 396 963 353 985 q 467 890 439 940 q 510 756 496 839 q 525 554 525 674 q 505 350 525 449 q 439 174 485 251 q 318 49 393 97 q 133 -3 243 1 l 121 99 m 321 471 q 403 496 363 471 q 403 530 403 513 q 404 567 404 547 q 401 688 404 631 q 388 790 399 746 q 355 859 376 833 q 297 885 333 885 q 222 827 243 885 q 200 674 200 769 q 230 520 200 569 q 321 471 260 471 z "},"\u0000":{"ha":0,"x_min":0,"x_max":0,"o":""},"\t":{"ha":271,"x_min":0,"x_max":0,"o":""}," ":{"ha":271,"x_min":0,"x_max":0,"o":""},"!":{"ha":365,"x_min":100,"x_max":265,"o":"m 247 701 q 239 490 247 585 q 218 300 231 394 l 147 300 q 126 490 135 394 q 118 701 118 585 l 118 963 l 247 963 l 247 701 m 265 64 q 242 7 265 32 q 182 -18 219 -18 q 122 7 144 -18 q 100 64 100 32 q 122 122 100 97 q 182 147 144 147 q 242 122 219 147 q 265 64 265 97 z "},"\"":{"ha":525,"x_min":97,"x_max":428,"o":"m 211 1056 l 211 986 q 204 844 211 918 q 185 696 197 771 l 124 696 q 104 844 111 771 q 97 988 97 917 l 97 1056 l 211 1056 m 428 1056 l 428 986 q 421 844 428 918 q 401 696 414 771 l 340 696 q 321 844 328 771 q 314 988 314 917 l 314 1056 l 428 1056 z "},"#":{"ha":788,"x_min":65,"x_max":722,"o":"m 190 347 l 226 615 l 65 615 l 65 707 l 239 707 l 274 963 l 374 963 l 338 707 l 510 707 l 546 963 l 646 963 l 610 707 l 722 707 l 722 615 l 597 615 l 561 347 l 722 347 l 722 256 l 549 256 l 514 0 l 414 0 l 449 256 l 276 256 l 242 0 l 143 0 l 178 256 l 65 256 l 65 347 l 190 347 m 289 347 l 461 347 l 497 615 l 325 615 l 289 347 z "},"$":{"ha":597,"x_min":76,"x_max":521,"o":"m 521 254 q 480 113 521 176 q 354 31 439 50 l 354 -151 l 247 -151 l 247 24 q 149 45 194 29 q 76 83 104 61 l 111 176 q 185 140 143 154 q 274 125 226 125 q 364 160 335 125 q 393 253 393 196 q 383 313 393 286 q 354 360 372 339 q 313 398 336 381 q 265 432 290 415 q 202 475 233 453 q 146 527 171 497 q 105 597 121 557 q 89 692 89 636 q 99 762 89 726 q 130 827 110 797 q 179 880 150 857 q 247 914 208 903 l 247 1078 l 354 1078 l 354 924 q 426 909 392 919 q 488 883 460 899 l 454 789 q 396 815 426 804 q 333 825 365 825 q 249 793 283 825 q 215 692 215 761 q 228 633 215 658 q 261 588 240 608 q 309 549 282 567 q 364 513 336 532 q 422 469 393 492 q 472 417 450 447 q 508 348 494 388 q 521 254 521 308 z "},"%":{"ha":896,"x_min":67,"x_max":829,"o":"m 504 235 q 545 425 504 360 q 667 490 586 490 q 788 425 747 490 q 829 235 829 360 q 788 44 829 110 q 667 -21 747 -21 q 545 44 586 -21 q 504 235 504 110 m 728 235 q 713 365 728 328 q 667 403 697 403 q 621 365 636 403 q 606 235 606 328 q 621 104 606 142 q 667 67 636 67 q 713 104 697 67 q 728 235 728 142 m 692 963 l 304 0 l 196 0 l 583 963 l 692 963 m 67 726 q 108 917 67 851 q 229 982 149 982 q 351 917 310 982 q 392 726 392 851 q 351 536 392 601 q 229 471 310 471 q 108 536 149 471 q 67 726 67 601 m 290 726 q 275 857 290 819 q 229 894 260 894 q 183 857 199 894 q 168 726 168 819 q 183 596 168 633 q 229 558 199 558 q 275 596 260 558 q 290 726 290 633 z "},"&":{"ha":710,"x_min":61,"x_max":697,"o":"m 671 490 q 644 328 664 403 q 594 194 625 254 q 653 97 626 147 q 697 0 679 46 l 576 0 q 529 97 558 44 q 431 16 485 44 q 321 -12 376 -12 q 202 10 251 -12 q 122 67 153 32 q 76 147 90 103 q 61 235 61 192 q 74 333 61 289 q 109 411 88 376 q 159 475 131 446 q 219 529 188 504 q 156 641 183 582 q 129 769 129 700 q 183 926 129 867 q 329 985 238 985 q 415 969 379 985 q 474 925 451 953 q 508 861 497 897 q 518 785 518 825 q 505 699 518 738 q 470 629 492 661 q 420 571 449 597 q 363 521 392 544 l 528 288 q 554 386 543 332 q 571 504 565 440 l 671 490 m 325 89 q 403 112 365 89 q 474 181 442 135 l 276 451 q 208 365 235 414 q 182 244 182 317 q 218 133 182 178 q 325 89 254 89 m 238 771 q 258 683 238 724 q 307 600 278 642 q 380 679 350 636 q 410 785 410 722 q 387 864 410 838 q 326 890 364 890 q 260 859 282 890 q 238 771 238 828 z "},"'":{"ha":308,"x_min":97,"x_max":211,"o":"m 211 1056 l 211 986 q 204 844 211 918 q 185 696 197 771 l 124 696 q 104 844 111 771 q 97 988 97 917 l 97 1056 l 211 1056 z "},"(":{"ha":396,"x_min":106,"x_max":389,"o":"m 225 415 q 268 81 225 238 q 389 -207 311 -76 l 293 -260 q 156 46 207 -125 q 106 415 106 217 q 156 785 106 614 q 293 1090 207 956 l 389 1038 q 268 750 311 907 q 225 415 225 593 z "},")":{"ha":396,"x_min":7,"x_max":290,"o":"m 171 415 q 128 750 171 593 q 7 1038 85 907 l 103 1090 q 240 785 189 956 q 290 415 290 614 q 240 46 290 217 q 103 -260 189 -125 l 7 -207 q 128 81 85 -76 q 171 415 171 238 z "},"*":{"ha":538,"x_min":49,"x_max":489,"o":"m 92 890 q 172 851 132 876 q 242 804 211 826 q 220 885 232 840 q 208 972 208 931 l 208 982 l 331 982 l 331 972 q 319 885 331 931 q 296 804 307 840 q 365 851 328 825 q 443 889 403 876 l 453 892 l 489 775 l 482 772 q 396 757 442 760 q 314 751 350 754 q 377 699 342 728 q 436 638 413 671 l 442 631 l 343 558 l 339 567 q 297 643 314 600 q 267 721 281 686 q 236 643 253 686 q 196 568 219 600 l 190 560 l 92 632 l 99 639 q 159 701 122 672 q 224 754 196 731 q 140 758 186 757 q 54 775 94 760 l 49 779 l 83 893 l 92 890 z "},"+":{"ha":597,"x_min":60,"x_max":538,"o":"m 60 467 l 247 467 l 247 667 l 350 667 l 350 467 l 538 467 l 538 365 l 350 365 l 350 164 l 247 164 l 247 365 l 60 365 l 60 467 z "},",":{"ha":322,"x_min":53,"x_max":231,"o":"m 229 158 q 231 137 231 147 q 231 115 231 126 q 206 -56 231 26 q 138 -214 181 -137 l 53 -189 q 99 -45 88 -118 q 110 92 110 28 q 109 126 110 110 q 107 158 108 143 l 229 158 z "},"-":{"ha":324,"x_min":33,"x_max":290,"o":"m 33 472 l 290 472 l 290 360 l 33 360 l 33 472 z "},".":{"ha":322,"x_min":79,"x_max":244,"o":"m 244 64 q 222 7 244 32 q 161 -18 199 -18 q 101 7 124 -18 q 79 64 79 32 q 101 122 79 97 q 161 147 124 147 q 222 122 199 147 q 244 64 244 97 z "},"/":{"ha":375,"x_min":-36,"x_max":411,"o":"m 75 -257 l -36 -257 l 300 1088 l 411 1088 l 75 -257 z "},":":{"ha":322,"x_min":79,"x_max":244,"o":"m 244 65 q 222 8 244 33 q 161 -17 199 -17 q 101 8 124 -17 q 79 65 79 33 q 101 124 79 99 q 161 149 124 149 q 222 124 199 149 q 244 65 244 99 m 244 664 q 222 607 244 632 q 161 582 199 582 q 101 607 124 582 q 79 664 79 632 q 101 722 79 697 q 161 747 124 747 q 222 722 199 747 q 244 664 244 697 z "},";":{"ha":322,"x_min":38,"x_max":244,"o":"m 214 158 q 215 137 215 147 q 215 115 215 126 q 190 -56 215 26 q 122 -214 165 -137 l 38 -189 q 83 -45 72 -118 q 94 92 94 28 q 94 126 94 110 q 92 158 93 143 l 214 158 m 244 664 q 222 607 244 632 q 161 582 199 582 q 101 607 124 582 q 79 664 79 632 q 101 722 79 697 q 161 747 124 747 q 222 722 199 747 q 244 664 244 697 z "},"<":{"ha":597,"x_min":64,"x_max":533,"o":"m 64 365 l 64 451 l 482 707 l 533 617 l 179 408 l 533 200 l 482 110 l 64 365 z "},"=":{"ha":597,"x_min":60,"x_max":538,"o":"m 60 600 l 538 600 l 538 499 l 60 499 l 60 600 m 60 332 l 538 332 l 538 231 l 60 231 l 60 332 z "},">":{"ha":597,"x_min":64,"x_max":533,"o":"m 115 110 l 64 200 l 418 408 l 64 617 l 115 707 l 533 451 l 533 365 l 115 110 z "},"?":{"ha":475,"x_min":29,"x_max":444,"o":"m 197 879 q 130 867 160 879 q 76 835 100 854 l 29 926 q 113 969 68 953 q 211 985 157 985 q 318 967 274 985 q 390 919 363 949 q 431 850 418 889 q 444 769 444 811 q 430 683 444 721 q 392 612 415 644 q 344 549 369 579 q 295 487 318 519 q 258 417 272 454 q 243 331 243 379 q 243 315 243 324 q 244 300 243 307 l 136 300 q 132 358 132 326 q 145 444 132 407 q 178 511 158 481 q 222 568 199 542 q 266 623 246 594 q 299 684 286 651 q 313 760 313 717 q 282 848 313 817 q 197 879 251 879 m 279 64 q 256 7 279 32 q 196 -18 233 -18 q 136 7 158 -18 q 114 64 114 32 q 136 122 114 97 q 196 147 158 147 q 256 122 233 147 q 279 64 279 97 z "},"@":{"ha":1144,"x_min":88,"x_max":1057,"o":"m 842 60 q 755 75 789 60 q 700 114 721 90 q 642 76 672 88 q 576 65 613 65 q 406 147 464 65 q 347 388 347 229 q 413 623 347 536 q 599 710 479 710 q 703 698 657 710 q 775 675 750 686 l 775 267 q 789 183 775 208 q 843 157 803 157 q 923 233 900 157 q 946 453 946 310 q 926 624 946 544 q 862 762 906 703 q 749 854 818 821 q 583 888 681 888 q 426 854 497 888 q 305 756 356 821 q 226 599 254 692 q 199 386 199 506 q 225 172 199 265 q 300 14 251 78 q 419 -83 349 -50 q 576 -115 489 -115 q 684 -104 640 -115 q 743 -87 728 -93 l 758 -183 q 730 -192 749 -187 q 686 -202 711 -197 q 633 -210 661 -207 q 575 -212 604 -212 q 379 -177 468 -212 q 225 -69 290 -142 q 124 117 160 4 q 88 386 88 231 q 126 649 88 536 q 231 835 164 761 q 388 947 297 910 q 581 985 478 985 q 778 948 690 985 q 928 841 867 911 q 1024 672 990 771 q 1057 447 1057 572 q 1001 158 1057 257 q 842 60 946 60 m 590 165 q 663 190 633 165 q 657 229 658 210 q 656 268 656 249 l 656 601 q 635 607 649 604 q 601 610 621 610 q 503 556 535 610 q 472 388 472 501 q 499 226 472 286 q 590 165 525 165 z "},"A":{"ha":699,"x_min":28,"x_max":671,"o":"m 415 963 q 481 752 449 858 q 545 529 514 646 q 608 282 576 413 q 671 0 639 151 l 546 0 q 523 124 535 63 q 499 246 511 185 l 196 246 q 171 124 182 185 q 149 0 160 63 l 28 0 q 90 282 58 151 q 153 529 122 413 q 217 752 185 646 q 283 963 250 858 l 415 963 m 347 821 q 281 589 313 706 q 219 350 249 472 l 474 350 q 414 589 446 472 q 347 821 382 706 z "},"B":{"ha":724,"x_min":117,"x_max":663,"o":"m 242 553 l 328 553 q 500 708 500 553 q 485 788 500 757 q 447 837 471 819 q 392 861 424 854 q 326 868 361 868 q 284 867 306 868 q 242 863 263 865 l 242 553 m 242 453 l 242 106 q 294 99 268 101 q 344 96 319 96 q 418 104 383 96 q 478 132 453 113 q 519 185 504 151 q 533 269 533 219 q 487 404 533 356 q 342 453 440 453 l 242 453 m 117 949 q 216 966 165 960 q 317 972 267 972 q 435 960 379 972 q 535 920 492 949 q 603 845 578 892 q 629 729 629 799 q 593 588 629 643 q 500 507 557 533 q 617 422 571 479 q 663 265 663 365 q 638 139 663 190 q 569 55 614 88 q 463 8 525 22 q 328 -7 401 -7 q 226 -1 279 -7 q 117 15 174 4 l 117 949 z "},"C":{"ha":651,"x_min":76,"x_max":631,"o":"m 426 -21 q 167 106 257 -21 q 76 496 76 232 q 102 724 76 631 q 174 875 128 817 q 282 959 219 933 q 418 985 344 985 q 532 969 479 985 q 618 929 585 953 l 581 825 q 509 861 547 847 q 421 875 471 875 q 260 783 310 875 q 210 496 210 690 q 263 194 210 300 q 435 89 315 89 q 527 103 492 89 q 596 139 563 117 l 631 40 q 547 -3 599 15 q 426 -21 494 -21 z "},"D":{"ha":800,"x_min":115,"x_max":724,"o":"m 724 482 q 695 253 724 347 q 613 101 667 160 q 484 17 560 43 q 315 -10 408 -10 q 115 15 221 -10 l 115 949 q 218 967 168 960 q 314 974 268 974 q 484 947 408 974 q 613 863 560 921 q 695 710 667 804 q 724 482 724 617 m 590 482 q 575 657 590 585 q 528 775 560 729 q 444 842 496 821 q 319 863 392 863 q 281 861 300 863 q 240 857 261 860 l 240 107 q 281 103 261 104 q 318 101 300 101 q 443 122 392 101 q 527 188 494 143 q 575 306 560 233 q 590 482 590 378 z "},"E":{"ha":633,"x_min":117,"x_max":571,"o":"m 117 0 l 117 963 l 549 963 l 549 856 l 242 856 l 242 557 l 519 557 l 519 453 l 242 453 l 242 107 l 571 107 l 571 0 l 117 0 z "},"F":{"ha":592,"x_min":117,"x_max":549,"o":"m 117 0 l 117 963 l 549 963 l 549 856 l 242 856 l 242 553 l 514 553 l 514 449 l 242 449 l 242 0 l 117 0 z "},"G":{"ha":729,"x_min":76,"x_max":633,"o":"m 76 482 q 101 714 76 618 q 173 870 126 810 q 285 958 219 931 q 433 985 351 985 q 547 967 496 985 q 631 928 599 950 l 592 824 q 522 860 560 846 q 436 875 485 875 q 263 777 315 875 q 210 482 210 679 q 226 301 210 376 q 271 179 242 226 q 342 110 300 132 q 435 88 383 88 q 508 97 478 88 l 508 474 l 633 474 l 633 21 q 540 -10 596 3 q 424 -22 485 -22 q 285 8 349 -22 q 174 99 221 38 q 102 256 128 161 q 76 482 76 351 z "},"H":{"ha":800,"x_min":117,"x_max":683,"o":"m 558 963 l 683 963 l 683 0 l 558 0 l 558 447 l 242 447 l 242 0 l 117 0 l 117 963 l 242 963 l 242 556 l 558 556 l 558 963 z "},"I":{"ha":358,"x_min":117,"x_max":242,"o":"m 117 963 l 242 963 l 242 0 l 117 0 l 117 963 z "},"J":{"ha":549,"x_min":7,"x_max":439,"o":"m 439 256 q 426 141 439 192 q 384 54 413 90 q 309 -1 356 18 q 196 -21 263 -21 q 94 -5 143 -21 q 7 40 46 11 l 49 139 q 112 105 72 121 q 189 89 151 89 q 241 96 218 89 q 281 122 264 103 q 306 173 297 140 q 314 256 314 206 l 314 963 l 439 963 l 439 256 z "},"K":{"ha":715,"x_min":117,"x_max":701,"o":"m 667 963 q 598 858 636 915 q 519 741 560 801 q 438 622 479 681 q 360 514 397 564 q 450 409 401 472 q 546 276 499 346 q 635 133 593 206 q 701 0 676 61 l 561 0 q 494 131 532 64 q 413 259 456 197 q 327 374 371 321 q 242 463 283 426 l 242 0 l 117 0 l 117 963 l 242 963 l 242 538 q 318 642 278 583 q 398 758 358 700 q 472 870 438 817 q 531 963 507 924 l 667 963 z "},"L":{"ha":579,"x_min":117,"x_max":546,"o":"m 546 107 l 546 0 l 117 0 l 117 963 l 242 963 l 242 107 l 546 107 z "},"M":{"ha":1008,"x_min":96,"x_max":913,"o":"m 451 133 q 394 325 424 233 q 338 498 365 417 q 286 646 311 579 q 240 763 261 713 q 231 588 235 683 q 224 393 228 493 q 219 192 221 293 q 215 0 217 92 l 96 0 q 104 252 100 125 q 115 502 108 379 q 128 742 121 625 q 146 963 136 858 l 269 963 q 326 820 294 903 q 391 647 358 738 q 454 467 424 557 q 507 301 485 376 q 558 467 529 376 q 619 647 588 557 q 683 820 651 738 q 739 963 714 903 l 863 963 q 880 742 872 858 q 894 502 888 625 q 904 252 900 379 q 913 0 908 125 l 793 0 q 788 193 790 92 q 783 397 786 294 q 775 595 779 499 q 765 772 771 692 q 734 685 753 738 q 695 572 715 633 q 653 447 675 511 q 613 322 632 382 q 580 213 594 263 q 557 133 565 164 l 451 133 z "},"N":{"ha":807,"x_min":117,"x_max":690,"o":"m 589 0 q 513 177 556 82 q 424 369 471 272 q 329 560 378 465 q 233 738 281 656 l 233 0 l 117 0 l 117 963 l 221 963 q 323 786 274 876 q 417 608 372 696 q 501 434 461 519 q 574 272 540 349 l 574 963 l 690 963 l 690 0 l 589 0 z "},"O":{"ha":840,"x_min":78,"x_max":763,"o":"m 763 481 q 742 276 763 368 q 680 117 722 183 q 573 15 638 51 q 421 -21 508 -21 q 269 15 333 -21 q 162 117 204 51 q 99 276 119 183 q 78 481 78 368 q 99 686 78 593 q 162 845 119 779 q 269 948 204 911 q 421 985 333 985 q 573 948 508 985 q 680 845 638 911 q 742 686 722 779 q 763 481 763 593 m 629 481 q 618 640 629 568 q 582 765 607 713 q 517 846 557 817 q 421 875 478 875 q 324 846 364 875 q 260 765 285 817 q 223 640 235 713 q 211 481 211 568 q 223 321 211 393 q 260 197 235 249 q 324 117 285 146 q 421 89 364 89 q 517 117 478 89 q 582 197 557 146 q 618 321 607 249 q 629 481 629 393 z "},"P":{"ha":674,"x_min":117,"x_max":628,"o":"m 117 949 q 307 972 214 972 q 438 955 379 972 q 540 901 497 938 q 605 806 582 864 q 628 665 628 747 q 604 523 628 582 q 538 427 581 464 q 434 374 494 390 q 300 357 374 357 l 242 357 l 242 0 l 117 0 l 117 949 m 242 467 l 292 467 q 377 477 339 467 q 442 511 415 488 q 482 572 468 535 q 496 665 496 610 q 482 759 496 721 q 444 820 468 797 q 385 853 419 843 q 308 863 350 863 q 242 858 272 863 l 242 467 z "},"Q":{"ha":840,"x_min":78,"x_max":763,"o":"m 763 481 q 747 299 763 382 q 699 151 731 215 q 617 45 667 88 q 500 -12 567 3 q 563 -103 503 -71 q 717 -153 622 -136 l 688 -250 q 581 -222 632 -237 q 490 -182 531 -207 q 420 -118 449 -157 q 379 -18 392 -79 q 245 30 301 -10 q 151 135 189 69 q 96 288 114 200 q 78 481 78 375 q 99 686 78 593 q 162 845 119 779 q 269 948 204 911 q 421 985 333 985 q 573 948 508 985 q 680 845 638 911 q 742 686 722 779 q 763 481 763 593 m 629 481 q 618 640 629 568 q 582 765 607 713 q 517 846 557 817 q 421 875 478 875 q 324 846 364 875 q 260 765 285 817 q 223 640 235 713 q 211 481 211 568 q 223 321 211 393 q 260 197 235 249 q 324 117 285 146 q 421 89 364 89 q 517 117 478 89 q 582 197 557 146 q 618 321 607 249 q 629 481 629 393 z "},"R":{"ha":714,"x_min":117,"x_max":672,"o":"m 117 949 q 304 972 214 972 q 435 956 376 972 q 535 903 493 939 q 599 810 576 867 q 622 672 622 753 q 584 510 622 572 q 481 417 546 449 q 523 341 497 389 q 576 235 549 293 q 628 117 603 178 q 672 0 654 56 l 547 0 q 509 94 532 42 q 461 199 486 147 q 411 299 436 251 q 367 381 386 347 q 321 376 344 378 q 274 375 297 375 l 239 375 l 239 0 l 117 0 l 117 949 m 239 478 l 292 478 q 439 522 388 478 q 490 672 490 565 q 477 763 490 726 q 440 822 464 800 q 381 853 415 843 q 306 863 347 863 q 239 858 269 863 l 239 478 z "},"S":{"ha":556,"x_min":35,"x_max":524,"o":"m 236 86 q 352 128 311 86 q 393 240 393 169 q 381 307 393 278 q 348 360 368 336 q 301 403 328 383 q 247 442 275 422 q 181 489 215 464 q 117 547 146 514 q 71 625 89 581 q 53 729 53 669 q 73 835 53 788 q 128 915 93 882 q 213 967 164 949 q 319 985 263 985 q 422 971 375 985 q 501 938 469 957 l 463 839 q 399 869 433 858 q 328 879 365 879 q 219 842 260 879 q 178 735 178 806 q 191 667 178 696 q 226 614 204 638 q 276 571 247 590 q 336 531 304 551 q 401 485 368 510 q 462 427 435 460 q 506 351 489 394 q 524 247 524 307 q 507 144 524 193 q 455 59 490 96 q 366 1 419 22 q 240 -21 313 -21 q 124 -6 174 -21 q 35 35 74 10 l 74 135 q 148 99 110 113 q 236 86 186 86 z "},"T":{"ha":592,"x_min":19,"x_max":572,"o":"m 572 963 l 572 856 l 358 856 l 358 0 l 233 0 l 233 856 l 19 856 l 19 963 l 572 963 z "},"U":{"ha":763,"x_min":108,"x_max":654,"o":"m 378 -21 q 176 56 243 -21 q 108 297 108 132 l 108 963 l 233 963 l 233 308 q 265 144 233 199 q 381 89 297 89 q 498 145 467 89 q 529 308 529 201 l 529 963 l 654 963 l 654 297 q 585 57 654 135 q 378 -21 515 -21 z "},"V":{"ha":690,"x_min":28,"x_max":663,"o":"m 278 0 q 214 210 246 104 q 151 433 182 317 q 89 680 119 550 q 28 963 58 810 l 158 963 q 199 748 176 856 q 246 536 221 640 q 297 334 271 432 q 347 149 322 236 q 398 334 372 236 q 449 536 424 432 q 496 748 474 640 q 536 963 518 856 l 663 963 q 601 680 632 810 q 540 433 571 550 q 476 210 508 317 q 413 0 444 104 l 278 0 z "},"W":{"ha":1050,"x_min":56,"x_max":994,"o":"m 589 849 q 628 672 607 765 q 672 488 649 579 q 718 310 694 396 q 763 153 742 224 q 794 326 779 231 q 824 525 810 421 q 851 740 839 629 q 872 963 864 851 l 994 963 q 923 449 963 683 q 831 0 883 214 l 704 0 q 659 151 683 68 q 611 324 635 235 q 565 506 588 414 q 525 683 543 597 q 485 506 507 597 q 439 324 463 414 q 391 151 415 235 q 346 0 367 68 l 219 0 q 127 449 167 214 q 56 963 88 683 l 182 963 q 203 741 190 851 q 230 526 215 631 q 260 326 244 421 q 292 153 275 231 q 336 310 313 224 q 383 488 360 396 q 426 672 406 579 q 465 849 447 765 l 589 849 z "},"X":{"ha":654,"x_min":25,"x_max":629,"o":"m 325 610 l 490 963 l 615 963 l 396 515 q 458 385 425 453 q 522 251 490 318 q 581 119 553 183 q 629 0 608 56 l 506 0 q 470 91 490 42 q 426 192 450 140 q 376 297 401 243 q 325 400 350 350 q 274 297 300 350 q 224 192 247 243 q 180 91 200 140 q 146 0 160 42 l 25 0 q 72 117 44 54 q 131 245 100 179 q 192 378 161 311 q 253 506 224 444 l 31 963 l 158 963 l 325 610 z "},"Y":{"ha":626,"x_min":4,"x_max":622,"o":"m 622 963 q 570 824 599 897 q 510 674 542 750 q 444 524 478 599 q 378 381 411 449 l 378 0 l 253 0 l 253 372 q 185 517 219 440 q 118 669 150 593 q 57 821 86 746 q 4 963 28 896 l 139 963 q 221 731 175 853 q 315 503 267 608 q 410 731 364 608 q 492 963 456 853 l 622 963 z "},"Z":{"ha":600,"x_min":43,"x_max":551,"o":"m 542 864 q 449 691 500 790 q 347 487 397 592 q 251 282 296 382 q 176 107 206 182 l 551 107 l 551 0 l 43 0 l 43 76 q 92 199 64 132 q 151 337 119 265 q 217 481 183 408 q 285 621 251 553 q 351 749 319 689 q 408 856 382 810 l 61 856 l 61 963 l 542 963 l 542 864 z "},"[":{"ha":390,"x_min":131,"x_max":382,"o":"m 131 1088 l 382 1088 l 382 993 l 244 993 l 244 -162 l 382 -162 l 382 -257 l 131 -257 l 131 1088 z "},"\\":{"ha":375,"x_min":-36,"x_max":411,"o":"m -36 1088 l 75 1088 l 411 -257 l 300 -257 l -36 1088 z "},"]":{"ha":390,"x_min":8,"x_max":260,"o":"m 260 -257 l 8 -257 l 8 -162 l 146 -162 l 146 993 l 8 993 l 8 1088 l 260 1088 l 260 -257 z "},"^":{"ha":597,"x_min":42,"x_max":557,"o":"m 358 963 l 557 474 l 457 433 l 300 829 l 143 433 l 42 474 l 240 963 l 358 963 z "},"_":{"ha":510,"x_min":-6,"x_max":515,"o":"m -6 -151 l 515 -151 l 515 -253 l -6 -253 l -6 -151 z "},"`":{"ha":436,"x_min":39,"x_max":288,"o":"m 124 1081 l 288 860 l 228 808 l 39 1008 l 124 1081 z "},"a":{"ha":603,"x_min":57,"x_max":503,"o":"m 119 714 q 196 738 156 729 q 283 747 236 747 q 442 687 381 747 q 503 499 503 626 l 503 15 q 401 -7 453 1 q 299 -15 349 -15 q 205 -3 249 -15 q 128 38 161 10 q 76 108 96 65 q 57 211 57 150 q 74 310 57 268 q 122 381 92 353 q 194 424 153 410 q 285 439 236 439 q 386 428 331 439 l 386 494 q 355 607 386 575 q 265 639 324 639 q 205 633 233 639 q 144 613 176 626 l 119 714 m 176 213 q 210 118 176 149 q 304 88 243 88 q 386 97 342 88 l 386 329 q 304 340 344 340 q 254 334 278 340 q 213 313 231 328 q 186 274 196 299 q 176 213 176 250 z "},"b":{"ha":649,"x_min":107,"x_max":582,"o":"m 226 97 q 264 90 246 92 q 297 88 282 88 q 417 152 378 88 q 457 367 457 217 q 447 497 457 444 q 419 582 438 550 q 374 628 400 614 q 313 642 347 642 q 226 619 267 642 l 226 97 m 226 724 q 272 741 249 735 q 326 747 294 747 q 443 720 394 747 q 522 644 492 693 q 567 524 553 594 q 582 367 582 454 q 513 78 582 174 q 297 -18 444 -18 q 196 -8 246 -18 q 107 19 146 3 l 107 1057 l 226 1078 l 226 724 z "},"c":{"ha":490,"x_min":67,"x_max":469,"o":"m 331 -18 q 206 11 256 -18 q 124 91 156 40 q 80 211 93 142 q 67 363 67 281 q 133 645 67 543 q 332 747 199 747 q 404 738 372 747 q 464 713 436 728 l 433 614 q 338 642 390 642 q 227 574 263 642 q 192 363 192 506 q 199 252 192 303 q 223 165 206 201 q 269 108 240 129 q 342 88 297 88 q 397 95 372 88 q 443 115 421 103 l 469 22 q 410 -6 447 7 q 331 -18 374 -18 z "},"d":{"ha":649,"x_min":67,"x_max":542,"o":"m 422 619 q 336 642 382 642 q 275 628 301 642 q 230 582 249 614 q 201 497 211 550 q 192 367 192 444 q 231 152 192 217 q 351 88 271 88 q 385 90 367 88 q 422 97 403 92 l 422 619 m 422 1057 l 542 1078 l 542 19 q 453 -8 503 3 q 351 -18 403 -18 q 134 78 201 -18 q 67 367 67 174 q 81 524 67 454 q 127 644 96 594 q 207 720 158 693 q 322 747 256 747 q 377 741 354 747 q 422 724 400 735 l 422 1057 z "},"e":{"ha":606,"x_min":68,"x_max":538,"o":"m 190 329 q 200 233 192 276 q 227 156 208 189 q 277 106 246 124 q 357 88 308 88 q 431 99 397 88 q 481 119 465 111 l 503 24 q 442 -3 485 11 q 342 -18 400 -18 q 213 10 265 -18 q 128 88 161 38 q 82 207 96 138 q 68 360 68 276 q 135 654 68 561 q 311 747 201 747 q 486 654 435 747 q 538 393 538 561 q 538 362 538 378 q 536 329 538 346 l 190 329 m 311 646 q 224 586 251 646 q 192 426 197 526 l 413 426 q 392 587 413 528 q 311 646 371 646 z "},"f":{"ha":425,"x_min":108,"x_max":442,"o":"m 321 1078 q 392 1069 361 1078 q 442 1051 422 1061 l 417 957 q 376 972 397 967 q 332 976 356 976 q 279 965 300 976 q 247 935 258 954 q 232 888 236 915 q 228 831 228 861 l 228 729 l 415 729 l 415 626 l 228 626 l 228 0 l 108 0 l 108 831 q 161 1013 108 949 q 321 1078 214 1078 z "},"g":{"ha":649,"x_min":67,"x_max":542,"o":"m 542 21 q 522 -110 542 -57 q 467 -197 501 -164 q 385 -246 432 -231 q 286 -261 339 -261 q 197 -251 242 -261 q 115 -222 153 -242 l 140 -122 q 201 -147 165 -136 q 276 -158 238 -158 q 383 -119 344 -158 q 422 14 422 -81 l 422 49 q 375 33 400 39 q 318 26 350 26 q 127 116 188 26 q 67 369 67 206 q 83 527 67 457 q 133 647 99 597 q 221 722 167 696 q 353 747 275 747 q 453 737 404 747 q 542 710 503 726 l 542 21 m 422 632 q 385 640 403 638 q 351 642 367 642 q 230 578 268 642 q 192 369 192 514 q 229 185 192 239 q 336 132 267 132 q 381 138 360 132 q 422 153 403 143 l 422 632 z "},"h":{"ha":669,"x_min":108,"x_max":569,"o":"m 108 0 l 108 1057 l 228 1078 l 228 725 q 285 739 254 733 q 349 744 317 744 q 435 730 394 744 q 505 681 475 715 q 552 587 535 646 q 569 440 569 528 l 569 0 l 450 0 l 450 431 q 422 589 450 539 q 318 639 394 639 q 228 625 278 639 l 228 0 l 108 0 z "},"i":{"ha":336,"x_min":90,"x_max":246,"o":"m 228 0 l 108 0 l 108 729 l 228 729 l 228 0 m 168 858 q 113 880 136 858 q 90 938 90 901 q 113 995 90 974 q 168 1017 136 1017 q 223 995 200 1017 q 246 938 246 974 q 223 880 246 901 q 168 858 200 858 z "},"j":{"ha":336,"x_min":-47,"x_max":246,"o":"m 228 -39 q 175 -210 228 -158 q 35 -261 122 -261 q -47 -247 -11 -261 l -31 -146 q -6 -151 -18 -149 q 22 -153 7 -153 q 58 -148 42 -153 q 85 -129 74 -143 q 102 -92 96 -115 q 108 -32 108 -68 l 108 729 l 228 729 l 228 -39 m 168 858 q 113 880 136 858 q 90 938 90 901 q 113 995 90 974 q 168 1017 136 1017 q 223 995 200 1017 q 246 938 246 974 q 223 880 246 901 q 168 858 200 858 z "},"k":{"ha":593,"x_min":108,"x_max":583,"o":"m 560 729 q 448 547 501 629 q 342 392 394 464 q 410 304 375 353 q 476 203 444 256 q 536 99 508 151 q 583 0 564 47 l 453 0 q 404 96 432 46 q 346 194 376 146 q 285 285 315 242 q 228 357 254 328 l 228 0 l 108 0 l 108 1057 l 228 1078 l 228 415 q 281 490 253 449 q 338 574 310 532 q 390 657 365 617 q 432 729 415 697 l 560 729 z "},"l":{"ha":338,"x_min":106,"x_max":313,"o":"m 297 -14 q 150 37 194 -11 q 106 189 106 85 l 106 1057 l 225 1078 l 225 186 q 244 116 225 138 q 313 86 264 94 l 297 -14 z "},"m":{"ha":969,"x_min":108,"x_max":869,"o":"m 108 708 q 214 734 157 724 q 318 744 271 744 q 406 732 367 744 q 476 690 446 719 q 554 729 513 714 q 646 744 596 744 q 737 730 696 744 q 807 681 778 715 q 853 587 836 646 q 869 440 869 528 l 869 0 l 750 0 l 750 431 q 725 589 750 539 q 631 639 700 639 q 577 629 604 639 q 526 603 550 619 q 543 531 538 571 q 549 440 549 490 l 549 0 l 429 0 l 429 431 q 404 589 429 539 q 310 639 379 639 q 228 625 274 639 l 228 0 l 108 0 l 108 708 z "},"n":{"ha":669,"x_min":108,"x_max":569,"o":"m 108 708 q 219 734 160 724 q 329 744 279 744 q 428 730 383 744 q 503 681 472 715 q 552 587 535 646 q 569 440 569 528 l 569 0 l 450 0 l 450 431 q 422 589 450 539 q 318 639 394 639 q 228 625 278 639 l 228 0 l 108 0 l 108 708 z "},"o":{"ha":643,"x_min":67,"x_max":576,"o":"m 576 364 q 561 208 576 278 q 515 88 546 138 q 435 10 483 38 q 322 -18 388 -18 q 208 10 257 -18 q 128 88 160 38 q 82 208 97 138 q 67 364 67 278 q 82 519 67 449 q 128 641 97 590 q 208 719 160 692 q 322 747 257 747 q 435 719 388 747 q 515 641 483 692 q 561 519 546 590 q 576 364 576 449 m 451 364 q 444 476 451 425 q 422 563 438 526 q 382 620 407 600 q 322 640 357 640 q 262 620 286 640 q 222 563 238 600 q 199 476 206 526 q 192 364 192 425 q 199 252 192 303 q 222 165 206 201 q 262 109 238 129 q 322 89 286 89 q 382 109 357 89 q 422 165 407 129 q 444 252 438 201 q 451 364 451 303 z "},"p":{"ha":649,"x_min":107,"x_max":582,"o":"m 226 110 q 313 88 267 88 q 374 101 347 88 q 419 147 400 115 q 447 232 438 179 q 457 363 457 285 q 419 577 457 513 q 297 642 381 642 q 264 640 282 642 q 226 632 246 638 l 226 110 m 226 -257 l 107 -257 l 107 710 q 195 737 146 726 q 296 747 244 747 q 427 721 372 747 q 516 645 482 694 q 566 524 550 596 q 582 361 582 453 q 523 79 582 176 q 331 -18 464 -18 q 274 -12 299 -18 q 226 6 249 -6 l 226 -257 z "},"q":{"ha":649,"x_min":67,"x_max":542,"o":"m 422 632 q 385 640 403 638 q 351 642 367 642 q 230 577 268 642 q 192 363 192 513 q 201 232 192 285 q 230 147 211 179 q 275 101 249 115 q 336 88 301 88 q 422 110 382 88 l 422 632 m 422 6 q 375 -12 400 -6 q 318 -18 350 -18 q 126 79 185 -18 q 67 361 67 176 q 83 524 67 453 q 133 645 99 596 q 221 721 167 694 q 353 747 275 747 q 453 737 404 747 q 542 710 503 726 l 542 -257 l 422 -257 l 422 6 z "},"r":{"ha":456,"x_min":108,"x_max":444,"o":"m 424 621 q 324 640 379 640 q 228 622 272 640 l 228 0 l 108 0 l 108 697 q 201 730 149 717 q 315 743 253 743 q 382 739 349 743 q 444 724 415 735 l 424 621 z "},"s":{"ha":474,"x_min":50,"x_max":438,"o":"m 210 85 q 290 115 263 85 q 317 193 317 144 q 306 245 317 224 q 276 283 294 267 q 235 313 258 300 q 188 342 211 326 q 142 374 164 356 q 102 417 119 393 q 74 473 85 442 q 64 546 64 504 q 120 692 64 636 q 272 747 176 747 q 349 737 313 747 q 408 714 385 726 l 382 618 q 332 639 357 632 q 278 646 307 646 q 207 620 233 646 q 181 546 181 594 q 190 498 181 518 q 216 462 200 478 q 252 432 232 446 q 294 406 272 418 q 347 372 321 390 q 392 330 372 354 q 425 273 413 306 q 438 194 438 240 q 381 40 438 99 q 217 -18 325 -18 q 117 -3 161 -18 q 50 25 72 13 l 75 124 q 131 99 96 113 q 210 85 167 85 z "},"t":{"ha":446,"x_min":100,"x_max":425,"o":"m 219 729 l 403 729 l 403 626 l 219 626 l 219 225 q 247 120 219 150 q 319 90 274 90 q 365 97 343 90 q 401 114 386 104 l 425 18 q 304 -15 368 -15 q 151 42 201 -15 q 100 233 100 100 l 100 925 l 219 946 l 219 729 z "},"u":{"ha":667,"x_min":99,"x_max":560,"o":"m 560 21 q 516 8 542 14 q 462 -3 490 1 q 405 -12 433 -8 q 353 -15 376 -15 q 249 -2 296 -15 q 168 44 201 11 q 117 135 135 78 q 99 281 99 193 l 99 729 l 218 729 l 218 285 q 251 134 218 178 q 350 90 283 90 q 394 92 372 90 q 440 101 417 94 l 440 729 l 560 729 l 560 21 z "},"v":{"ha":551,"x_min":21,"x_max":531,"o":"m 278 140 q 313 271 294 196 q 350 426 332 346 q 384 585 368 506 q 411 729 400 664 l 531 729 q 488 536 513 638 q 438 337 464 435 q 386 151 413 239 q 338 0 360 64 l 214 0 q 165 151 192 64 q 113 337 139 239 q 63 536 88 435 q 21 729 39 638 l 147 729 q 174 585 158 664 q 208 426 190 506 q 243 271 225 346 q 278 140 261 196 z "},"w":{"ha":796,"x_min":28,"x_max":768,"o":"m 300 0 l 179 0 q 98 329 136 143 q 28 729 60 515 l 146 729 q 163 590 151 669 q 187 426 174 510 q 214 263 200 342 q 240 129 228 185 q 269 265 253 185 q 301 431 285 346 q 331 595 317 515 q 353 729 344 675 l 465 729 q 483 596 471 675 q 508 431 494 517 q 535 265 521 346 q 560 129 549 185 q 586 264 572 185 q 613 426 600 343 q 638 590 626 510 q 654 729 649 669 l 768 729 q 698 329 736 515 q 617 0 660 143 l 500 0 q 476 110 489 43 q 449 254 463 178 q 425 408 436 331 q 406 549 414 485 q 383 408 397 485 q 354 254 369 331 q 324 110 339 178 q 300 0 310 43 z "},"x":{"ha":544,"x_min":21,"x_max":524,"o":"m 338 386 q 387 294 361 343 q 438 196 413 246 q 485 96 463 146 q 524 0 507 46 l 406 0 q 341 153 378 81 q 268 290 304 226 q 198 153 233 226 q 135 0 163 81 l 21 0 q 59 95 36 46 q 107 194 82 144 q 158 292 132 244 q 207 383 183 340 l 28 729 l 149 729 l 274 482 l 400 729 l 517 729 l 338 386 z "},"y":{"ha":550,"x_min":1,"x_max":532,"o":"m 276 151 q 350 431 317 290 q 414 729 383 571 l 532 729 q 487 529 511 628 q 437 339 463 431 q 385 166 411 247 q 338 18 360 85 q 287 -113 311 -60 q 234 -199 263 -167 q 172 -247 206 -232 q 93 -261 139 -261 q 43 -255 68 -261 q 1 -242 18 -249 l 24 -144 q 92 -160 60 -160 q 157 -131 132 -160 q 206 -43 182 -101 l 219 -8 q 166 152 193 64 q 113 336 139 240 q 64 533 88 432 q 21 729 40 633 l 147 729 q 174 586 158 664 q 206 431 189 508 q 242 280 224 353 q 276 151 260 207 z "},"z":{"ha":494,"x_min":46,"x_max":453,"o":"m 443 640 q 374 518 413 589 q 297 373 335 447 q 224 227 258 299 q 169 103 190 156 l 453 103 l 453 0 l 46 0 l 46 86 q 103 222 68 147 q 176 372 138 297 q 251 515 214 447 q 314 626 288 582 l 63 626 l 63 729 l 443 729 l 443 640 z "},"{":{"ha":369,"x_min":51,"x_max":361,"o":"m 51 461 q 119 510 97 467 q 142 632 142 554 l 142 871 q 198 1039 142 990 q 361 1088 254 1088 l 361 994 q 279 965 303 994 q 256 872 256 935 l 256 635 q 160 415 256 472 q 256 196 256 358 l 256 -42 q 279 -134 256 -104 q 361 -164 303 -164 l 361 -257 q 198 -208 254 -257 q 142 -40 142 -160 l 142 199 q 119 320 142 276 q 51 369 97 364 l 51 461 z "},"|":{"ha":374,"x_min":131,"x_max":243,"o":"m 131 1088 l 243 1088 l 243 -257 l 131 -257 l 131 1088 z "},"}":{"ha":369,"x_min":8,"x_max":318,"o":"m 318 369 q 250 320 272 364 q 228 199 228 276 l 228 -40 q 172 -208 228 -160 q 8 -257 115 -257 l 8 -164 q 90 -134 67 -164 q 114 -42 114 -104 l 114 196 q 210 415 114 358 q 114 635 114 472 l 114 872 q 90 965 114 935 q 8 994 67 994 l 8 1088 q 172 1039 115 1088 q 228 871 228 990 l 228 632 q 250 510 228 554 q 318 461 272 467 l 318 369 z "},"~":{"ha":597,"x_min":35,"x_max":563,"o":"m 194 522 q 261 506 232 522 q 315 470 290 490 q 360 434 339 450 q 406 418 382 418 q 454 446 439 418 q 481 518 469 474 l 563 493 q 548 430 558 463 q 519 371 538 397 q 472 327 500 344 q 401 310 443 310 q 335 326 364 310 q 283 362 307 342 q 236 398 258 382 q 192 414 214 414 q 145 386 163 414 q 117 314 128 358 l 35 339 q 49 402 39 369 q 78 461 60 435 q 126 505 97 488 q 194 522 154 522 z "},"€":{"ha":597,"x_min":38,"x_max":575,"o":"m 38 644 l 151 644 q 190 810 164 744 q 253 914 217 875 q 335 968 290 953 q 428 983 379 983 q 504 972 469 983 q 568 940 539 960 l 531 844 q 487 867 511 857 q 431 878 463 878 q 323 820 360 878 q 274 644 286 763 l 485 644 l 467 553 l 268 553 q 267 517 267 535 q 267 479 267 499 l 267 418 l 439 418 l 421 326 l 274 326 q 329 141 288 196 q 444 86 371 86 q 501 94 474 86 q 553 114 529 101 l 575 18 q 517 -6 557 7 q 436 -18 478 -18 q 328 1 376 -18 q 243 61 279 19 q 183 168 207 103 q 149 326 158 233 l 38 326 l 38 418 l 143 418 q 142 448 142 433 q 142 479 142 463 q 142 517 142 499 q 143 553 142 535 l 38 553 l 38 644 z "},"‚":{"ha":310,"x_min":47,"x_max":225,"o":"m 224 158 q 225 139 225 147 q 225 119 225 131 q 200 -32 225 40 q 132 -172 175 -104 l 47 -147 q 93 -21 82 -85 q 104 100 104 43 q 103 130 104 115 q 101 158 103 144 l 224 158 z "},"ƒ":{"ha":597,"x_min":31,"x_max":518,"o":"m 492 957 q 456 970 474 965 q 414 975 438 975 q 322 939 350 975 q 293 835 293 903 l 293 722 l 490 722 l 490 621 l 293 621 l 293 -37 q 242 -202 293 -143 q 100 -261 192 -261 q 31 -250 67 -261 l 43 -153 q 89 -160 67 -160 q 151 -136 128 -160 q 174 -49 174 -112 l 174 833 q 233 1015 174 951 q 401 1078 293 1078 q 462 1072 433 1078 q 518 1057 490 1067 l 492 957 z "},"„":{"ha":543,"x_min":47,"x_max":458,"o":"m 224 158 q 225 139 225 147 q 225 119 225 131 q 200 -32 225 40 q 132 -172 175 -104 l 47 -147 q 93 -21 82 -85 q 104 100 104 43 q 103 130 104 115 q 101 158 103 144 l 224 158 m 457 158 q 458 139 458 147 q 458 119 458 131 q 433 -32 458 40 q 365 -172 408 -104 l 281 -147 q 326 -21 315 -85 q 338 100 338 43 q 337 130 338 115 q 335 158 336 144 l 457 158 z "},"…":{"ha":1135,"x_min":28,"x_max":1044,"o":"m 193 64 q 170 7 193 32 q 110 -18 147 -18 q 50 7 72 -18 q 28 64 28 32 q 50 122 28 97 q 110 147 72 147 q 170 122 147 147 q 193 64 193 97 m 618 64 q 595 7 618 32 q 535 -18 572 -18 q 475 7 497 -18 q 453 64 453 32 q 475 122 453 97 q 535 147 497 147 q 595 122 572 147 q 618 64 618 97 m 1044 64 q 1022 7 1044 32 q 961 -18 999 -18 q 901 7 924 -18 q 879 64 879 32 q 901 122 879 97 q 961 147 924 147 q 1022 122 999 147 q 1044 64 1044 97 z "},"†":{"ha":533,"x_min":51,"x_max":482,"o":"m 318 560 l 318 197 q 315 -15 318 79 q 301 -201 311 -108 l 232 -201 q 219 -14 224 -107 q 215 197 215 79 l 215 560 l 51 560 l 51 660 l 215 660 l 215 963 l 318 963 l 318 660 l 482 660 l 482 560 l 318 560 z "},"‡":{"ha":533,"x_min":51,"x_max":482,"o":"m 51 288 l 215 288 l 215 560 l 51 560 l 51 660 l 215 660 l 215 963 l 318 963 l 318 660 l 482 660 l 482 560 l 318 560 l 318 288 l 482 288 l 482 188 l 318 188 q 317 80 318 131 q 315 -18 317 29 q 309 -110 313 -65 q 301 -201 306 -156 l 232 -201 q 224 -110 228 -156 q 219 -18 221 -65 q 216 80 217 29 q 215 188 215 131 l 51 188 l 51 288 z "},"ˆ":{"ha":436,"x_min":58,"x_max":378,"o":"m 117 807 l 58 856 l 218 1067 l 378 856 l 319 807 l 218 925 l 117 807 z "},"‰":{"ha":1275,"x_min":67,"x_max":1208,"o":"m 504 235 q 545 425 504 360 q 667 490 586 490 q 788 425 747 490 q 829 235 829 360 q 788 44 829 110 q 667 -21 747 -21 q 545 44 586 -21 q 504 235 504 110 m 728 235 q 713 365 728 328 q 667 403 697 403 q 621 365 636 403 q 606 235 606 328 q 621 104 606 142 q 667 67 636 67 q 713 104 697 67 q 728 235 728 142 m 692 963 l 304 0 l 196 0 l 583 963 l 692 963 m 67 726 q 108 917 67 851 q 229 982 149 982 q 351 917 310 982 q 392 726 392 851 q 351 536 392 601 q 229 471 310 471 q 108 536 149 471 q 67 726 67 601 m 290 726 q 275 857 290 819 q 229 894 260 894 q 183 857 199 894 q 168 726 168 819 q 183 596 168 633 q 229 558 199 558 q 275 596 260 558 q 290 726 290 633 m 883 235 q 924 425 883 360 q 1046 490 965 490 q 1167 425 1126 490 q 1208 235 1208 360 q 1167 44 1208 110 q 1046 -21 1126 -21 q 924 44 965 -21 q 883 235 883 110 m 1107 235 q 1092 365 1107 328 q 1046 403 1076 403 q 1000 365 1015 403 q 985 235 985 328 q 1000 104 985 142 q 1046 67 1015 67 q 1092 104 1076 67 q 1107 235 1107 142 z "},"Š":{"ha":556,"x_min":35,"x_max":524,"o":"m 236 86 q 352 128 311 86 q 393 240 393 169 q 381 307 393 278 q 348 360 368 336 q 301 403 328 383 q 247 442 275 422 q 181 489 215 464 q 117 547 146 514 q 71 625 89 581 q 53 729 53 669 q 73 835 53 788 q 128 915 93 882 q 213 967 164 949 q 319 985 263 985 q 422 971 375 985 q 501 938 469 957 l 463 839 q 399 869 433 858 q 328 879 365 879 q 219 842 260 879 q 178 735 178 806 q 191 667 178 696 q 226 614 204 638 q 276 571 247 590 q 336 531 304 551 q 401 485 368 510 q 462 427 435 460 q 506 351 489 394 q 524 247 524 307 q 507 144 524 193 q 455 59 490 96 q 366 1 419 22 q 240 -21 313 -21 q 124 -6 174 -21 q 35 35 74 10 l 74 135 q 148 99 110 113 q 236 86 186 86 m 394 1275 l 453 1226 l 293 1015 l 133 1226 l 192 1275 l 293 1157 l 394 1275 z "},"‹":{"ha":367,"x_min":39,"x_max":308,"o":"m 308 128 l 217 88 l 39 394 l 217 701 l 308 661 l 178 394 l 308 128 z "},"Œ":{"ha":1050,"x_min":78,"x_max":1001,"o":"m 78 482 q 106 708 78 614 q 187 860 135 801 q 313 947 239 919 q 476 974 386 974 q 539 971 507 974 q 606 963 571 968 l 979 963 l 979 856 l 672 856 l 672 557 l 950 557 l 950 453 l 672 453 l 672 107 l 1001 107 l 1001 0 l 590 0 q 533 -7 561 -4 q 478 -10 506 -10 q 313 17 388 -10 q 187 103 239 44 q 106 256 135 163 q 78 482 78 350 m 211 482 q 273 192 211 282 q 471 101 335 101 q 509 103 490 101 q 547 107 528 104 l 547 857 q 509 861 528 860 q 472 863 490 863 q 273 773 335 863 q 211 482 211 683 z "},"‘":{"ha":310,"x_min":78,"x_max":256,"o":"m 79 722 q 78 742 78 733 q 78 761 78 750 q 103 913 78 840 q 171 1053 128 985 l 256 1028 q 210 901 221 965 q 199 781 199 838 q 199 751 199 765 q 201 722 200 736 l 79 722 z "},"’":{"ha":310,"x_min":54,"x_max":232,"o":"m 231 1042 q 232 1022 232 1031 q 232 1003 232 1014 q 207 851 232 924 q 139 711 182 779 l 54 736 q 100 863 89 799 q 111 983 111 926 q 110 1013 111 999 q 108 1042 110 1028 l 231 1042 z "},"“":{"ha":544,"x_min":85,"x_max":497,"o":"m 86 722 q 85 742 85 733 q 85 761 85 750 q 110 913 85 840 q 178 1053 135 985 l 263 1028 q 217 901 228 965 q 206 781 206 838 q 206 751 206 765 q 208 722 207 736 l 86 722 m 321 722 q 319 742 319 733 q 319 761 319 750 q 344 913 319 840 q 413 1053 369 985 l 497 1028 q 451 901 463 965 q 440 781 440 838 q 441 751 440 765 q 443 722 442 736 l 321 722 z "},"”":{"ha":543,"x_min":54,"x_max":465,"o":"m 231 1042 q 232 1022 232 1031 q 232 1003 232 1014 q 207 851 232 924 q 139 711 182 779 l 54 736 q 100 863 89 799 q 111 983 111 926 q 110 1013 111 999 q 108 1042 110 1028 l 231 1042 m 464 1042 q 465 1022 465 1031 q 465 1003 465 1014 q 440 851 465 924 q 372 711 415 779 l 288 736 q 333 863 322 799 q 344 983 344 926 q 344 1013 344 999 q 342 1042 343 1028 l 464 1042 z "},"•":{"ha":456,"x_min":69,"x_max":386,"o":"m 386 490 q 375 430 386 458 q 343 380 364 401 q 293 346 322 358 q 228 333 264 333 q 163 346 192 333 q 113 380 133 358 q 81 430 92 401 q 69 490 69 458 q 81 551 69 522 q 113 601 92 579 q 163 635 133 622 q 228 647 192 647 q 293 635 264 647 q 343 601 322 622 q 375 551 364 579 q 386 490 386 522 z "},"–":{"ha":510,"x_min":-6,"x_max":515,"o":"m -6 468 l 515 468 l 515 367 l -6 367 l -6 468 z "},"—":{"ha":1031,"x_min":-6,"x_max":1036,"o":"m -6 468 l 1036 468 l 1036 367 l -6 367 l -6 468 z "},"˜":{"ha":436,"x_min":40,"x_max":396,"o":"m 396 1001 q 356 899 383 935 q 289 864 329 864 q 245 874 265 864 q 208 896 225 883 q 177 918 192 908 q 149 928 163 928 q 127 914 136 928 q 110 864 118 900 l 40 888 q 79 990 51 954 q 147 1025 107 1025 q 192 1015 172 1025 q 228 993 211 1006 q 258 971 244 981 q 288 961 272 961 q 309 975 300 961 q 326 1025 318 989 l 396 1001 z "},"™":{"ha":871,"x_min":32,"x_max":803,"o":"m 551 565 q 534 635 544 596 q 513 713 524 674 q 489 791 501 753 q 467 858 476 829 q 460 697 464 789 q 453 506 456 604 l 369 506 q 379 733 372 618 q 397 965 386 849 l 501 965 q 521 904 510 940 q 543 828 532 868 q 566 749 554 789 q 586 675 578 710 q 606 749 594 710 q 629 828 618 789 q 651 904 640 868 q 671 965 663 940 l 775 965 q 793 733 786 849 q 803 506 800 618 l 719 506 q 713 697 717 604 q 706 860 708 789 q 682 792 694 831 q 658 714 669 754 q 636 635 646 674 q 621 565 626 596 l 551 565 m 343 965 l 343 886 l 232 886 l 232 506 l 143 506 l 143 886 l 32 886 l 32 965 l 343 965 z "},"š":{"ha":474,"x_min":50,"x_max":438,"o":"m 210 85 q 290 115 263 85 q 317 193 317 144 q 306 245 317 224 q 276 283 294 267 q 235 313 258 300 q 188 342 211 326 q 142 374 164 356 q 102 417 119 393 q 74 473 85 442 q 64 546 64 504 q 120 692 64 636 q 272 747 176 747 q 349 737 313 747 q 408 714 385 726 l 382 618 q 332 639 357 632 q 278 646 307 646 q 207 620 233 646 q 181 546 181 594 q 190 498 181 518 q 216 462 200 478 q 252 432 232 446 q 294 406 272 418 q 347 372 321 390 q 392 330 372 354 q 425 273 413 306 q 438 194 438 240 q 381 40 438 99 q 217 -18 325 -18 q 117 -3 161 -18 q 50 25 72 13 l 75 124 q 131 99 96 113 q 210 85 167 85 m 346 1067 l 404 1018 l 244 807 l 85 1018 l 143 1067 l 244 949 l 346 1067 z "},"›":{"ha":367,"x_min":58,"x_max":328,"o":"m 189 394 l 58 661 l 150 701 l 328 394 l 150 88 l 58 128 l 189 394 z "},"œ":{"ha":990,"x_min":68,"x_max":918,"o":"m 571 329 q 581 233 572 276 q 608 156 589 189 q 658 106 626 124 q 738 88 689 88 q 812 99 778 88 q 861 119 846 111 l 883 24 q 823 -3 865 11 q 722 -18 781 -18 q 596 13 647 -18 q 513 101 544 43 q 434 13 481 43 q 324 -18 388 -18 q 210 10 258 -18 q 130 88 161 38 q 83 208 99 138 q 68 364 68 278 q 83 519 68 449 q 130 641 99 590 q 210 719 161 692 q 324 747 258 747 q 434 715 388 747 q 513 624 481 683 q 692 747 578 747 q 797 722 754 747 q 867 651 840 697 q 906 540 894 606 q 918 393 918 474 q 918 362 918 378 q 917 329 918 346 l 571 329 m 453 364 q 446 476 453 425 q 424 563 439 526 q 383 620 408 600 q 324 640 358 640 q 263 620 288 640 q 223 563 239 600 q 200 476 207 526 q 193 364 193 425 q 200 252 193 303 q 223 165 207 201 q 263 109 239 129 q 324 89 288 89 q 383 109 358 89 q 424 165 408 129 q 446 252 439 201 q 453 364 453 303 m 692 646 q 641 629 663 646 q 606 583 619 613 q 583 513 592 553 q 572 426 575 472 l 793 426 q 788 512 793 472 q 772 581 783 551 q 741 628 761 611 q 692 646 721 646 z "},"Ÿ":{"ha":626,"x_min":4,"x_max":622,"o":"m 622 963 q 570 824 599 897 q 510 674 542 750 q 444 524 478 599 q 378 381 411 449 l 378 0 l 253 0 l 253 372 q 185 517 219 440 q 118 669 150 593 q 57 821 86 746 q 4 963 28 896 l 139 963 q 221 731 175 853 q 315 503 267 608 q 410 731 364 608 q 492 963 456 853 l 622 963 m 197 1067 q 142 1088 165 1067 q 119 1146 119 1110 q 142 1203 119 1182 q 197 1225 165 1225 q 252 1203 229 1225 q 275 1146 275 1182 q 252 1088 275 1110 q 197 1067 229 1067 m 428 1067 q 373 1088 396 1067 q 350 1146 350 1110 q 373 1203 350 1182 q 428 1225 396 1225 q 483 1203 460 1225 q 506 1146 506 1182 q 483 1088 506 1110 q 428 1067 460 1067 z "}," ":{"ha":271,"x_min":0,"x_max":0,"o":""},"¡":{"ha":365,"x_min":100,"x_max":265,"o":"m 118 29 q 126 241 118 146 q 147 431 135 336 l 218 431 q 239 241 231 336 q 247 29 247 146 l 247 -257 l 118 -257 l 118 29 m 265 664 q 242 607 265 632 q 182 582 219 582 q 122 607 144 582 q 100 664 100 632 q 122 722 100 697 q 182 747 144 747 q 242 722 219 747 q 265 664 265 697 z "},"¢":{"ha":597,"x_min":100,"x_max":513,"o":"m 389 772 q 453 760 425 769 q 507 738 481 750 l 476 639 q 431 660 454 653 q 376 667 407 667 q 261 603 297 667 q 225 406 225 540 q 232 301 225 349 q 256 220 239 254 q 304 167 274 186 q 381 147 335 147 q 438 155 413 147 q 486 175 463 163 l 513 82 q 460 56 492 67 q 389 42 428 44 l 389 -140 l 279 -140 l 279 54 q 195 102 229 69 q 140 181 161 135 q 109 283 118 226 q 100 406 100 340 q 144 637 100 546 q 279 758 188 728 l 279 951 l 389 951 l 389 772 z "},"£":{"ha":597,"x_min":61,"x_max":557,"o":"m 471 421 l 276 421 l 276 403 q 270 254 276 335 q 253 103 264 174 l 557 103 l 557 0 l 121 0 q 147 194 138 97 q 157 393 157 292 l 157 421 l 61 421 l 61 517 l 157 517 l 157 718 q 175 831 157 782 q 226 914 193 881 q 303 964 258 947 q 400 981 347 981 q 481 970 444 981 q 542 944 518 960 l 514 844 q 465 867 492 858 q 411 875 438 875 q 311 834 346 875 q 276 715 276 793 l 276 517 l 471 517 l 471 421 z "},"¤":{"ha":597,"x_min":42,"x_max":558,"o":"m 93 483 q 124 635 93 569 l 42 747 l 122 817 l 193 718 q 300 749 242 749 q 406 718 360 749 l 478 817 l 558 747 l 476 635 q 507 483 507 569 q 476 333 507 399 l 558 222 l 478 153 l 407 249 q 300 218 361 218 q 192 249 240 218 l 122 153 l 42 222 l 122 333 q 93 483 93 396 m 190 483 q 219 356 190 401 q 300 311 249 311 q 381 356 351 311 q 410 483 410 401 q 381 610 410 565 q 300 656 351 656 q 219 610 249 656 q 190 483 190 565 z "},"¥":{"ha":597,"x_min":17,"x_max":579,"o":"m 524 168 l 360 168 l 360 0 l 240 0 l 240 168 l 72 168 l 72 260 l 240 260 l 240 390 l 72 390 l 72 482 l 200 482 q 96 742 139 625 q 17 963 53 858 l 135 963 q 172 851 151 908 q 213 735 192 793 q 257 623 235 678 q 300 521 279 568 q 343 623 321 568 q 387 735 365 678 q 428 851 408 793 q 465 963 449 908 l 579 963 q 499 742 543 858 q 396 482 456 625 l 524 482 l 524 390 l 360 390 l 360 260 l 524 260 l 524 168 z "},"¦":{"ha":374,"x_min":131,"x_max":243,"o":"m 131 556 l 131 1088 l 243 1088 l 243 556 l 131 556 m 243 275 l 243 -257 l 131 -257 l 131 275 l 243 275 z "},"§":{"ha":556,"x_min":57,"x_max":500,"o":"m 57 428 q 90 553 57 501 q 165 633 124 606 q 113 698 133 661 q 93 788 93 735 q 110 872 93 835 q 158 933 128 908 q 227 972 188 958 q 311 985 267 985 q 406 972 365 985 q 481 940 447 960 l 451 850 q 394 875 428 864 q 319 886 360 886 q 240 861 272 886 q 207 788 207 836 q 218 738 207 760 q 247 700 229 717 q 290 670 265 683 q 339 643 314 657 q 397 608 368 628 q 448 560 425 588 q 485 499 471 533 q 500 418 500 464 q 471 297 500 347 q 401 217 442 246 q 456 151 435 189 q 478 54 478 113 q 460 -33 478 6 q 412 -97 443 -71 q 338 -137 381 -124 q 243 -151 294 -151 q 143 -140 190 -151 q 61 -108 96 -128 l 85 -17 q 243 -53 161 -53 q 328 -26 293 -53 q 363 51 363 1 q 353 103 363 82 q 327 139 344 124 q 285 167 310 154 q 232 196 261 181 q 170 230 201 211 q 114 275 139 249 q 73 338 89 301 q 57 428 57 375 m 167 440 q 178 378 167 404 q 209 334 190 353 q 253 301 228 315 q 306 275 278 288 l 329 263 q 390 406 390 315 q 381 461 390 438 q 354 503 371 485 q 316 535 338 521 q 271 564 294 550 q 250 575 260 569 q 229 588 240 581 q 183 524 200 563 q 167 440 167 485 z "},"¨":{"ha":436,"x_min":25,"x_max":411,"o":"m 103 858 q 48 880 71 858 q 25 938 25 901 q 48 995 25 974 q 103 1017 71 1017 q 158 995 135 1017 q 181 938 181 974 q 158 880 181 901 q 103 858 135 858 m 333 858 q 278 880 301 858 q 256 938 256 901 q 278 995 256 974 q 333 1017 301 1017 q 388 995 365 1017 q 411 938 411 974 q 388 880 411 901 q 333 858 365 858 z "},"©":{"ha":988,"x_min":88,"x_max":900,"o":"m 900 483 q 867 267 900 361 q 777 110 833 174 q 648 13 721 46 q 494 -21 575 -21 q 340 13 414 -21 q 210 110 267 46 q 121 267 154 174 q 88 483 88 361 q 121 699 88 606 q 210 856 154 792 q 340 952 267 919 q 494 985 414 985 q 648 952 575 985 q 777 856 721 919 q 867 699 833 792 q 900 483 900 606 m 806 483 q 783 658 806 581 q 718 788 760 735 q 619 870 676 842 q 494 899 563 899 q 369 870 426 899 q 269 788 311 842 q 205 658 228 735 q 182 483 182 581 q 205 308 182 386 q 269 176 228 231 q 369 94 311 122 q 494 65 426 65 q 619 94 563 65 q 718 176 676 122 q 783 308 760 231 q 806 483 806 386 m 297 483 q 355 694 297 621 q 513 768 413 768 q 644 731 582 768 l 622 651 q 572 673 600 664 q 518 682 544 682 q 428 633 461 682 q 396 483 396 583 q 430 334 396 383 q 522 285 464 285 q 577 294 549 285 q 629 315 606 303 l 651 236 q 517 199 586 199 q 356 272 414 199 q 297 483 297 346 z "},"ª":{"ha":440,"x_min":50,"x_max":369,"o":"m 281 688 q 252 692 267 690 q 222 693 238 693 q 167 677 193 693 q 140 617 140 661 q 163 555 140 574 q 228 536 186 536 q 281 543 257 536 l 281 688 m 213 981 q 287 967 257 981 q 335 931 317 954 q 362 877 354 908 q 369 810 369 846 l 369 479 q 304 464 342 471 q 225 457 267 457 q 98 495 146 457 q 50 617 50 533 q 63 688 50 658 q 99 735 76 717 q 152 763 122 754 q 215 772 182 772 q 281 764 249 772 l 281 811 q 263 874 281 850 q 199 897 244 897 q 149 891 174 897 q 104 875 124 885 l 92 956 q 147 973 114 965 q 213 981 179 981 z "},"«":{"ha":629,"x_min":39,"x_max":571,"o":"m 308 128 l 217 88 l 39 394 l 217 701 l 308 661 l 178 394 l 308 128 m 571 128 l 479 88 l 301 394 l 479 701 l 571 661 l 440 394 l 571 128 z "},"¬":{"ha":597,"x_min":32,"x_max":510,"o":"m 510 185 l 407 185 l 407 446 l 32 446 l 32 547 l 510 547 l 510 185 z "},"­":{"ha":324,"x_min":33,"x_max":290,"o":"m 33 472 l 290 472 l 290 360 l 33 360 l 33 472 z "},"®":{"ha":988,"x_min":88,"x_max":900,"o":"m 593 208 q 540 328 568 274 q 492 415 511 383 l 435 415 l 435 208 l 343 208 l 343 742 q 409 756 375 751 q 471 761 443 761 q 664 585 664 761 q 579 439 664 486 l 583 431 q 609 387 594 413 q 638 331 624 361 q 666 269 653 301 q 689 208 679 238 l 593 208 m 478 681 q 456 680 467 681 q 435 678 446 679 l 435 490 l 469 490 q 540 509 511 490 q 568 585 568 528 q 541 659 568 638 q 478 681 514 681 m 900 483 q 867 267 900 361 q 777 110 833 174 q 648 13 721 46 q 494 -21 575 -21 q 340 13 414 -21 q 210 110 267 46 q 121 267 154 174 q 88 483 88 361 q 121 699 88 606 q 210 856 154 792 q 340 952 267 919 q 494 985 414 985 q 648 952 575 985 q 777 856 721 919 q 867 699 833 792 q 900 483 900 606 m 806 483 q 783 658 806 581 q 718 788 760 735 q 619 870 676 842 q 494 899 563 899 q 369 870 426 899 q 269 788 311 842 q 205 658 228 735 q 182 483 182 581 q 205 308 182 386 q 269 176 228 231 q 369 94 311 122 q 494 65 426 65 q 619 94 563 65 q 718 176 676 122 q 783 308 760 231 q 806 483 806 386 z "},"¯":{"ha":436,"x_min":69,"x_max":365,"o":"m 69 988 l 365 988 l 365 893 l 69 893 l 69 988 z "},"°":{"ha":400,"x_min":33,"x_max":367,"o":"m 367 885 q 353 815 367 846 q 316 763 339 785 q 263 731 293 742 q 200 719 233 719 q 136 731 167 719 q 83 763 106 742 q 47 815 60 785 q 33 885 33 846 q 47 954 33 924 q 83 1006 60 985 q 136 1039 106 1028 q 200 1050 167 1050 q 263 1039 233 1050 q 316 1006 293 1028 q 353 954 339 985 q 367 885 367 924 m 281 885 q 257 947 281 925 q 200 969 233 969 q 143 947 167 969 q 119 885 119 925 q 143 822 119 844 q 200 800 167 800 q 257 822 233 800 q 281 885 281 844 z "},"±":{"ha":597,"x_min":60,"x_max":538,"o":"m 60 475 l 247 475 l 247 675 l 350 675 l 350 475 l 538 475 l 538 374 l 350 374 l 350 172 l 247 172 l 247 374 l 60 374 l 60 475 m 60 81 l 538 81 l 538 -21 l 60 -21 l 60 81 z "},"²":{"ha":389,"x_min":44,"x_max":339,"o":"m 332 826 q 322 764 332 793 q 295 709 311 735 q 260 660 279 683 q 225 618 242 638 q 188 569 206 594 q 163 515 169 543 l 339 515 l 339 425 l 47 425 l 47 449 q 58 517 47 485 q 84 576 68 549 q 120 630 100 604 q 160 679 140 656 q 215 754 196 724 q 235 817 235 785 q 216 866 235 850 q 172 882 197 882 q 128 872 151 882 q 86 847 106 863 l 44 921 q 110 958 76 944 q 183 971 144 971 q 290 932 249 971 q 332 826 332 893 z "},"³":{"ha":389,"x_min":33,"x_max":336,"o":"m 154 504 q 215 526 192 504 q 239 582 239 547 q 208 647 239 626 q 140 667 176 667 l 107 667 l 107 749 l 146 749 q 172 752 158 749 q 199 764 186 756 q 219 786 211 772 q 228 821 228 800 q 209 868 228 853 q 160 883 190 883 q 115 875 136 883 q 71 851 93 867 l 38 926 q 99 959 67 947 q 167 971 131 971 q 235 959 206 971 q 283 928 264 947 q 312 886 303 910 q 321 838 321 863 q 303 765 321 793 q 257 714 285 736 q 315 658 293 694 q 336 578 336 622 q 325 517 336 546 q 291 465 314 488 q 234 428 268 442 q 154 415 200 415 q 33 450 92 415 l 61 533 q 106 511 85 518 q 154 504 128 504 z "},"´":{"ha":436,"x_min":149,"x_max":397,"o":"m 397 1008 l 208 808 l 149 860 l 313 1081 l 397 1008 z "},"µ":{"ha":678,"x_min":108,"x_max":569,"o":"m 569 21 q 526 8 551 14 q 474 -3 500 1 q 422 -12 447 -8 q 378 -15 396 -15 q 287 -4 325 -15 q 221 36 249 7 q 226 -55 224 -8 q 228 -151 228 -101 l 228 -257 l 108 -257 l 108 729 l 228 729 l 228 258 q 260 131 228 171 q 360 90 293 90 q 404 92 382 90 q 450 101 426 94 l 450 729 l 569 729 l 569 21 z "},"¶":{"ha":736,"x_min":57,"x_max":599,"o":"m 422 872 q 410 872 415 872 q 399 871 404 872 l 399 -257 l 299 -257 l 299 367 q 120 461 183 386 q 57 667 57 536 q 150 895 57 818 q 401 972 243 972 q 498 967 446 972 q 599 946 550 961 l 599 -257 l 499 -257 l 499 867 q 465 871 483 869 q 422 872 446 872 z "},"·":{"ha":315,"x_min":75,"x_max":240,"o":"m 240 408 q 217 351 240 376 q 157 326 194 326 q 97 351 119 326 q 75 408 75 376 q 97 467 75 442 q 157 492 119 492 q 217 467 194 492 q 240 408 240 442 z "},"¸":{"ha":436,"x_min":75,"x_max":314,"o":"m 281 28 q 260 -12 272 13 q 240 -56 249 -36 q 297 -95 281 -71 q 314 -151 314 -119 q 272 -233 314 -204 q 169 -262 231 -262 q 124 -259 149 -262 q 75 -247 99 -256 l 89 -171 q 118 -177 103 -174 q 150 -181 133 -181 q 193 -173 175 -181 q 211 -143 211 -165 q 196 -117 211 -128 q 139 -97 181 -106 q 167 -28 150 -65 q 196 28 185 10 l 281 28 z "},"¹":{"ha":389,"x_min":44,"x_max":269,"o":"m 44 846 q 125 897 85 868 q 199 963 165 926 l 269 963 l 269 425 l 172 425 l 172 826 q 82 772 125 790 l 44 846 z "},"º":{"ha":506,"x_min":57,"x_max":449,"o":"m 449 724 q 394 526 449 592 q 253 461 339 461 q 112 526 167 461 q 57 724 57 590 q 112 922 57 858 q 253 986 167 986 q 394 922 339 986 q 449 724 449 858 m 351 724 q 326 858 351 815 q 253 900 300 900 q 181 858 207 900 q 154 724 154 815 q 180 590 154 633 q 253 547 206 547 q 326 590 300 547 q 351 724 351 633 z "},"»":{"ha":629,"x_min":58,"x_max":590,"o":"m 189 394 l 58 661 l 150 701 l 328 394 l 150 88 l 58 128 l 189 394 m 451 394 l 321 661 l 413 701 l 590 394 l 413 88 l 321 128 l 451 394 z "},"¼":{"ha":981,"x_min":36,"x_max":918,"o":"m 36 846 q 117 897 76 868 q 190 963 157 926 l 261 963 l 261 425 l 164 425 l 164 826 q 74 772 117 790 l 36 846 m 732 963 l 339 0 l 235 0 l 628 963 l 732 963 m 860 539 l 860 214 l 918 214 l 918 133 l 860 133 l 860 1 l 771 1 l 771 133 l 593 133 l 593 186 q 760 539 651 372 l 860 539 m 772 422 q 724 326 749 382 q 676 214 699 271 l 772 214 l 772 422 z "},"½":{"ha":981,"x_min":36,"x_max":915,"o":"m 36 846 q 117 897 76 868 q 190 963 157 926 l 261 963 l 261 425 l 164 425 l 164 826 q 74 772 117 790 l 36 846 m 704 963 l 311 0 l 207 0 l 600 963 l 704 963 m 908 403 q 898 340 908 369 q 872 285 888 311 q 837 237 856 260 q 801 194 818 214 q 764 145 782 171 q 739 92 746 119 l 915 92 l 915 1 l 624 1 l 624 25 q 634 93 624 61 q 660 153 644 125 q 697 206 676 181 q 736 256 717 232 q 792 331 772 300 q 811 393 811 361 q 792 442 811 426 q 749 458 774 458 q 705 449 728 458 q 663 424 682 439 l 621 497 q 687 534 653 521 q 760 547 721 547 q 867 508 825 547 q 908 403 908 469 z "},"¾":{"ha":981,"x_min":53,"x_max":925,"o":"m 174 504 q 235 526 211 504 q 258 582 258 547 q 227 647 258 626 q 160 667 196 667 l 126 667 l 126 749 l 165 749 q 192 752 178 749 q 218 764 206 756 q 239 786 231 772 q 247 821 247 800 q 228 868 247 853 q 179 883 210 883 q 134 875 156 883 q 90 851 113 867 l 57 926 q 118 959 86 947 q 186 971 150 971 q 254 959 225 971 q 303 928 283 947 q 331 886 322 910 q 340 838 340 863 q 322 765 340 793 q 276 714 304 736 q 334 658 313 694 q 356 578 356 622 q 344 517 356 546 q 310 465 333 488 q 253 428 288 442 q 174 415 219 415 q 53 450 111 415 l 81 533 q 126 511 104 518 q 174 504 147 504 m 746 963 l 353 0 l 249 0 l 642 963 l 746 963 m 867 539 l 867 214 l 925 214 l 925 133 l 867 133 l 867 1 l 778 1 l 778 133 l 600 133 l 600 186 q 767 539 658 372 l 867 539 m 779 422 q 731 326 756 382 q 683 214 706 271 l 779 214 l 779 422 z "},"¿":{"ha":475,"x_min":36,"x_max":451,"o":"m 283 -156 q 351 -143 321 -156 q 404 -111 381 -131 l 451 -203 q 368 -245 413 -229 q 269 -261 324 -261 q 163 -243 207 -261 q 90 -195 118 -225 q 49 -126 63 -165 q 36 -44 36 -87 q 51 43 36 4 q 88 115 65 82 q 137 177 111 147 q 185 240 163 207 q 223 310 208 272 q 238 397 238 349 q 238 413 238 404 q 236 428 238 421 l 344 428 q 349 369 349 400 q 335 283 349 321 q 302 215 322 246 q 258 158 282 185 q 215 103 235 132 q 181 42 194 75 q 168 -35 168 8 q 199 -124 168 -93 q 283 -156 229 -156 m 367 663 q 344 606 367 631 q 283 581 321 581 q 224 606 246 581 q 201 663 201 631 q 224 721 201 696 q 283 746 246 746 q 344 721 321 746 q 367 663 367 696 z "},"À":{"ha":699,"x_min":28,"x_max":671,"o":"m 415 963 q 481 752 449 858 q 545 529 514 646 q 608 282 576 413 q 671 0 639 151 l 546 0 q 523 124 535 63 q 499 246 511 185 l 196 246 q 171 124 182 185 q 149 0 160 63 l 28 0 q 90 282 58 151 q 153 529 122 413 q 217 752 185 646 q 283 963 250 858 l 415 963 m 347 821 q 281 589 313 706 q 219 350 249 472 l 474 350 q 414 589 446 472 q 347 821 382 706 m 254 1289 l 418 1068 l 358 1017 l 169 1217 l 254 1289 z "},"Á":{"ha":699,"x_min":28,"x_max":671,"o":"m 415 963 q 481 752 449 858 q 545 529 514 646 q 608 282 576 413 q 671 0 639 151 l 546 0 q 523 124 535 63 q 499 246 511 185 l 196 246 q 171 124 182 185 q 149 0 160 63 l 28 0 q 90 282 58 151 q 153 529 122 413 q 217 752 185 646 q 283 963 250 858 l 415 963 m 347 821 q 281 589 313 706 q 219 350 249 472 l 474 350 q 414 589 446 472 q 347 821 382 706 m 529 1217 l 340 1017 l 281 1068 l 444 1289 l 529 1217 z "},"Â":{"ha":699,"x_min":28,"x_max":671,"o":"m 415 963 q 481 752 449 858 q 545 529 514 646 q 608 282 576 413 q 671 0 639 151 l 546 0 q 523 124 535 63 q 499 246 511 185 l 196 246 q 171 124 182 185 q 149 0 160 63 l 28 0 q 90 282 58 151 q 153 529 122 413 q 217 752 185 646 q 283 963 250 858 l 415 963 m 347 821 q 281 589 313 706 q 219 350 249 472 l 474 350 q 414 589 446 472 q 347 821 382 706 m 246 1015 l 188 1064 l 347 1275 l 507 1064 l 449 1015 l 347 1133 l 246 1015 z "},"Ã":{"ha":699,"x_min":28,"x_max":671,"o":"m 415 963 q 481 752 449 858 q 545 529 514 646 q 608 282 576 413 q 671 0 639 151 l 546 0 q 523 124 535 63 q 499 246 511 185 l 196 246 q 171 124 182 185 q 149 0 160 63 l 28 0 q 90 282 58 151 q 153 529 122 413 q 217 752 185 646 q 283 963 250 858 l 415 963 m 347 821 q 281 589 313 706 q 219 350 249 472 l 474 350 q 414 589 446 472 q 347 821 382 706 m 526 1210 q 487 1108 514 1143 q 419 1072 460 1072 q 376 1082 396 1072 q 339 1104 356 1092 q 308 1126 322 1117 q 279 1136 293 1136 q 258 1122 267 1136 q 240 1072 249 1108 l 171 1096 q 210 1198 182 1163 q 278 1233 238 1233 q 322 1224 303 1233 q 358 1201 342 1214 q 389 1179 375 1189 q 418 1169 403 1169 q 440 1183 431 1169 q 457 1233 449 1197 l 526 1210 z "},"Ä":{"ha":699,"x_min":28,"x_max":671,"o":"m 415 963 q 481 752 449 858 q 545 529 514 646 q 608 282 576 413 q 671 0 639 151 l 546 0 q 523 124 535 63 q 499 246 511 185 l 196 246 q 171 124 182 185 q 149 0 160 63 l 28 0 q 90 282 58 151 q 153 529 122 413 q 217 752 185 646 q 283 963 250 858 l 415 963 m 347 821 q 281 589 313 706 q 219 350 249 472 l 474 350 q 414 589 446 472 q 347 821 382 706 m 233 1067 q 178 1088 201 1067 q 156 1146 156 1110 q 178 1203 156 1182 q 233 1225 201 1225 q 288 1203 265 1225 q 311 1146 311 1182 q 288 1088 311 1110 q 233 1067 265 1067 m 464 1067 q 409 1088 432 1067 q 386 1146 386 1110 q 409 1203 386 1182 q 464 1225 432 1225 q 519 1203 496 1225 q 542 1146 542 1182 q 519 1088 542 1110 q 464 1067 496 1067 z "},"Å":{"ha":699,"x_min":28,"x_max":671,"o":"m 467 1029 q 455 975 467 999 q 424 936 443 951 q 487 732 456 836 q 549 515 518 628 q 610 274 581 401 q 671 0 640 147 l 546 0 q 523 124 535 63 q 499 246 511 185 l 196 246 q 171 124 182 185 q 149 0 160 63 l 28 0 q 88 274 58 147 q 149 514 118 400 q 210 731 179 628 q 274 935 242 835 q 242 974 254 950 q 231 1029 231 997 q 265 1115 231 1083 q 349 1147 300 1147 q 432 1115 397 1147 q 467 1029 467 1083 m 347 821 q 281 589 313 706 q 219 350 249 472 l 474 350 q 414 589 446 472 q 347 821 382 706 m 404 1029 q 388 1072 404 1057 q 349 1086 372 1086 q 309 1072 325 1086 q 293 1029 293 1057 q 309 987 293 1001 q 349 972 325 972 q 388 987 372 972 q 404 1029 404 1001 z "},"Æ":{"ha":1013,"x_min":3,"x_max":950,"o":"m 496 0 l 496 246 l 215 246 q 167 122 190 183 q 124 0 143 60 l 3 0 q 96 247 44 121 q 203 499 147 374 q 319 742 260 624 q 436 963 379 860 l 928 963 l 928 856 l 621 856 l 621 557 l 899 557 l 899 453 l 621 453 l 621 107 l 950 107 l 950 0 l 496 0 m 496 343 l 496 850 q 374 606 433 732 q 258 350 314 479 l 494 350 l 496 343 z "},"Ç":{"ha":651,"x_min":76,"x_max":631,"o":"m 411 -56 q 468 -95 451 -71 q 485 -151 485 -119 q 443 -233 485 -204 q 340 -262 401 -262 q 294 -259 319 -262 q 246 -247 269 -256 l 260 -171 q 289 -177 274 -174 q 321 -181 304 -181 q 364 -173 346 -181 q 382 -143 382 -165 q 367 -117 382 -128 q 310 -97 351 -106 q 326 -55 317 -78 q 344 -12 335 -32 q 145 140 214 15 q 76 496 76 265 q 102 724 76 631 q 174 875 128 817 q 282 959 219 933 q 418 985 344 985 q 532 969 479 985 q 618 929 585 953 l 581 825 q 509 861 547 847 q 421 875 471 875 q 260 783 310 875 q 210 496 210 690 q 263 194 210 300 q 435 89 315 89 q 527 103 492 89 q 596 139 563 117 l 631 40 q 547 -3 599 15 q 426 -21 494 -21 l 411 -56 z "},"È":{"ha":633,"x_min":117,"x_max":571,"o":"m 117 0 l 117 963 l 549 963 l 549 856 l 242 856 l 242 557 l 519 557 l 519 453 l 242 453 l 242 107 l 571 107 l 571 0 l 117 0 m 236 1289 l 400 1068 l 340 1017 l 151 1217 l 236 1289 z "},"É":{"ha":633,"x_min":117,"x_max":571,"o":"m 117 0 l 117 963 l 549 963 l 549 856 l 242 856 l 242 557 l 519 557 l 519 453 l 242 453 l 242 107 l 571 107 l 571 0 l 117 0 m 500 1217 l 311 1017 l 251 1068 l 415 1289 l 500 1217 z "},"Ê":{"ha":633,"x_min":117,"x_max":571,"o":"m 117 0 l 117 963 l 549 963 l 549 856 l 242 856 l 242 557 l 519 557 l 519 453 l 242 453 l 242 107 l 571 107 l 571 0 l 117 0 m 235 1015 l 176 1064 l 336 1275 l 496 1064 l 438 1015 l 336 1133 l 235 1015 z "},"Ë":{"ha":633,"x_min":117,"x_max":571,"o":"m 117 0 l 117 963 l 549 963 l 549 856 l 242 856 l 242 557 l 519 557 l 519 453 l 242 453 l 242 107 l 571 107 l 571 0 l 117 0 m 215 1067 q 160 1088 183 1067 q 138 1146 138 1110 q 160 1203 138 1182 q 215 1225 183 1225 q 270 1203 247 1225 q 293 1146 293 1182 q 270 1088 293 1110 q 215 1067 247 1067 m 446 1067 q 391 1088 414 1067 q 368 1146 368 1110 q 391 1203 368 1182 q 446 1225 414 1225 q 501 1203 478 1225 q 524 1146 524 1182 q 501 1088 524 1110 q 446 1067 478 1067 z "},"Ì":{"ha":358,"x_min":1,"x_max":250,"o":"m 117 963 l 242 963 l 242 0 l 117 0 l 117 963 m 86 1289 l 250 1068 l 190 1017 l 1 1217 l 86 1289 z "},"Í":{"ha":358,"x_min":111,"x_max":360,"o":"m 117 963 l 242 963 l 242 0 l 117 0 l 117 963 m 360 1217 l 171 1017 l 111 1068 l 275 1289 l 360 1217 z "},"Î":{"ha":358,"x_min":19,"x_max":339,"o":"m 117 963 l 242 963 l 242 0 l 117 0 l 117 963 m 78 1015 l 19 1064 l 179 1275 l 339 1064 l 281 1015 l 179 1133 l 78 1015 z "},"Ï":{"ha":358,"x_min":-12,"x_max":374,"o":"m 117 963 l 242 963 l 242 0 l 117 0 l 117 963 m 65 1067 q 10 1088 33 1067 q -12 1146 -12 1110 q 10 1203 -12 1182 q 65 1225 33 1225 q 120 1203 97 1225 q 143 1146 143 1182 q 120 1088 143 1110 q 65 1067 97 1067 m 296 1067 q 241 1088 264 1067 q 218 1146 218 1110 q 241 1203 218 1182 q 296 1225 264 1225 q 351 1203 328 1225 q 374 1146 374 1182 q 351 1088 374 1110 q 296 1067 328 1067 z "},"Ð":{"ha":800,"x_min":21,"x_max":724,"o":"m 21 528 l 115 528 l 115 949 q 218 967 168 960 q 314 974 268 974 q 483 947 407 974 q 612 860 558 919 q 694 708 665 801 q 724 482 724 614 q 694 256 724 350 q 612 103 665 163 q 483 17 558 44 q 315 -10 407 -10 q 115 15 221 -10 l 115 436 l 21 436 l 21 528 m 590 482 q 526 772 590 682 q 319 863 463 863 q 281 861 300 863 q 240 857 261 860 l 240 528 l 390 528 l 390 436 l 240 436 l 240 107 q 281 103 261 104 q 318 101 300 101 q 526 191 461 101 q 590 482 590 281 z "},"Ñ":{"ha":807,"x_min":117,"x_max":690,"o":"m 589 0 q 513 177 556 82 q 424 369 471 272 q 329 560 378 465 q 233 738 281 656 l 233 0 l 117 0 l 117 963 l 221 963 q 323 786 274 876 q 417 608 372 696 q 501 434 461 519 q 574 272 540 349 l 574 963 l 690 963 l 690 0 l 589 0 m 582 1210 q 542 1108 569 1143 q 475 1072 515 1072 q 431 1082 451 1072 q 394 1104 411 1092 q 363 1126 378 1117 q 335 1136 349 1136 q 313 1122 322 1136 q 296 1072 304 1108 l 226 1096 q 265 1198 238 1163 q 333 1233 293 1233 q 378 1224 358 1233 q 414 1201 397 1214 q 444 1179 431 1189 q 474 1169 458 1169 q 495 1183 486 1169 q 513 1233 504 1197 l 582 1210 z "},"Ò":{"ha":840,"x_min":78,"x_max":763,"o":"m 763 481 q 742 276 763 368 q 680 117 722 183 q 573 15 638 51 q 421 -21 508 -21 q 269 15 333 -21 q 162 117 204 51 q 99 276 119 183 q 78 481 78 368 q 99 686 78 593 q 162 845 119 779 q 269 948 204 911 q 421 985 333 985 q 573 948 508 985 q 680 845 638 911 q 742 686 722 779 q 763 481 763 593 m 629 481 q 618 640 629 568 q 582 765 607 713 q 517 846 557 817 q 421 875 478 875 q 324 846 364 875 q 260 765 285 817 q 223 640 235 713 q 211 481 211 568 q 223 321 211 393 q 260 197 235 249 q 324 117 285 146 q 421 89 364 89 q 517 117 478 89 q 582 197 557 146 q 618 321 607 249 q 629 481 629 393 m 325 1289 l 489 1068 l 429 1017 l 240 1217 l 325 1289 z "},"Ó":{"ha":840,"x_min":78,"x_max":763,"o":"m 763 481 q 742 276 763 368 q 680 117 722 183 q 573 15 638 51 q 421 -21 508 -21 q 269 15 333 -21 q 162 117 204 51 q 99 276 119 183 q 78 481 78 368 q 99 686 78 593 q 162 845 119 779 q 269 948 204 911 q 421 985 333 985 q 573 948 508 985 q 680 845 638 911 q 742 686 722 779 q 763 481 763 593 m 629 481 q 618 640 629 568 q 582 765 607 713 q 517 846 557 817 q 421 875 478 875 q 324 846 364 875 q 260 765 285 817 q 223 640 235 713 q 211 481 211 568 q 223 321 211 393 q 260 197 235 249 q 324 117 285 146 q 421 89 364 89 q 517 117 478 89 q 582 197 557 146 q 618 321 607 249 q 629 481 629 393 m 599 1217 l 410 1017 l 350 1068 l 514 1289 l 599 1217 z "},"Ô":{"ha":840,"x_min":78,"x_max":763,"o":"m 763 481 q 742 276 763 368 q 680 117 722 183 q 573 15 638 51 q 421 -21 508 -21 q 269 15 333 -21 q 162 117 204 51 q 99 276 119 183 q 78 481 78 368 q 99 686 78 593 q 162 845 119 779 q 269 948 204 911 q 421 985 333 985 q 573 948 508 985 q 680 845 638 911 q 742 686 722 779 q 763 481 763 593 m 629 481 q 618 640 629 568 q 582 765 607 713 q 517 846 557 817 q 421 875 478 875 q 324 846 364 875 q 260 765 285 817 q 223 640 235 713 q 211 481 211 568 q 223 321 211 393 q 260 197 235 249 q 324 117 285 146 q 421 89 364 89 q 517 117 478 89 q 582 197 557 146 q 618 321 607 249 q 629 481 629 393 m 317 1015 l 258 1064 l 418 1275 l 578 1064 l 519 1015 l 418 1133 l 317 1015 z "},"Õ":{"ha":840,"x_min":78,"x_max":763,"o":"m 763 481 q 742 276 763 368 q 680 117 722 183 q 573 15 638 51 q 421 -21 508 -21 q 269 15 333 -21 q 162 117 204 51 q 99 276 119 183 q 78 481 78 368 q 99 686 78 593 q 162 845 119 779 q 269 948 204 911 q 421 985 333 985 q 573 948 508 985 q 680 845 638 911 q 742 686 722 779 q 763 481 763 593 m 629 481 q 618 640 629 568 q 582 765 607 713 q 517 846 557 817 q 421 875 478 875 q 324 846 364 875 q 260 765 285 817 q 223 640 235 713 q 211 481 211 568 q 223 321 211 393 q 260 197 235 249 q 324 117 285 146 q 421 89 364 89 q 517 117 478 89 q 582 197 557 146 q 618 321 607 249 q 629 481 629 393 m 597 1210 q 558 1108 585 1143 q 490 1072 531 1072 q 447 1082 467 1072 q 410 1104 426 1092 q 378 1126 393 1117 q 350 1136 364 1136 q 328 1122 338 1136 q 311 1072 319 1108 l 242 1096 q 281 1198 253 1163 q 349 1233 308 1233 q 393 1224 374 1233 q 429 1201 413 1214 q 460 1179 446 1189 q 489 1169 474 1169 q 510 1183 501 1169 q 528 1233 519 1197 l 597 1210 z "},"Ö":{"ha":840,"x_min":78,"x_max":763,"o":"m 763 481 q 742 276 763 368 q 680 117 722 183 q 573 15 638 51 q 421 -21 508 -21 q 269 15 333 -21 q 162 117 204 51 q 99 276 119 183 q 78 481 78 368 q 99 686 78 593 q 162 845 119 779 q 269 948 204 911 q 421 985 333 985 q 573 948 508 985 q 680 845 638 911 q 742 686 722 779 q 763 481 763 593 m 629 481 q 618 640 629 568 q 582 765 607 713 q 517 846 557 817 q 421 875 478 875 q 324 846 364 875 q 260 765 285 817 q 223 640 235 713 q 211 481 211 568 q 223 321 211 393 q 260 197 235 249 q 324 117 285 146 q 421 89 364 89 q 517 117 478 89 q 582 197 557 146 q 618 321 607 249 q 629 481 629 393 m 304 1067 q 249 1088 272 1067 q 226 1146 226 1110 q 249 1203 226 1182 q 304 1225 272 1225 q 359 1203 336 1225 q 382 1146 382 1182 q 359 1088 382 1110 q 304 1067 336 1067 m 535 1067 q 480 1088 503 1067 q 457 1146 457 1110 q 480 1203 457 1182 q 535 1225 503 1225 q 590 1203 567 1225 q 613 1146 613 1182 q 590 1088 613 1110 q 535 1067 567 1067 z "},"×":{"ha":597,"x_min":72,"x_max":525,"o":"m 371 415 l 525 261 l 453 189 l 299 343 l 144 189 l 72 261 l 226 415 l 72 569 l 144 642 l 299 488 l 453 642 l 525 569 l 371 415 z "},"Ø":{"ha":840,"x_min":78,"x_max":763,"o":"m 88 -4 l 160 119 q 98 277 118 186 q 78 481 78 368 q 99 686 78 593 q 162 845 119 779 q 269 948 204 911 q 421 985 333 985 q 531 967 482 985 q 619 915 581 949 l 676 1014 l 756 968 l 682 840 q 742 683 722 774 q 763 481 763 592 q 742 276 763 368 q 680 117 722 183 q 573 15 638 51 q 421 -21 508 -21 q 222 47 301 -21 l 167 -50 l 88 -4 m 211 481 q 238 254 211 346 l 557 807 q 499 857 532 839 q 421 875 465 875 q 324 846 364 875 q 260 765 285 817 q 223 640 235 713 q 211 481 211 568 m 629 481 q 604 706 629 611 l 285 154 q 343 106 310 122 q 421 89 376 89 q 517 117 478 89 q 582 197 557 146 q 618 321 607 249 q 629 481 629 393 z "},"Ù":{"ha":763,"x_min":108,"x_max":654,"o":"m 378 -21 q 176 56 243 -21 q 108 297 108 132 l 108 963 l 233 963 l 233 308 q 265 144 233 199 q 381 89 297 89 q 498 145 467 89 q 529 308 529 201 l 529 963 l 654 963 l 654 297 q 585 57 654 135 q 378 -21 515 -21 m 288 1289 l 451 1068 l 392 1017 l 203 1217 l 288 1289 z "},"Ú":{"ha":763,"x_min":108,"x_max":654,"o":"m 378 -21 q 176 56 243 -21 q 108 297 108 132 l 108 963 l 233 963 l 233 308 q 265 144 233 199 q 381 89 297 89 q 498 145 467 89 q 529 308 529 201 l 529 963 l 654 963 l 654 297 q 585 57 654 135 q 378 -21 515 -21 m 560 1217 l 371 1017 l 311 1068 l 475 1289 l 560 1217 z "},"Û":{"ha":763,"x_min":108,"x_max":654,"o":"m 378 -21 q 176 56 243 -21 q 108 297 108 132 l 108 963 l 233 963 l 233 308 q 265 144 233 199 q 381 89 297 89 q 498 145 467 89 q 529 308 529 201 l 529 963 l 654 963 l 654 297 q 585 57 654 135 q 378 -21 515 -21 m 279 1015 l 221 1064 l 381 1275 l 540 1064 l 482 1015 l 381 1133 l 279 1015 z "},"Ü":{"ha":763,"x_min":108,"x_max":654,"o":"m 378 -21 q 176 56 243 -21 q 108 297 108 132 l 108 963 l 233 963 l 233 308 q 265 144 233 199 q 381 89 297 89 q 498 145 467 89 q 529 308 529 201 l 529 963 l 654 963 l 654 297 q 585 57 654 135 q 378 -21 515 -21 m 267 1067 q 212 1088 235 1067 q 189 1146 189 1110 q 212 1203 189 1182 q 267 1225 235 1225 q 322 1203 299 1225 q 344 1146 344 1182 q 322 1088 344 1110 q 267 1067 299 1067 m 497 1067 q 442 1088 465 1067 q 419 1146 419 1110 q 442 1203 419 1182 q 497 1225 465 1225 q 552 1203 529 1225 q 575 1146 575 1182 q 552 1088 575 1110 q 497 1067 529 1067 z "},"Ý":{"ha":626,"x_min":4,"x_max":622,"o":"m 622 963 q 570 824 599 897 q 510 674 542 750 q 444 524 478 599 q 378 381 411 449 l 378 0 l 253 0 l 253 372 q 185 517 219 440 q 118 669 150 593 q 57 821 86 746 q 4 963 28 896 l 139 963 q 221 731 175 853 q 315 503 267 608 q 410 731 364 608 q 492 963 456 853 l 622 963 m 492 1217 l 303 1017 l 243 1068 l 407 1289 l 492 1217 z "},"Þ":{"ha":675,"x_min":117,"x_max":628,"o":"m 242 963 l 242 808 q 274 810 257 810 q 307 811 290 811 q 438 794 379 811 q 540 740 497 776 q 605 644 582 703 q 628 504 628 586 q 604 362 628 421 q 538 266 581 303 q 434 213 494 229 q 300 196 374 196 l 242 196 l 242 0 l 117 0 l 117 963 l 242 963 m 242 306 l 292 306 q 377 316 339 306 q 442 350 415 326 q 482 411 468 374 q 496 504 496 449 q 482 598 496 560 q 444 659 468 636 q 385 692 419 682 q 308 701 350 701 q 242 697 272 701 l 242 306 z "},"ß":{"ha":676,"x_min":106,"x_max":628,"o":"m 561 872 q 535 759 561 807 q 482 672 510 711 q 459 638 468 653 q 444 613 450 624 q 437 592 439 601 q 435 574 435 583 q 440 547 435 560 q 458 518 446 533 q 492 482 471 503 q 547 431 514 461 q 606 349 583 399 q 628 228 628 300 q 615 133 628 178 q 574 56 601 89 q 507 3 547 22 q 413 -17 467 -17 q 307 1 357 -17 l 328 106 q 364 97 347 100 q 399 94 381 94 q 450 106 429 94 q 483 135 471 117 q 501 178 496 154 q 507 229 507 203 q 502 280 507 258 q 487 319 497 301 q 461 353 476 338 q 425 388 446 368 q 347 474 372 436 q 322 560 322 513 q 338 635 322 604 q 382 708 353 665 q 424 775 406 742 q 442 858 442 808 q 418 940 442 907 q 346 972 394 972 q 256 938 288 972 q 225 814 225 904 l 225 0 l 106 0 l 106 810 q 167 1013 106 949 q 342 1078 228 1078 q 435 1062 394 1078 q 504 1019 476 1046 q 547 953 532 992 q 561 872 561 915 z "},"à":{"ha":603,"x_min":57,"x_max":503,"o":"m 119 714 q 196 738 156 729 q 283 747 236 747 q 442 687 381 747 q 503 499 503 626 l 503 15 q 401 -7 453 1 q 299 -15 349 -15 q 205 -3 249 -15 q 128 38 161 10 q 76 108 96 65 q 57 211 57 150 q 74 310 57 268 q 122 381 92 353 q 194 424 153 410 q 285 439 236 439 q 386 428 331 439 l 386 494 q 355 607 386 575 q 265 639 324 639 q 205 633 233 639 q 144 613 176 626 l 119 714 m 176 213 q 210 118 176 149 q 304 88 243 88 q 386 97 342 88 l 386 329 q 304 340 344 340 q 254 334 278 340 q 213 313 231 328 q 186 274 196 299 q 176 213 176 250 m 214 1081 l 378 860 l 318 808 l 129 1008 l 214 1081 z "},"á":{"ha":603,"x_min":57,"x_max":503,"o":"m 119 714 q 196 738 156 729 q 283 747 236 747 q 442 687 381 747 q 503 499 503 626 l 503 15 q 401 -7 453 1 q 299 -15 349 -15 q 205 -3 249 -15 q 128 38 161 10 q 76 108 96 65 q 57 211 57 150 q 74 310 57 268 q 122 381 92 353 q 194 424 153 410 q 285 439 236 439 q 386 428 331 439 l 386 494 q 355 607 386 575 q 265 639 324 639 q 205 633 233 639 q 144 613 176 626 l 119 714 m 176 213 q 210 118 176 149 q 304 88 243 88 q 386 97 342 88 l 386 329 q 304 340 344 340 q 254 334 278 340 q 213 313 231 328 q 186 274 196 299 q 176 213 176 250 m 457 1008 l 268 808 l 208 860 l 372 1081 l 457 1008 z "},"â":{"ha":603,"x_min":57,"x_max":503,"o":"m 119 714 q 196 738 156 729 q 283 747 236 747 q 442 687 381 747 q 503 499 503 626 l 503 15 q 401 -7 453 1 q 299 -15 349 -15 q 205 -3 249 -15 q 128 38 161 10 q 76 108 96 65 q 57 211 57 150 q 74 310 57 268 q 122 381 92 353 q 194 424 153 410 q 285 439 236 439 q 386 428 331 439 l 386 494 q 355 607 386 575 q 265 639 324 639 q 205 633 233 639 q 144 613 176 626 l 119 714 m 176 213 q 210 118 176 149 q 304 88 243 88 q 386 97 342 88 l 386 329 q 304 340 344 340 q 254 334 278 340 q 213 313 231 328 q 186 274 196 299 q 176 213 176 250 m 199 807 l 140 856 l 300 1067 l 460 856 l 401 807 l 300 925 l 199 807 z "},"ã":{"ha":603,"x_min":57,"x_max":503,"o":"m 119 714 q 196 738 156 729 q 283 747 236 747 q 442 687 381 747 q 503 499 503 626 l 503 15 q 401 -7 453 1 q 299 -15 349 -15 q 205 -3 249 -15 q 128 38 161 10 q 76 108 96 65 q 57 211 57 150 q 74 310 57 268 q 122 381 92 353 q 194 424 153 410 q 285 439 236 439 q 386 428 331 439 l 386 494 q 355 607 386 575 q 265 639 324 639 q 205 633 233 639 q 144 613 176 626 l 119 714 m 176 213 q 210 118 176 149 q 304 88 243 88 q 386 97 342 88 l 386 329 q 304 340 344 340 q 254 334 278 340 q 213 313 231 328 q 186 274 196 299 q 176 213 176 250 m 479 1001 q 440 899 467 935 q 372 864 413 864 q 328 874 349 864 q 292 896 308 883 q 260 918 275 908 q 232 928 246 928 q 210 914 219 928 q 193 864 201 900 l 124 888 q 163 990 135 954 q 231 1025 190 1025 q 275 1015 256 1025 q 311 993 294 1006 q 342 971 328 981 q 371 961 356 961 q 392 975 383 961 q 410 1025 401 989 l 479 1001 z "},"ä":{"ha":603,"x_min":57,"x_max":503,"o":"m 119 714 q 196 738 156 729 q 283 747 236 747 q 442 687 381 747 q 503 499 503 626 l 503 15 q 401 -7 453 1 q 299 -15 349 -15 q 205 -3 249 -15 q 128 38 161 10 q 76 108 96 65 q 57 211 57 150 q 74 310 57 268 q 122 381 92 353 q 194 424 153 410 q 285 439 236 439 q 386 428 331 439 l 386 494 q 355 607 386 575 q 265 639 324 639 q 205 633 233 639 q 144 613 176 626 l 119 714 m 176 213 q 210 118 176 149 q 304 88 243 88 q 386 97 342 88 l 386 329 q 304 340 344 340 q 254 334 278 340 q 213 313 231 328 q 186 274 196 299 q 176 213 176 250 m 186 858 q 131 880 154 858 q 108 938 108 901 q 131 995 108 974 q 186 1017 154 1017 q 241 995 218 1017 q 264 938 264 974 q 241 880 264 901 q 186 858 218 858 m 417 858 q 362 880 385 858 q 339 938 339 901 q 362 995 339 974 q 417 1017 385 1017 q 472 995 449 1017 q 494 938 494 974 q 472 880 494 901 q 417 858 449 858 z "},"å":{"ha":603,"x_min":57,"x_max":503,"o":"m 119 714 q 196 738 156 729 q 283 747 236 747 q 442 687 381 747 q 503 499 503 626 l 503 15 q 401 -7 453 1 q 299 -15 349 -15 q 205 -3 249 -15 q 128 38 161 10 q 76 108 96 65 q 57 211 57 150 q 74 310 57 268 q 122 381 92 353 q 194 424 153 410 q 285 439 236 439 q 386 428 331 439 l 386 494 q 355 607 386 575 q 265 639 324 639 q 205 633 233 639 q 144 613 176 626 l 119 714 m 176 213 q 210 118 176 149 q 304 88 243 88 q 386 97 342 88 l 386 329 q 304 340 344 340 q 254 334 278 340 q 213 313 231 328 q 186 274 196 299 q 176 213 176 250 m 419 947 q 385 861 419 893 q 301 829 350 829 q 218 861 253 829 q 183 947 183 893 q 218 1033 183 1001 q 301 1065 253 1065 q 385 1033 350 1065 q 419 947 419 1001 m 357 947 q 341 990 357 975 q 301 1004 325 1004 q 262 990 278 1004 q 246 947 246 975 q 262 905 246 919 q 301 890 278 890 q 341 905 325 890 q 357 947 357 919 z "},"æ":{"ha":921,"x_min":57,"x_max":853,"o":"m 283 747 q 385 725 340 747 q 458 653 431 703 q 626 747 521 747 q 801 654 750 747 q 853 393 853 561 q 853 362 853 378 q 851 329 853 346 l 506 329 q 515 233 507 276 q 542 156 524 189 q 592 106 561 124 q 672 88 624 88 q 747 99 713 88 q 796 119 781 111 l 818 24 q 758 -3 800 11 q 657 -18 715 -18 q 562 -5 603 -18 q 489 35 521 8 q 399 -2 444 11 q 299 -15 354 -15 q 204 -2 249 -15 q 127 39 160 11 q 76 110 94 67 q 57 211 57 153 q 74 310 57 268 q 122 381 92 353 q 194 424 153 410 q 285 439 236 439 q 385 428 329 439 q 385 432 385 431 q 386 436 386 433 l 386 494 q 355 607 386 575 q 265 639 324 639 q 205 633 233 639 q 144 613 176 626 l 119 714 q 196 738 156 729 q 283 747 236 747 m 304 88 q 371 97 342 88 q 425 121 400 106 q 396 215 406 163 q 383 329 386 267 q 304 340 343 340 q 254 334 278 340 q 213 313 231 328 q 186 274 196 299 q 176 213 176 250 q 209 123 176 158 q 304 88 242 88 m 626 646 q 540 586 567 646 q 507 426 513 526 l 728 426 q 707 587 728 528 q 626 646 686 646 z "},"ç":{"ha":490,"x_min":67,"x_max":469,"o":"m 469 22 q 414 -4 449 7 q 339 -18 379 -15 q 329 -37 333 -28 q 322 -56 325 -47 q 379 -95 363 -71 q 396 -151 396 -119 q 354 -233 396 -204 q 251 -262 313 -262 q 206 -259 231 -262 q 157 -247 181 -256 l 171 -171 q 200 -177 185 -174 q 232 -181 215 -181 q 275 -173 257 -181 q 293 -143 293 -165 q 278 -117 293 -128 q 221 -97 263 -106 q 237 -53 228 -76 q 257 -8 246 -29 q 167 39 204 6 q 108 121 131 72 q 76 231 86 169 q 67 363 67 292 q 133 645 67 543 q 332 747 199 747 q 404 738 372 747 q 464 713 436 728 l 433 614 q 338 642 390 642 q 227 574 263 642 q 192 363 192 506 q 199 252 192 303 q 223 165 206 201 q 269 108 240 129 q 342 88 297 88 q 397 95 372 88 q 443 115 421 103 l 469 22 z "},"è":{"ha":606,"x_min":68,"x_max":538,"o":"m 190 329 q 200 233 192 276 q 227 156 208 189 q 277 106 246 124 q 357 88 308 88 q 431 99 397 88 q 481 119 465 111 l 503 24 q 442 -3 485 11 q 342 -18 400 -18 q 213 10 265 -18 q 128 88 161 38 q 82 207 96 138 q 68 360 68 276 q 135 654 68 561 q 311 747 201 747 q 486 654 435 747 q 538 393 538 561 q 538 362 538 378 q 536 329 538 346 l 190 329 m 311 646 q 224 586 251 646 q 192 426 197 526 l 413 426 q 392 587 413 528 q 311 646 371 646 m 229 1081 l 393 860 l 333 808 l 144 1008 l 229 1081 z "},"é":{"ha":606,"x_min":68,"x_max":538,"o":"m 190 329 q 200 233 192 276 q 227 156 208 189 q 277 106 246 124 q 357 88 308 88 q 431 99 397 88 q 481 119 465 111 l 503 24 q 442 -3 485 11 q 342 -18 400 -18 q 213 10 265 -18 q 128 88 161 38 q 82 207 96 138 q 68 360 68 276 q 135 654 68 561 q 311 747 201 747 q 486 654 435 747 q 538 393 538 561 q 538 362 538 378 q 536 329 538 346 l 190 329 m 311 646 q 224 586 251 646 q 192 426 197 526 l 413 426 q 392 587 413 528 q 311 646 371 646 m 472 1008 l 283 808 l 224 860 l 388 1081 l 472 1008 z "},"ê":{"ha":606,"x_min":68,"x_max":538,"o":"m 190 329 q 200 233 192 276 q 227 156 208 189 q 277 106 246 124 q 357 88 308 88 q 431 99 397 88 q 481 119 465 111 l 503 24 q 442 -3 485 11 q 342 -18 400 -18 q 213 10 265 -18 q 128 88 161 38 q 82 207 96 138 q 68 360 68 276 q 135 654 68 561 q 311 747 201 747 q 486 654 435 747 q 538 393 538 561 q 538 362 538 378 q 536 329 538 346 l 190 329 m 311 646 q 224 586 251 646 q 192 426 197 526 l 413 426 q 392 587 413 528 q 311 646 371 646 m 207 807 l 149 856 l 308 1067 l 468 856 l 410 807 l 308 925 l 207 807 z "},"ë":{"ha":606,"x_min":68,"x_max":538,"o":"m 190 329 q 200 233 192 276 q 227 156 208 189 q 277 106 246 124 q 357 88 308 88 q 431 99 397 88 q 481 119 465 111 l 503 24 q 442 -3 485 11 q 342 -18 400 -18 q 213 10 265 -18 q 128 88 161 38 q 82 207 96 138 q 68 360 68 276 q 135 654 68 561 q 311 747 201 747 q 486 654 435 747 q 538 393 538 561 q 538 362 538 378 q 536 329 538 346 l 190 329 m 311 646 q 224 586 251 646 q 192 426 197 526 l 413 426 q 392 587 413 528 q 311 646 371 646 m 194 858 q 140 880 163 858 q 117 938 117 901 q 140 995 117 974 q 194 1017 163 1017 q 249 995 226 1017 q 272 938 272 974 q 249 880 272 901 q 194 858 226 858 m 425 858 q 370 880 393 858 q 347 938 347 901 q 370 995 347 974 q 425 1017 393 1017 q 480 995 457 1017 q 503 938 503 974 q 480 880 503 901 q 425 858 457 858 z "},"ì":{"ha":336,"x_min":4,"x_max":253,"o":"m 228 0 l 108 0 l 108 729 l 228 729 l 228 0 m 89 1081 l 253 860 l 193 808 l 4 1008 l 89 1081 z "},"í":{"ha":336,"x_min":86,"x_max":335,"o":"m 228 0 l 108 0 l 108 729 l 228 729 l 228 0 m 335 1008 l 146 808 l 86 860 l 250 1081 l 335 1008 z "},"î":{"ha":336,"x_min":8,"x_max":328,"o":"m 228 0 l 108 0 l 108 729 l 228 729 l 228 0 m 67 807 l 8 856 l 168 1067 l 328 856 l 269 807 l 168 925 l 67 807 z "},"ï":{"ha":336,"x_min":-24,"x_max":363,"o":"m 228 0 l 108 0 l 108 729 l 228 729 l 228 0 m 54 858 q -1 880 22 858 q -24 938 -24 901 q -1 995 -24 974 q 54 1017 22 1017 q 109 995 86 1017 q 132 938 132 974 q 109 880 132 901 q 54 858 86 858 m 285 858 q 230 880 253 858 q 207 938 207 901 q 230 995 207 974 q 285 1017 253 1017 q 340 995 317 1017 q 363 938 363 974 q 340 880 363 901 q 285 858 317 858 z "},"ð":{"ha":640,"x_min":68,"x_max":592,"o":"m 592 925 l 468 867 q 542 647 517 765 q 568 397 568 529 q 556 233 568 310 q 513 101 543 157 q 435 14 483 46 q 315 -18 386 -18 q 207 6 253 -18 q 130 76 161 31 q 83 185 99 121 q 68 328 68 249 q 88 484 68 418 q 141 594 107 550 q 222 658 175 638 q 322 679 268 679 q 417 663 372 679 q 365 818 397 747 l 254 767 l 219 846 l 326 896 q 239 1017 289 958 l 324 1076 q 425 942 382 1014 l 557 1004 l 592 925 m 443 401 q 435 550 443 479 q 390 573 415 564 q 333 582 365 582 q 193 325 193 582 q 226 142 193 197 q 311 86 258 86 q 413 169 383 86 q 443 401 443 253 z "},"ñ":{"ha":669,"x_min":108,"x_max":569,"o":"m 108 708 q 219 734 160 724 q 329 744 279 744 q 428 730 383 744 q 503 681 472 715 q 552 587 535 646 q 569 440 569 528 l 569 0 l 450 0 l 450 431 q 422 589 450 539 q 318 639 394 639 q 228 625 278 639 l 228 0 l 108 0 l 108 708 m 513 1001 q 473 899 500 935 q 406 864 446 864 q 362 874 382 864 q 325 896 342 883 q 294 918 308 908 q 265 928 279 928 q 244 914 253 928 q 226 864 235 900 l 157 888 q 196 990 168 954 q 264 1025 224 1025 q 308 1015 289 1025 q 344 993 328 1006 q 375 971 361 981 q 404 961 389 961 q 426 975 417 961 q 443 1025 435 989 l 513 1001 z "},"ò":{"ha":643,"x_min":67,"x_max":576,"o":"m 576 364 q 561 208 576 278 q 515 88 546 138 q 435 10 483 38 q 322 -18 388 -18 q 208 10 257 -18 q 128 88 160 38 q 82 208 97 138 q 67 364 67 278 q 82 519 67 449 q 128 641 97 590 q 208 719 160 692 q 322 747 257 747 q 435 719 388 747 q 515 641 483 692 q 561 519 546 590 q 576 364 576 449 m 451 364 q 444 476 451 425 q 422 563 438 526 q 382 620 407 600 q 322 640 357 640 q 262 620 286 640 q 222 563 238 600 q 199 476 206 526 q 192 364 192 425 q 199 252 192 303 q 222 165 206 201 q 262 109 238 129 q 322 89 286 89 q 382 109 357 89 q 422 165 407 129 q 444 252 438 201 q 451 364 451 303 m 240 1081 l 404 860 l 344 808 l 156 1008 l 240 1081 z "},"ó":{"ha":643,"x_min":67,"x_max":576,"o":"m 576 364 q 561 208 576 278 q 515 88 546 138 q 435 10 483 38 q 322 -18 388 -18 q 208 10 257 -18 q 128 88 160 38 q 82 208 97 138 q 67 364 67 278 q 82 519 67 449 q 128 641 97 590 q 208 719 160 692 q 322 747 257 747 q 435 719 388 747 q 515 641 483 692 q 561 519 546 590 q 576 364 576 449 m 451 364 q 444 476 451 425 q 422 563 438 526 q 382 620 407 600 q 322 640 357 640 q 262 620 286 640 q 222 563 238 600 q 199 476 206 526 q 192 364 192 425 q 199 252 192 303 q 222 165 206 201 q 262 109 238 129 q 322 89 286 89 q 382 109 357 89 q 422 165 407 129 q 444 252 438 201 q 451 364 451 303 m 488 1008 l 299 808 l 239 860 l 403 1081 l 488 1008 z "},"ô":{"ha":643,"x_min":67,"x_max":576,"o":"m 576 364 q 561 208 576 278 q 515 88 546 138 q 435 10 483 38 q 322 -18 388 -18 q 208 10 257 -18 q 128 88 160 38 q 82 208 97 138 q 67 364 67 278 q 82 519 67 449 q 128 641 97 590 q 208 719 160 692 q 322 747 257 747 q 435 719 388 747 q 515 641 483 692 q 561 519 546 590 q 576 364 576 449 m 451 364 q 444 476 451 425 q 422 563 438 526 q 382 620 407 600 q 322 640 357 640 q 262 620 286 640 q 222 563 238 600 q 199 476 206 526 q 192 364 192 425 q 199 252 192 303 q 222 165 206 201 q 262 109 238 129 q 322 89 286 89 q 382 109 357 89 q 422 165 407 129 q 444 252 438 201 q 451 364 451 303 m 218 807 l 160 856 l 319 1067 l 479 856 l 421 807 l 319 925 l 218 807 z "},"õ":{"ha":643,"x_min":67,"x_max":576,"o":"m 576 364 q 561 208 576 278 q 515 88 546 138 q 435 10 483 38 q 322 -18 388 -18 q 208 10 257 -18 q 128 88 160 38 q 82 208 97 138 q 67 364 67 278 q 82 519 67 449 q 128 641 97 590 q 208 719 160 692 q 322 747 257 747 q 435 719 388 747 q 515 641 483 692 q 561 519 546 590 q 576 364 576 449 m 451 364 q 444 476 451 425 q 422 563 438 526 q 382 620 407 600 q 322 640 357 640 q 262 620 286 640 q 222 563 238 600 q 199 476 206 526 q 192 364 192 425 q 199 252 192 303 q 222 165 206 201 q 262 109 238 129 q 322 89 286 89 q 382 109 357 89 q 422 165 407 129 q 444 252 438 201 q 451 364 451 303 m 499 1001 q 459 899 486 935 q 392 864 432 864 q 348 874 368 864 q 311 896 328 883 q 280 918 294 908 q 251 928 265 928 q 230 914 239 928 q 213 864 221 900 l 143 888 q 182 990 154 954 q 250 1025 210 1025 q 294 1015 275 1025 q 331 993 314 1006 q 361 971 347 981 q 390 961 375 961 q 412 975 403 961 q 429 1025 421 989 l 499 1001 z "},"ö":{"ha":643,"x_min":67,"x_max":576,"o":"m 576 364 q 561 208 576 278 q 515 88 546 138 q 435 10 483 38 q 322 -18 388 -18 q 208 10 257 -18 q 128 88 160 38 q 82 208 97 138 q 67 364 67 278 q 82 519 67 449 q 128 641 97 590 q 208 719 160 692 q 322 747 257 747 q 435 719 388 747 q 515 641 483 692 q 561 519 546 590 q 576 364 576 449 m 451 364 q 444 476 451 425 q 422 563 438 526 q 382 620 407 600 q 322 640 357 640 q 262 620 286 640 q 222 563 238 600 q 199 476 206 526 q 192 364 192 425 q 199 252 192 303 q 222 165 206 201 q 262 109 238 129 q 322 89 286 89 q 382 109 357 89 q 422 165 407 129 q 444 252 438 201 q 451 364 451 303 m 206 858 q 151 880 174 858 q 128 938 128 901 q 151 995 128 974 q 206 1017 174 1017 q 260 995 238 1017 q 283 938 283 974 q 260 880 283 901 q 206 858 238 858 m 436 858 q 381 880 404 858 q 358 938 358 901 q 381 995 358 974 q 436 1017 404 1017 q 491 995 468 1017 q 514 938 514 974 q 491 880 514 901 q 436 858 468 858 z "},"÷":{"ha":597,"x_min":60,"x_max":538,"o":"m 60 467 l 538 467 l 538 365 l 60 365 l 60 467 m 378 629 q 357 578 378 600 q 303 556 336 556 q 249 578 269 556 q 229 629 229 600 q 249 682 229 660 q 303 704 269 704 q 357 682 336 704 q 378 629 378 660 m 378 206 q 357 154 378 176 q 303 132 336 132 q 249 154 269 132 q 229 206 229 176 q 249 258 229 236 q 303 281 269 281 q 357 258 336 281 q 378 206 378 236 z "},"ø":{"ha":643,"x_min":56,"x_max":592,"o":"m 56 -6 l 119 101 q 79 218 92 151 q 67 364 67 285 q 82 519 67 449 q 128 641 97 590 q 208 719 160 692 q 322 747 257 747 q 475 690 414 747 l 522 768 l 592 726 l 526 619 q 564 506 551 571 q 576 364 576 440 q 561 208 576 278 q 515 88 546 138 q 435 10 483 38 q 322 -18 388 -18 q 174 33 233 -18 l 125 -47 l 56 -6 m 192 364 q 194 296 192 328 q 201 236 196 264 l 411 585 q 322 640 381 640 q 262 620 286 640 q 222 563 238 600 q 199 476 206 526 q 192 364 192 425 m 451 364 q 443 481 451 428 l 236 136 q 322 89 267 89 q 382 109 357 89 q 422 165 407 129 q 444 252 438 201 q 451 364 451 303 z "},"ù":{"ha":667,"x_min":99,"x_max":560,"o":"m 560 21 q 516 8 542 14 q 462 -3 490 1 q 405 -12 433 -8 q 353 -15 376 -15 q 249 -2 296 -15 q 168 44 201 11 q 117 135 135 78 q 99 281 99 193 l 99 729 l 218 729 l 218 285 q 251 134 218 178 q 350 90 283 90 q 394 92 372 90 q 440 101 417 94 l 440 729 l 560 729 l 560 21 m 233 1081 l 397 860 l 338 808 l 149 1008 l 233 1081 z "},"ú":{"ha":667,"x_min":99,"x_max":560,"o":"m 560 21 q 516 8 542 14 q 462 -3 490 1 q 405 -12 433 -8 q 353 -15 376 -15 q 249 -2 296 -15 q 168 44 201 11 q 117 135 135 78 q 99 281 99 193 l 99 729 l 218 729 l 218 285 q 251 134 218 178 q 350 90 283 90 q 394 92 372 90 q 440 101 417 94 l 440 729 l 560 729 l 560 21 m 511 1008 l 322 808 l 263 860 l 426 1081 l 511 1008 z "},"û":{"ha":667,"x_min":99,"x_max":560,"o":"m 560 21 q 516 8 542 14 q 462 -3 490 1 q 405 -12 433 -8 q 353 -15 376 -15 q 249 -2 296 -15 q 168 44 201 11 q 117 135 135 78 q 99 281 99 193 l 99 729 l 218 729 l 218 285 q 251 134 218 178 q 350 90 283 90 q 394 92 372 90 q 440 101 417 94 l 440 729 l 560 729 l 560 21 m 232 807 l 174 856 l 333 1067 l 493 856 l 435 807 l 333 925 l 232 807 z "},"ü":{"ha":667,"x_min":99,"x_max":560,"o":"m 560 21 q 516 8 542 14 q 462 -3 490 1 q 405 -12 433 -8 q 353 -15 376 -15 q 249 -2 296 -15 q 168 44 201 11 q 117 135 135 78 q 99 281 99 193 l 99 729 l 218 729 l 218 285 q 251 134 218 178 q 350 90 283 90 q 394 92 372 90 q 440 101 417 94 l 440 729 l 560 729 l 560 21 m 219 858 q 165 880 188 858 q 142 938 142 901 q 165 995 142 974 q 219 1017 188 1017 q 274 995 251 1017 q 297 938 297 974 q 274 880 297 901 q 219 858 251 858 m 450 858 q 395 880 418 858 q 372 938 372 901 q 395 995 372 974 q 450 1017 418 1017 q 505 995 482 1017 q 528 938 528 974 q 505 880 528 901 q 450 858 482 858 z "},"ý":{"ha":550,"x_min":1,"x_max":532,"o":"m 276 151 q 350 431 317 290 q 414 729 383 571 l 532 729 q 487 529 511 628 q 437 339 463 431 q 385 166 411 247 q 338 18 360 85 q 287 -113 311 -60 q 234 -199 263 -167 q 172 -247 206 -232 q 93 -261 139 -261 q 43 -255 68 -261 q 1 -242 18 -249 l 24 -144 q 92 -160 60 -160 q 157 -131 132 -160 q 206 -43 182 -101 l 219 -8 q 166 152 193 64 q 113 336 139 240 q 64 533 88 432 q 21 729 40 633 l 147 729 q 174 586 158 664 q 206 431 189 508 q 242 280 224 353 q 276 151 260 207 m 450 1008 l 261 808 l 201 860 l 365 1081 l 450 1008 z "},"þ":{"ha":649,"x_min":107,"x_max":582,"o":"m 226 -254 l 107 -254 l 107 1057 l 226 1078 l 226 735 q 267 744 246 740 q 313 747 289 747 q 516 645 450 747 q 582 361 582 543 q 523 79 582 176 q 331 -18 464 -18 q 274 -12 299 -18 q 226 6 249 -6 l 226 -254 m 226 110 q 313 88 267 88 q 374 101 347 88 q 419 147 400 115 q 447 232 438 179 q 457 363 457 285 q 419 577 457 513 q 297 642 381 642 q 264 640 282 642 q 226 632 246 638 l 226 110 z "},"ÿ":{"ha":550,"x_min":1,"x_max":532,"o":"m 276 151 q 350 431 317 290 q 414 729 383 571 l 532 729 q 487 529 511 628 q 437 339 463 431 q 385 166 411 247 q 338 18 360 85 q 287 -113 311 -60 q 234 -199 263 -167 q 172 -247 206 -232 q 93 -261 139 -261 q 43 -255 68 -261 q 1 -242 18 -249 l 24 -144 q 92 -160 60 -160 q 157 -131 132 -160 q 206 -43 182 -101 l 219 -8 q 166 152 193 64 q 113 336 139 240 q 64 533 88 432 q 21 729 40 633 l 147 729 q 174 586 158 664 q 206 431 189 508 q 242 280 224 353 q 276 151 260 207 m 158 858 q 103 880 126 858 q 81 938 81 901 q 103 995 81 974 q 158 1017 126 1017 q 213 995 190 1017 q 236 938 236 974 q 213 880 236 901 q 158 858 190 858 m 389 858 q 334 880 357 858 q 311 938 311 901 q 334 995 311 974 q 389 1017 357 1017 q 444 995 421 1017 q 467 938 467 974 q 444 880 467 901 q 389 858 421 858 z "},"Ā":{"ha":699,"x_min":28,"x_max":671,"o":"m 415 963 q 481 752 449 858 q 545 529 514 646 q 608 282 576 413 q 671 0 639 151 l 546 0 q 523 124 535 63 q 499 246 511 185 l 196 246 q 171 124 182 185 q 149 0 160 63 l 28 0 q 90 282 58 151 q 153 529 122 413 q 217 752 185 646 q 283 963 250 858 l 415 963 m 347 821 q 281 589 313 706 q 219 350 249 472 l 474 350 q 414 589 446 472 q 347 821 382 706 m 200 1196 l 496 1196 l 496 1101 l 200 1101 l 200 1196 z "},"ā":{"ha":603,"x_min":57,"x_max":503,"o":"m 119 714 q 196 738 156 729 q 283 747 236 747 q 442 687 381 747 q 503 499 503 626 l 503 15 q 401 -7 453 1 q 299 -15 349 -15 q 205 -3 249 -15 q 128 38 161 10 q 76 108 96 65 q 57 211 57 150 q 74 310 57 268 q 122 381 92 353 q 194 424 153 410 q 285 439 236 439 q 386 428 331 439 l 386 494 q 355 607 386 575 q 265 639 324 639 q 205 633 233 639 q 144 613 176 626 l 119 714 m 176 213 q 210 118 176 149 q 304 88 243 88 q 386 97 342 88 l 386 329 q 304 340 344 340 q 254 334 278 340 q 213 313 231 328 q 186 274 196 299 q 176 213 176 250 m 153 988 l 449 988 l 449 893 l 153 893 l 153 988 z "},"Ă":{"ha":699,"x_min":28,"x_max":671,"o":"m 415 963 q 481 752 449 858 q 545 529 514 646 q 608 282 576 413 q 671 0 639 151 l 546 0 q 523 124 535 63 q 499 246 511 185 l 196 246 q 171 124 182 185 q 149 0 160 63 l 28 0 q 90 282 58 151 q 153 529 122 413 q 217 752 185 646 q 283 963 250 858 l 415 963 m 347 821 q 281 589 313 706 q 219 350 249 472 l 474 350 q 414 589 446 472 q 347 821 382 706 m 349 1063 q 230 1113 271 1063 q 189 1256 189 1164 l 269 1256 q 288 1176 272 1210 q 349 1143 304 1143 q 409 1176 393 1143 q 428 1256 425 1210 l 508 1256 q 467 1113 508 1164 q 349 1063 425 1063 z "},"ă":{"ha":603,"x_min":57,"x_max":503,"o":"m 119 714 q 196 738 156 729 q 283 747 236 747 q 442 687 381 747 q 503 499 503 626 l 503 15 q 401 -7 453 1 q 299 -15 349 -15 q 205 -3 249 -15 q 128 38 161 10 q 76 108 96 65 q 57 211 57 150 q 74 310 57 268 q 122 381 92 353 q 194 424 153 410 q 285 439 236 439 q 386 428 331 439 l 386 494 q 355 607 386 575 q 265 639 324 639 q 205 633 233 639 q 144 613 176 626 l 119 714 m 176 213 q 210 118 176 149 q 304 88 243 88 q 386 97 342 88 l 386 329 q 304 340 344 340 q 254 334 278 340 q 213 313 231 328 q 186 274 196 299 q 176 213 176 250 m 301 854 q 183 905 224 854 q 142 1047 142 956 l 222 1047 q 241 968 225 1001 q 301 935 257 935 q 362 968 346 935 q 381 1047 378 1001 l 461 1047 q 419 905 461 956 q 301 854 378 854 z "},"Ą":{"ha":699,"x_min":28,"x_max":674,"o":"m 674 -244 q 588 -260 635 -260 q 488 -230 526 -260 q 449 -147 449 -200 q 474 -68 449 -103 q 546 0 499 -33 q 523 124 535 63 q 499 246 511 185 l 196 246 q 171 124 182 185 q 149 0 160 63 l 28 0 q 90 282 58 151 q 153 529 122 413 q 217 752 185 646 q 283 963 250 858 l 415 963 q 481 752 449 858 q 545 529 514 646 q 608 282 576 413 q 671 0 639 151 q 587 -58 617 -29 q 557 -115 557 -86 q 574 -155 557 -143 q 617 -167 592 -167 q 667 -157 643 -167 l 674 -244 m 347 821 q 281 589 313 706 q 219 350 249 472 l 474 350 q 414 589 446 472 q 347 821 382 706 z "},"ą":{"ha":603,"x_min":57,"x_max":506,"o":"m 506 -244 q 419 -260 467 -260 q 319 -228 358 -260 q 281 -142 281 -197 q 297 -73 281 -104 q 346 -12 314 -42 q 322 -15 333 -15 q 299 -15 310 -15 q 205 -3 249 -15 q 128 38 161 10 q 76 108 96 65 q 57 211 57 150 q 74 310 57 268 q 122 381 92 353 q 194 424 153 410 q 285 439 236 439 q 386 428 331 439 l 386 494 q 355 607 386 575 q 265 639 324 639 q 205 633 233 639 q 144 613 176 626 l 119 714 q 196 738 156 729 q 283 747 236 747 q 442 687 381 747 q 503 499 503 626 l 503 15 q 419 -48 449 -17 q 389 -111 389 -79 q 406 -154 389 -142 q 449 -167 424 -167 q 499 -157 475 -167 l 506 -244 m 176 213 q 210 118 176 149 q 304 88 243 88 q 386 97 342 88 l 386 329 q 304 340 344 340 q 254 334 278 340 q 213 313 231 328 q 186 274 196 299 q 176 213 176 250 z "},"Ć":{"ha":651,"x_min":76,"x_max":631,"o":"m 426 -21 q 167 106 257 -21 q 76 496 76 232 q 102 724 76 631 q 174 875 128 817 q 282 959 219 933 q 418 985 344 985 q 532 969 479 985 q 618 929 585 953 l 581 825 q 509 861 547 847 q 421 875 471 875 q 260 783 310 875 q 210 496 210 690 q 263 194 210 300 q 435 89 315 89 q 527 103 492 89 q 596 139 563 117 l 631 40 q 547 -3 599 15 q 426 -21 494 -21 m 572 1217 l 383 1017 l 324 1068 l 488 1289 l 572 1217 z "},"ć":{"ha":490,"x_min":67,"x_max":469,"o":"m 331 -18 q 206 11 256 -18 q 124 91 156 40 q 80 211 93 142 q 67 363 67 281 q 133 645 67 543 q 332 747 199 747 q 404 738 372 747 q 464 713 436 728 l 433 614 q 338 642 390 642 q 227 574 263 642 q 192 363 192 506 q 199 252 192 303 q 223 165 206 201 q 269 108 240 129 q 342 88 297 88 q 397 95 372 88 q 443 115 421 103 l 469 22 q 410 -6 447 7 q 331 -18 374 -18 m 463 1008 l 274 808 l 214 860 l 378 1081 l 463 1008 z "},"Ĉ":{"ha":651,"x_min":76,"x_max":631,"o":"m 426 -21 q 167 106 257 -21 q 76 496 76 232 q 102 724 76 631 q 174 875 128 817 q 282 959 219 933 q 418 985 344 985 q 532 969 479 985 q 618 929 585 953 l 581 825 q 509 861 547 847 q 421 875 471 875 q 260 783 310 875 q 210 496 210 690 q 263 194 210 300 q 435 89 315 89 q 527 103 492 89 q 596 139 563 117 l 631 40 q 547 -3 599 15 q 426 -21 494 -21 m 293 1015 l 235 1064 l 394 1275 l 554 1064 l 496 1015 l 394 1133 l 293 1015 z "},"ĉ":{"ha":490,"x_min":67,"x_max":469,"o":"m 331 -18 q 206 11 256 -18 q 124 91 156 40 q 80 211 93 142 q 67 363 67 281 q 133 645 67 543 q 332 747 199 747 q 404 738 372 747 q 464 713 436 728 l 433 614 q 338 642 390 642 q 227 574 263 642 q 192 363 192 506 q 199 252 192 303 q 223 165 206 201 q 269 108 240 129 q 342 88 297 88 q 397 95 372 88 q 443 115 421 103 l 469 22 q 410 -6 447 7 q 331 -18 374 -18 m 197 807 l 139 856 l 299 1067 l 458 856 l 400 807 l 299 925 l 197 807 z "},"Ċ":{"ha":651,"x_min":76,"x_max":631,"o":"m 426 -21 q 167 106 257 -21 q 76 496 76 232 q 102 724 76 631 q 174 875 128 817 q 282 959 219 933 q 418 985 344 985 q 532 969 479 985 q 618 929 585 953 l 581 825 q 509 861 547 847 q 421 875 471 875 q 260 783 310 875 q 210 496 210 690 q 263 194 210 300 q 435 89 315 89 q 527 103 492 89 q 596 139 563 117 l 631 40 q 547 -3 599 15 q 426 -21 494 -21 m 396 1067 q 341 1088 364 1067 q 318 1146 318 1110 q 341 1203 318 1182 q 396 1225 364 1225 q 451 1203 428 1225 q 474 1146 474 1182 q 451 1088 474 1110 q 396 1067 428 1067 z "},"ċ":{"ha":490,"x_min":67,"x_max":469,"o":"m 331 -18 q 206 11 256 -18 q 124 91 156 40 q 80 211 93 142 q 67 363 67 281 q 133 645 67 543 q 332 747 199 747 q 404 738 372 747 q 464 713 436 728 l 433 614 q 338 642 390 642 q 227 574 263 642 q 192 363 192 506 q 199 252 192 303 q 223 165 206 201 q 269 108 240 129 q 342 88 297 88 q 397 95 372 88 q 443 115 421 103 l 469 22 q 410 -6 447 7 q 331 -18 374 -18 m 300 858 q 245 880 268 858 q 222 938 222 901 q 245 995 222 974 q 300 1017 268 1017 q 355 995 332 1017 q 378 938 378 974 q 355 880 378 901 q 300 858 332 858 z "},"Č":{"ha":651,"x_min":76,"x_max":631,"o":"m 426 -21 q 167 106 257 -21 q 76 496 76 232 q 102 724 76 631 q 174 875 128 817 q 282 959 219 933 q 418 985 344 985 q 532 969 479 985 q 618 929 585 953 l 581 825 q 509 861 547 847 q 421 875 471 875 q 260 783 310 875 q 210 496 210 690 q 263 194 210 300 q 435 89 315 89 q 527 103 492 89 q 596 139 563 117 l 631 40 q 547 -3 599 15 q 426 -21 494 -21 m 497 1275 l 556 1226 l 396 1015 l 236 1226 l 294 1275 l 396 1157 l 497 1275 z "},"č":{"ha":490,"x_min":67,"x_max":469,"o":"m 331 -18 q 206 11 256 -18 q 124 91 156 40 q 80 211 93 142 q 67 363 67 281 q 133 645 67 543 q 332 747 199 747 q 404 738 372 747 q 464 713 436 728 l 433 614 q 338 642 390 642 q 227 574 263 642 q 192 363 192 506 q 199 252 192 303 q 223 165 206 201 q 269 108 240 129 q 342 88 297 88 q 397 95 372 88 q 443 115 421 103 l 469 22 q 410 -6 447 7 q 331 -18 374 -18 m 401 1067 l 460 1018 l 300 807 l 140 1018 l 199 1067 l 300 949 l 401 1067 z "},"Ď":{"ha":800,"x_min":115,"x_max":724,"o":"m 724 482 q 695 253 724 347 q 613 101 667 160 q 484 17 560 43 q 315 -10 408 -10 q 115 15 221 -10 l 115 949 q 218 967 168 960 q 314 974 268 974 q 484 947 408 974 q 613 863 560 921 q 695 710 667 804 q 724 482 724 617 m 590 482 q 575 657 590 585 q 528 775 560 729 q 444 842 496 821 q 319 863 392 863 q 281 861 300 863 q 240 857 261 860 l 240 107 q 281 103 261 104 q 318 101 300 101 q 443 122 392 101 q 527 188 494 143 q 575 306 560 233 q 590 482 590 378 m 475 1275 l 533 1226 l 374 1015 l 214 1226 l 272 1275 l 374 1157 l 475 1275 z "},"ď":{"ha":713,"x_min":67,"x_max":749,"o":"m 422 619 q 336 642 382 642 q 275 628 301 642 q 230 582 249 614 q 201 497 211 550 q 192 367 192 444 q 231 152 192 217 q 351 88 271 88 q 385 90 367 88 q 422 97 403 92 l 422 619 m 422 1057 l 542 1078 l 542 19 q 453 -8 503 3 q 351 -18 403 -18 q 134 78 201 -18 q 67 367 67 174 q 81 524 67 454 q 127 644 96 594 q 207 720 158 693 q 322 747 256 747 q 377 741 354 747 q 422 724 400 735 l 422 1057 m 749 1078 l 711 768 l 632 768 l 632 1078 l 749 1078 z "},"Đ":{"ha":800,"x_min":21,"x_max":724,"o":"m 21 528 l 115 528 l 115 949 q 218 967 168 960 q 314 974 268 974 q 483 947 407 974 q 612 860 558 919 q 694 708 665 801 q 724 482 724 614 q 694 256 724 350 q 612 103 665 163 q 483 17 558 44 q 315 -10 407 -10 q 115 15 221 -10 l 115 436 l 21 436 l 21 528 m 590 482 q 526 772 590 682 q 319 863 463 863 q 281 861 300 863 q 240 857 261 860 l 240 528 l 390 528 l 390 436 l 240 436 l 240 107 q 281 103 261 104 q 318 101 300 101 q 526 191 461 101 q 590 482 590 281 z "},"đ":{"ha":649,"x_min":67,"x_max":649,"o":"m 264 949 l 422 949 l 422 1057 l 542 1078 l 542 949 l 649 949 l 649 857 l 542 857 l 542 19 q 453 -8 503 3 q 351 -18 403 -18 q 134 78 201 -18 q 67 367 67 174 q 81 524 67 454 q 127 644 96 594 q 207 720 158 693 q 322 747 256 747 q 377 741 354 747 q 422 724 400 735 l 422 857 l 264 857 l 264 949 m 422 619 q 336 642 382 642 q 275 628 301 642 q 230 582 249 614 q 201 497 211 550 q 192 367 192 444 q 231 152 192 217 q 351 88 271 88 q 385 90 367 88 q 422 97 403 92 l 422 619 z "},"Ē":{"ha":633,"x_min":117,"x_max":571,"o":"m 117 0 l 117 963 l 549 963 l 549 856 l 242 856 l 242 557 l 519 557 l 519 453 l 242 453 l 242 107 l 571 107 l 571 0 l 117 0 m 189 1196 l 485 1196 l 485 1101 l 189 1101 l 189 1196 z "},"ē":{"ha":606,"x_min":68,"x_max":538,"o":"m 190 329 q 200 233 192 276 q 227 156 208 189 q 277 106 246 124 q 357 88 308 88 q 431 99 397 88 q 481 119 465 111 l 503 24 q 442 -3 485 11 q 342 -18 400 -18 q 213 10 265 -18 q 128 88 161 38 q 82 207 96 138 q 68 360 68 276 q 135 654 68 561 q 311 747 201 747 q 486 654 435 747 q 538 393 538 561 q 538 362 538 378 q 536 329 538 346 l 190 329 m 311 646 q 224 586 251 646 q 192 426 197 526 l 413 426 q 392 587 413 528 q 311 646 371 646 m 161 988 l 457 988 l 457 893 l 161 893 l 161 988 z "},"Ĕ":{"ha":633,"x_min":117,"x_max":571,"o":"m 117 0 l 117 963 l 549 963 l 549 856 l 242 856 l 242 557 l 519 557 l 519 453 l 242 453 l 242 107 l 571 107 l 571 0 l 117 0 m 338 1063 q 219 1113 260 1063 q 178 1256 178 1164 l 258 1256 q 277 1176 261 1210 q 338 1143 293 1143 q 398 1176 382 1143 q 417 1256 414 1210 l 497 1256 q 456 1113 497 1164 q 338 1063 414 1063 z "},"ĕ":{"ha":606,"x_min":68,"x_max":538,"o":"m 190 329 q 200 233 192 276 q 227 156 208 189 q 277 106 246 124 q 357 88 308 88 q 431 99 397 88 q 481 119 465 111 l 503 24 q 442 -3 485 11 q 342 -18 400 -18 q 213 10 265 -18 q 128 88 161 38 q 82 207 96 138 q 68 360 68 276 q 135 654 68 561 q 311 747 201 747 q 486 654 435 747 q 538 393 538 561 q 538 362 538 378 q 536 329 538 346 l 190 329 m 311 646 q 224 586 251 646 q 192 426 197 526 l 413 426 q 392 587 413 528 q 311 646 371 646 m 310 854 q 191 905 232 854 q 150 1047 150 956 l 231 1047 q 249 968 233 1001 q 310 935 265 935 q 370 968 354 935 q 389 1047 386 1001 l 469 1047 q 428 905 469 956 q 310 854 386 854 z "},"Ė":{"ha":633,"x_min":117,"x_max":571,"o":"m 117 0 l 117 963 l 549 963 l 549 856 l 242 856 l 242 557 l 519 557 l 519 453 l 242 453 l 242 107 l 571 107 l 571 0 l 117 0 m 338 1067 q 283 1088 306 1067 q 260 1146 260 1110 q 283 1203 260 1182 q 338 1225 306 1225 q 392 1203 369 1225 q 415 1146 415 1182 q 392 1088 415 1110 q 338 1067 369 1067 z "},"ė":{"ha":606,"x_min":68,"x_max":538,"o":"m 190 329 q 200 233 192 276 q 227 156 208 189 q 277 106 246 124 q 357 88 308 88 q 431 99 397 88 q 481 119 465 111 l 503 24 q 442 -3 485 11 q 342 -18 400 -18 q 213 10 265 -18 q 128 88 161 38 q 82 207 96 138 q 68 360 68 276 q 135 654 68 561 q 311 747 201 747 q 486 654 435 747 q 538 393 538 561 q 538 362 538 378 q 536 329 538 346 l 190 329 m 311 646 q 224 586 251 646 q 192 426 197 526 l 413 426 q 392 587 413 528 q 311 646 371 646 m 310 858 q 255 880 278 858 q 232 938 232 901 q 255 995 232 974 q 310 1017 278 1017 q 365 995 342 1017 q 388 938 388 974 q 365 880 388 901 q 310 858 342 858 z "},"Ę":{"ha":633,"x_min":117,"x_max":574,"o":"m 574 -244 q 488 -260 535 -260 q 388 -230 426 -260 q 349 -147 349 -200 q 372 -68 349 -103 q 435 0 394 -33 l 117 0 l 117 963 l 549 963 l 549 856 l 242 856 l 242 557 l 519 557 l 519 453 l 242 453 l 242 107 l 571 107 l 571 0 q 487 -58 517 -29 q 457 -115 457 -86 q 474 -155 457 -143 q 517 -167 492 -167 q 567 -157 543 -167 l 574 -244 z "},"ę":{"ha":606,"x_min":68,"x_max":538,"o":"m 506 -244 q 419 -260 467 -260 q 319 -228 358 -260 q 281 -139 281 -196 q 294 -75 281 -104 q 333 -18 308 -46 q 209 12 260 -17 q 127 90 158 40 q 82 208 96 139 q 68 360 68 276 q 135 654 68 561 q 311 747 201 747 q 486 654 435 747 q 538 393 538 561 q 538 362 538 378 q 536 329 538 346 l 190 329 q 200 233 192 276 q 227 156 208 189 q 277 106 246 124 q 357 88 308 88 q 431 99 397 88 q 481 119 465 111 l 503 24 l 490 15 q 415 -47 442 -15 q 389 -110 389 -78 q 406 -153 389 -140 q 449 -167 424 -167 q 499 -157 475 -167 l 506 -244 m 311 646 q 224 586 251 646 q 192 426 197 526 l 413 426 q 392 587 413 528 q 311 646 371 646 z "},"Ě":{"ha":633,"x_min":117,"x_max":571,"o":"m 117 0 l 117 963 l 549 963 l 549 856 l 242 856 l 242 557 l 519 557 l 519 453 l 242 453 l 242 107 l 571 107 l 571 0 l 117 0 m 433 1275 l 492 1226 l 332 1015 l 172 1226 l 231 1275 l 332 1157 l 433 1275 z "},"ě":{"ha":606,"x_min":68,"x_max":538,"o":"m 190 329 q 200 233 192 276 q 227 156 208 189 q 277 106 246 124 q 357 88 308 88 q 431 99 397 88 q 481 119 465 111 l 503 24 q 442 -3 485 11 q 342 -18 400 -18 q 213 10 265 -18 q 128 88 161 38 q 82 207 96 138 q 68 360 68 276 q 135 654 68 561 q 311 747 201 747 q 486 654 435 747 q 538 393 538 561 q 538 362 538 378 q 536 329 538 346 l 190 329 m 311 646 q 224 586 251 646 q 192 426 197 526 l 413 426 q 392 587 413 528 q 311 646 371 646 m 411 1067 l 469 1018 l 310 807 l 150 1018 l 208 1067 l 310 949 l 411 1067 z "},"Ĝ":{"ha":729,"x_min":76,"x_max":633,"o":"m 76 482 q 101 714 76 618 q 173 870 126 810 q 285 958 219 931 q 433 985 351 985 q 547 967 496 985 q 631 928 599 950 l 592 824 q 522 860 560 846 q 436 875 485 875 q 263 777 315 875 q 210 482 210 679 q 226 301 210 376 q 271 179 242 226 q 342 110 300 132 q 435 88 383 88 q 508 97 478 88 l 508 474 l 633 474 l 633 21 q 540 -10 596 3 q 424 -22 485 -22 q 285 8 349 -22 q 174 99 221 38 q 102 256 128 161 q 76 482 76 351 m 304 1015 l 246 1064 l 406 1275 l 565 1064 l 507 1015 l 406 1133 l 304 1015 z "},"ĝ":{"ha":649,"x_min":67,"x_max":542,"o":"m 542 21 q 522 -110 542 -57 q 467 -197 501 -164 q 385 -246 432 -231 q 286 -261 339 -261 q 197 -251 242 -261 q 115 -222 153 -242 l 140 -122 q 201 -147 165 -136 q 276 -158 238 -158 q 383 -119 344 -158 q 422 14 422 -81 l 422 49 q 375 33 400 39 q 318 26 350 26 q 127 116 188 26 q 67 369 67 206 q 83 527 67 457 q 133 647 99 597 q 221 722 167 696 q 353 747 275 747 q 453 737 404 747 q 542 710 503 726 l 542 21 m 422 632 q 385 640 403 638 q 351 642 367 642 q 230 578 268 642 q 192 369 192 514 q 229 185 192 239 q 336 132 267 132 q 381 138 360 132 q 422 153 403 143 l 422 632 m 232 807 l 174 856 l 333 1067 l 493 856 l 435 807 l 333 925 l 232 807 z "},"Ğ":{"ha":729,"x_min":76,"x_max":633,"o":"m 76 482 q 101 714 76 618 q 173 870 126 810 q 285 958 219 931 q 433 985 351 985 q 547 967 496 985 q 631 928 599 950 l 592 824 q 522 860 560 846 q 436 875 485 875 q 263 777 315 875 q 210 482 210 679 q 226 301 210 376 q 271 179 242 226 q 342 110 300 132 q 435 88 383 88 q 508 97 478 88 l 508 474 l 633 474 l 633 21 q 540 -10 596 3 q 424 -22 485 -22 q 285 8 349 -22 q 174 99 221 38 q 102 256 128 161 q 76 482 76 351 m 407 1063 q 288 1113 329 1063 q 247 1256 247 1164 l 328 1256 q 347 1176 331 1210 q 407 1143 363 1143 q 467 1176 451 1143 q 486 1256 483 1210 l 567 1256 q 525 1113 567 1164 q 407 1063 483 1063 z "},"ğ":{"ha":649,"x_min":67,"x_max":542,"o":"m 542 21 q 522 -110 542 -57 q 467 -197 501 -164 q 385 -246 432 -231 q 286 -261 339 -261 q 197 -251 242 -261 q 115 -222 153 -242 l 140 -122 q 201 -147 165 -136 q 276 -158 238 -158 q 383 -119 344 -158 q 422 14 422 -81 l 422 49 q 375 33 400 39 q 318 26 350 26 q 127 116 188 26 q 67 369 67 206 q 83 527 67 457 q 133 647 99 597 q 221 722 167 696 q 353 747 275 747 q 453 737 404 747 q 542 710 503 726 l 542 21 m 422 632 q 385 640 403 638 q 351 642 367 642 q 230 578 268 642 q 192 369 192 514 q 229 185 192 239 q 336 132 267 132 q 381 138 360 132 q 422 153 403 143 l 422 632 m 335 854 q 216 905 257 854 q 175 1047 175 956 l 256 1047 q 274 968 258 1001 q 335 935 290 935 q 395 968 379 935 q 414 1047 411 1001 l 494 1047 q 453 905 494 956 q 335 854 411 854 z "},"Ġ":{"ha":729,"x_min":76,"x_max":633,"o":"m 76 482 q 101 714 76 618 q 173 870 126 810 q 285 958 219 931 q 433 985 351 985 q 547 967 496 985 q 631 928 599 950 l 592 824 q 522 860 560 846 q 436 875 485 875 q 263 777 315 875 q 210 482 210 679 q 226 301 210 376 q 271 179 242 226 q 342 110 300 132 q 435 88 383 88 q 508 97 478 88 l 508 474 l 633 474 l 633 21 q 540 -10 596 3 q 424 -22 485 -22 q 285 8 349 -22 q 174 99 221 38 q 102 256 128 161 q 76 482 76 351 m 407 1067 q 352 1088 375 1067 q 329 1146 329 1110 q 352 1203 329 1182 q 407 1225 375 1225 q 462 1203 439 1225 q 485 1146 485 1182 q 462 1088 485 1110 q 407 1067 439 1067 z "},"ġ":{"ha":649,"x_min":67,"x_max":542,"o":"m 542 21 q 522 -110 542 -57 q 467 -197 501 -164 q 385 -246 432 -231 q 286 -261 339 -261 q 197 -251 242 -261 q 115 -222 153 -242 l 140 -122 q 201 -147 165 -136 q 276 -158 238 -158 q 383 -119 344 -158 q 422 14 422 -81 l 422 49 q 375 33 400 39 q 318 26 350 26 q 127 116 188 26 q 67 369 67 206 q 83 527 67 457 q 133 647 99 597 q 221 722 167 696 q 353 747 275 747 q 453 737 404 747 q 542 710 503 726 l 542 21 m 422 632 q 385 640 403 638 q 351 642 367 642 q 230 578 268 642 q 192 369 192 514 q 229 185 192 239 q 336 132 267 132 q 381 138 360 132 q 422 153 403 143 l 422 632 m 332 858 q 277 880 300 858 q 254 938 254 901 q 277 995 254 974 q 332 1017 300 1017 q 387 995 364 1017 q 410 938 410 974 q 387 880 410 901 q 332 858 364 858 z "},"Ģ":{"ha":729,"x_min":76,"x_max":633,"o":"m 76 482 q 101 714 76 618 q 173 870 126 810 q 285 958 219 931 q 433 985 351 985 q 547 967 496 985 q 631 928 599 950 l 592 824 q 522 860 560 846 q 436 875 485 875 q 263 777 315 875 q 210 482 210 679 q 226 301 210 376 q 271 179 242 226 q 342 110 300 132 q 435 88 383 88 q 508 97 478 88 l 508 474 l 633 474 l 633 21 q 540 -10 596 3 q 424 -22 485 -22 q 285 8 349 -22 q 174 99 221 38 q 102 256 128 161 q 76 482 76 351 m 375 -69 l 478 -69 q 479 -85 479 -76 q 479 -99 479 -94 q 438 -224 479 -186 q 335 -261 396 -261 q 307 -260 319 -261 q 288 -256 294 -258 l 288 -183 q 304 -185 293 -185 q 357 -164 339 -185 q 375 -87 375 -143 l 375 -69 z "},"ģ":{"ha":649,"x_min":67,"x_max":542,"o":"m 542 21 q 522 -110 542 -57 q 467 -197 501 -164 q 385 -246 432 -231 q 286 -261 339 -261 q 197 -251 242 -261 q 115 -222 153 -242 l 140 -122 q 201 -147 165 -136 q 276 -158 238 -158 q 383 -119 344 -158 q 422 14 422 -81 l 422 49 q 375 33 400 39 q 318 26 350 26 q 127 116 188 26 q 67 369 67 206 q 83 527 67 457 q 133 647 99 597 q 221 722 167 696 q 353 747 275 747 q 453 737 404 747 q 542 710 503 726 l 542 21 m 422 632 q 385 640 403 638 q 351 642 367 642 q 230 578 268 642 q 192 369 192 514 q 229 185 192 239 q 336 132 267 132 q 381 138 360 132 q 422 153 403 143 l 422 632 m 385 846 l 269 846 q 268 862 268 853 q 268 875 268 871 q 282 962 268 925 q 318 1024 296 999 q 367 1063 340 1049 q 417 1085 393 1078 l 467 1022 q 434 997 449 1010 q 408 967 419 985 q 391 926 397 950 q 385 864 385 901 l 385 846 z "},"Ĥ":{"ha":800,"x_min":117,"x_max":683,"o":"m 558 963 l 683 963 l 683 0 l 558 0 l 558 447 l 242 447 l 242 0 l 117 0 l 117 963 l 242 963 l 242 556 l 558 556 l 558 963 m 297 1015 l 239 1064 l 399 1275 l 558 1064 l 500 1015 l 399 1133 l 297 1015 z "},"ĥ":{"ha":669,"x_min":64,"x_max":569,"o":"m 108 0 l 108 1057 l 228 1078 l 228 725 q 285 739 254 733 q 349 744 317 744 q 435 730 394 744 q 505 681 475 715 q 552 587 535 646 q 569 440 569 528 l 569 0 l 450 0 l 450 431 q 422 589 450 539 q 318 639 394 639 q 228 625 278 639 l 228 0 l 108 0 m 108 1149 l 64 1207 l 228 1339 l 392 1207 l 349 1149 l 228 1232 l 108 1149 z "},"Ħ":{"ha":800,"x_min":22,"x_max":778,"o":"m 22 808 l 117 808 l 117 963 l 242 963 l 242 808 l 558 808 l 558 963 l 683 963 l 683 808 l 778 808 l 778 717 l 683 717 l 683 0 l 558 0 l 558 447 l 242 447 l 242 0 l 117 0 l 117 717 l 22 717 l 22 808 m 558 717 l 242 717 l 242 556 l 558 556 l 558 717 z "},"ħ":{"ha":669,"x_min":21,"x_max":569,"o":"m 21 949 l 108 949 l 108 1057 l 228 1078 l 228 949 l 406 949 l 406 857 l 228 857 l 228 725 q 285 739 254 733 q 349 744 317 744 q 435 730 394 744 q 505 681 475 715 q 552 587 535 646 q 569 440 569 528 l 569 0 l 450 0 l 450 431 q 422 589 450 539 q 318 639 394 639 q 228 625 278 639 l 228 -1 l 108 -1 l 108 857 l 21 857 l 21 949 z "},"Ĩ":{"ha":358,"x_min":3,"x_max":358,"o":"m 117 963 l 242 963 l 242 0 l 117 0 l 117 963 m 358 1210 q 319 1108 346 1143 q 251 1072 292 1072 q 208 1082 228 1072 q 171 1104 188 1092 q 140 1126 154 1117 q 111 1136 125 1136 q 90 1122 99 1136 q 72 1072 81 1108 l 3 1096 q 42 1198 14 1163 q 110 1233 69 1233 q 154 1224 135 1233 q 190 1201 174 1214 q 221 1179 207 1189 q 250 1169 235 1169 q 272 1183 263 1169 q 289 1233 281 1197 l 358 1210 z "},"ĩ":{"ha":336,"x_min":-8,"x_max":347,"o":"m 228 0 l 108 0 l 108 729 l 228 729 l 228 0 m 347 1001 q 308 899 335 935 q 240 864 281 864 q 197 874 217 864 q 160 896 176 883 q 128 918 143 908 q 100 928 114 928 q 78 914 88 928 q 61 864 69 900 l -8 888 q 31 990 3 954 q 99 1025 58 1025 q 143 1015 124 1025 q 179 993 163 1006 q 210 971 196 981 q 239 961 224 961 q 260 975 251 961 q 278 1025 269 989 l 347 1001 z "},"Ī":{"ha":358,"x_min":32,"x_max":328,"o":"m 117 963 l 242 963 l 242 0 l 117 0 l 117 963 m 32 1196 l 328 1196 l 328 1101 l 32 1101 l 32 1196 z "},"ī":{"ha":336,"x_min":21,"x_max":317,"o":"m 228 0 l 108 0 l 108 729 l 228 729 l 228 0 m 21 988 l 317 988 l 317 893 l 21 893 l 21 988 z "},"Ĭ":{"ha":358,"x_min":21,"x_max":340,"o":"m 117 963 l 242 963 l 242 0 l 117 0 l 117 963 m 181 1063 q 62 1113 103 1063 q 21 1256 21 1164 l 101 1256 q 120 1176 104 1210 q 181 1143 136 1143 q 241 1176 225 1143 q 260 1256 257 1210 l 340 1256 q 299 1113 340 1164 q 181 1063 257 1063 z "},"ĭ":{"ha":336,"x_min":10,"x_max":329,"o":"m 228 0 l 108 0 l 108 729 l 228 729 l 228 0 m 169 854 q 51 905 92 854 q 10 1047 10 956 l 90 1047 q 109 968 93 1001 q 169 935 125 935 q 230 968 214 935 q 249 1047 246 1001 l 329 1047 q 288 905 329 956 q 169 854 246 854 z "},"Į":{"ha":358,"x_min":19,"x_max":244,"o":"m 244 -244 q 158 -260 206 -260 q 58 -230 97 -260 q 19 -147 19 -200 q 44 -60 19 -101 q 117 15 69 -19 l 117 963 l 242 963 l 242 0 q 158 -58 188 -29 q 128 -115 128 -86 q 145 -155 128 -143 q 188 -167 163 -167 q 238 -157 214 -167 l 244 -244 z "},"į":{"ha":336,"x_min":6,"x_max":246,"o":"m 231 -244 q 144 -260 192 -260 q 44 -230 83 -260 q 6 -147 6 -200 q 33 -58 6 -97 q 108 15 61 -19 l 108 729 l 228 729 l 228 0 q 144 -58 174 -29 q 114 -115 114 -86 q 131 -155 114 -143 q 174 -167 149 -167 q 224 -157 200 -167 l 231 -244 m 168 858 q 113 880 136 858 q 90 938 90 901 q 113 995 90 974 q 168 1017 136 1017 q 223 995 200 1017 q 246 938 246 974 q 223 880 246 901 q 168 858 200 858 z "},"İ":{"ha":358,"x_min":103,"x_max":258,"o":"m 117 963 l 242 963 l 242 0 l 117 0 l 117 963 m 181 1067 q 126 1088 149 1067 q 103 1146 103 1110 q 126 1203 103 1182 q 181 1225 149 1225 q 235 1203 213 1225 q 258 1146 258 1182 q 235 1088 258 1110 q 181 1067 213 1067 z "},"ı":{"ha":336,"x_min":108,"x_max":228,"o":"m 228 0 l 108 0 l 108 729 l 228 729 l 228 0 z "},"Ĳ":{"ha":907,"x_min":117,"x_max":797,"o":"m 117 963 l 242 963 l 242 0 l 117 0 l 117 963 m 797 256 q 784 141 797 192 q 742 54 771 90 q 667 -1 714 18 q 554 -21 621 -21 q 453 -5 501 -21 q 365 40 404 11 l 407 139 q 470 105 431 121 q 547 89 510 89 q 599 96 576 89 q 639 122 622 103 q 664 173 656 140 q 672 256 672 206 l 672 963 l 797 963 l 797 256 z "},"ĳ":{"ha":672,"x_min":90,"x_max":582,"o":"m 228 0 l 108 0 l 108 729 l 228 729 l 228 0 m 168 858 q 113 880 136 858 q 90 938 90 901 q 113 995 90 974 q 168 1017 136 1017 q 223 995 200 1017 q 246 938 246 974 q 223 880 246 901 q 168 858 200 858 m 564 -39 q 511 -210 564 -158 q 371 -261 458 -261 q 289 -247 325 -261 l 306 -146 q 331 -151 318 -149 q 358 -153 343 -153 q 394 -148 378 -153 q 421 -129 410 -143 q 438 -92 432 -115 q 444 -32 444 -68 l 444 729 l 564 729 l 564 -39 m 504 858 q 449 880 472 858 q 426 938 426 901 q 449 995 426 974 q 504 1017 472 1017 q 559 995 536 1017 q 582 938 582 974 q 559 880 582 901 q 504 858 536 858 z "},"Ĵ":{"ha":549,"x_min":7,"x_max":535,"o":"m 439 256 q 426 141 439 192 q 384 54 413 90 q 309 -1 356 18 q 196 -21 263 -21 q 94 -5 143 -21 q 7 40 46 11 l 49 139 q 112 105 72 121 q 189 89 151 89 q 241 96 218 89 q 281 122 264 103 q 306 173 297 140 q 314 256 314 206 l 314 963 l 439 963 l 439 256 m 274 1015 l 215 1064 l 375 1275 l 535 1064 l 476 1015 l 375 1133 l 274 1015 z "},"ĵ":{"ha":336,"x_min":-47,"x_max":328,"o":"m 228 -36 q 175 -207 228 -156 q 35 -258 122 -258 q -47 -244 -11 -258 l -31 -143 q -6 -148 -18 -146 q 22 -150 7 -150 q 58 -145 42 -150 q 85 -126 74 -140 q 102 -89 96 -112 q 108 -29 108 -65 l 108 729 l 228 729 l 228 -36 m 67 807 l 8 856 l 168 1067 l 328 856 l 269 807 l 168 925 l 67 807 z "},"Ķ":{"ha":715,"x_min":117,"x_max":701,"o":"m 667 963 q 598 858 636 915 q 519 741 560 801 q 438 622 479 681 q 360 514 397 564 q 450 409 401 472 q 546 276 499 346 q 635 133 593 206 q 701 0 676 61 l 561 0 q 494 131 532 64 q 413 259 456 197 q 327 374 371 321 q 242 463 283 426 l 242 0 l 117 0 l 117 963 l 242 963 l 242 538 q 318 642 278 583 q 398 758 358 700 q 472 870 438 817 q 531 963 507 924 l 667 963 m 333 -69 l 436 -69 q 438 -85 438 -76 q 438 -99 438 -94 q 396 -224 438 -186 q 293 -261 354 -261 q 265 -260 278 -261 q 246 -256 253 -258 l 246 -183 q 263 -185 251 -185 q 315 -164 297 -185 q 333 -87 333 -143 l 333 -69 z "},"ķ":{"ha":593,"x_min":108,"x_max":583,"o":"m 560 729 q 448 547 501 629 q 342 392 394 464 q 410 304 375 353 q 476 203 444 256 q 536 99 508 151 q 583 0 564 47 l 453 0 q 404 96 432 46 q 346 194 376 146 q 285 285 315 242 q 228 357 254 328 l 228 0 l 108 0 l 108 1057 l 228 1078 l 228 415 q 281 490 253 449 q 338 574 310 532 q 390 657 365 617 q 432 729 415 697 l 560 729 m 271 -69 l 374 -69 q 375 -85 375 -76 q 375 -99 375 -94 q 333 -224 375 -186 q 231 -261 292 -261 q 203 -260 215 -261 q 183 -256 190 -258 l 183 -183 q 200 -185 189 -185 q 253 -164 235 -185 q 271 -87 271 -143 l 271 -69 z "},"ĸ":{"ha":593,"x_min":108,"x_max":583,"o":"m 560 729 q 448 547 501 629 q 342 392 394 464 q 410 304 375 353 q 476 203 444 256 q 536 99 508 151 q 583 0 564 47 l 453 0 q 404 96 432 46 q 346 194 376 146 q 285 285 315 242 q 228 357 254 328 l 228 0 l 108 0 l 108 729 l 228 729 l 228 415 q 281 490 253 449 q 338 574 310 532 q 390 657 365 617 q 432 729 415 697 l 560 729 z "},"Ĺ":{"ha":579,"x_min":94,"x_max":546,"o":"m 546 107 l 546 0 l 117 0 l 117 963 l 242 963 l 242 107 l 546 107 m 343 1217 l 154 1017 l 94 1068 l 258 1289 l 343 1217 z "},"ĺ":{"ha":338,"x_min":57,"x_max":313,"o":"m 297 -14 q 150 37 194 -11 q 106 189 106 85 l 106 1057 l 225 1078 l 225 186 q 244 116 225 138 q 313 86 264 94 l 297 -14 m 304 1221 l 86 1142 l 57 1211 l 267 1319 l 304 1221 z "},"Ļ":{"ha":579,"x_min":117,"x_max":546,"o":"m 546 107 l 546 0 l 117 0 l 117 963 l 242 963 l 242 107 l 546 107 m 289 -69 l 392 -69 q 393 -85 393 -76 q 393 -99 393 -94 q 351 -224 393 -186 q 249 -261 310 -261 q 221 -260 233 -261 q 201 -256 208 -258 l 201 -183 q 218 -185 207 -185 q 271 -164 253 -185 q 289 -87 289 -143 l 289 -69 z "},"ļ":{"ha":338,"x_min":57,"x_max":313,"o":"m 297 -14 q 150 37 194 -11 q 106 189 106 85 l 106 1057 l 225 1078 l 225 186 q 244 116 225 138 q 313 86 264 94 l 297 -14 m 144 -69 l 247 -69 q 249 -85 249 -76 q 249 -99 249 -94 q 207 -224 249 -186 q 104 -261 165 -261 q 76 -260 89 -261 q 57 -256 64 -258 l 57 -183 q 74 -185 63 -185 q 126 -164 108 -185 q 144 -87 144 -143 l 144 -69 z "},"Ľ":{"ha":579,"x_min":117,"x_max":546,"o":"m 546 107 l 546 0 l 117 0 l 117 963 l 242 963 l 242 107 l 546 107 m 457 964 l 419 654 l 340 654 l 340 964 l 457 964 z "},"ľ":{"ha":376,"x_min":106,"x_max":418,"o":"m 297 -14 q 150 37 194 -11 q 106 189 106 85 l 106 1057 l 225 1078 l 225 186 q 244 116 225 138 q 313 86 264 94 l 297 -14 m 418 1078 l 381 768 l 301 768 l 301 1078 l 418 1078 z "},"Ŀ":{"ha":579,"x_min":117,"x_max":546,"o":"m 546 107 l 546 0 l 117 0 l 117 963 l 242 963 l 242 107 l 546 107 m 517 500 q 494 443 517 468 q 433 418 471 418 q 374 443 396 418 q 351 500 351 468 q 374 558 351 533 q 433 583 396 583 q 494 558 471 583 q 517 500 517 533 z "},"ŀ":{"ha":460,"x_min":106,"x_max":474,"o":"m 297 -14 q 150 37 194 -11 q 106 189 106 85 l 106 1057 l 225 1078 l 225 186 q 244 116 225 138 q 313 86 264 94 l 297 -14 m 474 506 q 451 449 474 474 q 390 424 428 424 q 331 449 353 424 q 308 506 308 474 q 331 564 308 539 q 390 589 353 589 q 451 564 428 589 q 474 506 474 539 z "},"Ł":{"ha":579,"x_min":15,"x_max":560,"o":"m 15 431 l 131 500 l 131 963 l 256 963 l 256 575 l 394 658 l 442 581 l 256 468 l 256 107 l 560 107 l 560 0 l 131 0 l 131 393 l 63 353 l 15 431 z "},"ł":{"ha":338,"x_min":-11,"x_max":349,"o":"m -11 515 l 106 581 l 106 1057 l 225 1078 l 225 649 l 303 693 l 349 611 l 225 542 l 225 186 q 244 116 225 138 q 313 86 264 94 l 297 -14 q 150 37 194 -11 q 106 189 106 85 l 106 474 l 35 435 l -11 515 z "},"Ń":{"ha":807,"x_min":117,"x_max":690,"o":"m 589 0 q 513 177 556 82 q 424 369 471 272 q 329 560 378 465 q 233 738 281 656 l 233 0 l 117 0 l 117 963 l 221 963 q 323 786 274 876 q 417 608 372 696 q 501 434 461 519 q 574 272 540 349 l 574 963 l 690 963 l 690 0 l 589 0 m 583 1217 l 394 1017 l 335 1068 l 499 1289 l 583 1217 z "},"ń":{"ha":669,"x_min":108,"x_max":569,"o":"m 108 708 q 219 734 160 724 q 329 744 279 744 q 428 730 383 744 q 503 681 472 715 q 552 587 535 646 q 569 440 569 528 l 569 0 l 450 0 l 450 431 q 422 589 450 539 q 318 639 394 639 q 228 625 278 639 l 228 0 l 108 0 l 108 708 m 504 1008 l 315 808 l 256 860 l 419 1081 l 504 1008 z "},"Ņ":{"ha":807,"x_min":117,"x_max":690,"o":"m 589 0 q 513 177 556 82 q 424 369 471 272 q 329 560 378 465 q 233 738 281 656 l 233 0 l 117 0 l 117 963 l 221 963 q 323 786 274 876 q 417 608 372 696 q 501 434 461 519 q 574 272 540 349 l 574 963 l 690 963 l 690 0 l 589 0 m 365 -69 l 468 -69 q 469 -85 469 -76 q 469 -99 469 -94 q 428 -224 469 -186 q 325 -261 386 -261 q 297 -260 310 -261 q 278 -256 285 -258 l 278 -183 q 294 -185 283 -185 q 347 -164 329 -185 q 365 -87 365 -143 l 365 -69 z "},"ņ":{"ha":669,"x_min":108,"x_max":569,"o":"m 108 708 q 219 734 160 724 q 329 744 279 744 q 428 730 383 744 q 503 681 472 715 q 552 587 535 646 q 569 440 569 528 l 569 0 l 450 0 l 450 431 q 422 589 450 539 q 318 639 394 639 q 228 625 278 639 l 228 0 l 108 0 l 108 708 m 294 -69 l 397 -69 q 399 -85 399 -76 q 399 -99 399 -94 q 357 -224 399 -186 q 254 -261 315 -261 q 226 -260 239 -261 q 207 -256 214 -258 l 207 -183 q 224 -185 213 -185 q 276 -164 258 -185 q 294 -87 294 -143 l 294 -69 z "},"Ň":{"ha":807,"x_min":117,"x_max":690,"o":"m 589 0 q 513 177 556 82 q 424 369 471 272 q 329 560 378 465 q 233 738 281 656 l 233 0 l 117 0 l 117 963 l 221 963 q 323 786 274 876 q 417 608 372 696 q 501 434 461 519 q 574 272 540 349 l 574 963 l 690 963 l 690 0 l 589 0 m 506 1275 l 564 1226 l 404 1015 l 244 1226 l 303 1275 l 404 1157 l 506 1275 z "},"ň":{"ha":669,"x_min":108,"x_max":569,"o":"m 108 708 q 219 734 160 724 q 329 744 279 744 q 428 730 383 744 q 503 681 472 715 q 552 587 535 646 q 569 440 569 528 l 569 0 l 450 0 l 450 431 q 422 589 450 539 q 318 639 394 639 q 228 625 278 639 l 228 0 l 108 0 l 108 708 m 436 1067 l 494 1018 l 335 807 l 175 1018 l 233 1067 l 335 949 l 436 1067 z "},"ŉ":{"ha":669,"x_min":28,"x_max":569,"o":"m 108 708 q 219 734 160 724 q 329 744 279 744 q 428 730 383 744 q 503 681 472 715 q 552 587 535 646 q 569 440 569 528 l 569 0 l 450 0 l 450 431 q 422 589 450 539 q 318 639 394 639 q 228 625 278 639 l 228 0 l 108 0 l 108 708 m 203 1085 q 204 1067 204 1075 q 204 1051 204 1060 q 179 919 204 982 q 111 796 154 856 l 28 821 q 74 931 63 875 q 85 1035 85 986 q 84 1061 85 1049 q 82 1085 83 1074 l 203 1085 z "},"Ŋ":{"ha":807,"x_min":117,"x_max":690,"o":"m 690 -42 q 644 -212 690 -161 q 514 -264 597 -264 q 473 -260 493 -264 q 435 -250 453 -257 l 451 -149 q 476 -153 464 -151 q 500 -156 488 -156 q 532 -151 518 -156 q 555 -132 546 -146 q 569 -94 564 -118 q 574 -35 574 -71 l 574 38 q 499 208 540 118 q 414 390 458 299 q 324 571 369 482 q 233 738 278 660 l 233 0 l 117 0 l 117 963 l 221 963 q 323 786 274 876 q 417 608 372 696 q 501 434 461 519 q 574 272 540 349 l 574 963 l 690 963 l 690 -42 z "},"ŋ":{"ha":669,"x_min":108,"x_max":569,"o":"m 108 708 q 219 734 160 724 q 329 744 279 744 q 428 730 383 744 q 503 681 472 715 q 552 587 535 646 q 569 440 569 528 l 569 -42 q 519 -212 569 -161 q 386 -264 469 -264 q 308 -250 342 -264 l 325 -156 q 372 -162 350 -162 q 404 -158 390 -162 q 428 -139 418 -153 q 444 -101 439 -125 q 450 -42 450 -78 l 450 431 q 422 589 450 539 q 318 639 394 639 q 228 625 278 639 l 228 0 l 108 0 l 108 708 z "},"Ō":{"ha":840,"x_min":78,"x_max":763,"o":"m 763 481 q 742 276 763 368 q 680 117 722 183 q 573 15 638 51 q 421 -21 508 -21 q 269 15 333 -21 q 162 117 204 51 q 99 276 119 183 q 78 481 78 368 q 99 686 78 593 q 162 845 119 779 q 269 948 204 911 q 421 985 333 985 q 573 948 508 985 q 680 845 638 911 q 742 686 722 779 q 763 481 763 593 m 629 481 q 618 640 629 568 q 582 765 607 713 q 517 846 557 817 q 421 875 478 875 q 324 846 364 875 q 260 765 285 817 q 223 640 235 713 q 211 481 211 568 q 223 321 211 393 q 260 197 235 249 q 324 117 285 146 q 421 89 364 89 q 517 117 478 89 q 582 197 557 146 q 618 321 607 249 q 629 481 629 393 m 271 1196 l 567 1196 l 567 1101 l 271 1101 l 271 1196 z "},"ō":{"ha":643,"x_min":67,"x_max":576,"o":"m 576 364 q 561 208 576 278 q 515 88 546 138 q 435 10 483 38 q 322 -18 388 -18 q 208 10 257 -18 q 128 88 160 38 q 82 208 97 138 q 67 364 67 278 q 82 519 67 449 q 128 641 97 590 q 208 719 160 692 q 322 747 257 747 q 435 719 388 747 q 515 641 483 692 q 561 519 546 590 q 576 364 576 449 m 451 364 q 444 476 451 425 q 422 563 438 526 q 382 620 407 600 q 322 640 357 640 q 262 620 286 640 q 222 563 238 600 q 199 476 206 526 q 192 364 192 425 q 199 252 192 303 q 222 165 206 201 q 262 109 238 129 q 322 89 286 89 q 382 109 357 89 q 422 165 407 129 q 444 252 438 201 q 451 364 451 303 m 172 988 l 468 988 l 468 893 l 172 893 l 172 988 z "},"Ŏ":{"ha":840,"x_min":78,"x_max":763,"o":"m 763 481 q 742 276 763 368 q 680 117 722 183 q 573 15 638 51 q 421 -21 508 -21 q 269 15 333 -21 q 162 117 204 51 q 99 276 119 183 q 78 481 78 368 q 99 686 78 593 q 162 845 119 779 q 269 948 204 911 q 421 985 333 985 q 573 948 508 985 q 680 845 638 911 q 742 686 722 779 q 763 481 763 593 m 629 481 q 618 640 629 568 q 582 765 607 713 q 517 846 557 817 q 421 875 478 875 q 324 846 364 875 q 260 765 285 817 q 223 640 235 713 q 211 481 211 568 q 223 321 211 393 q 260 197 235 249 q 324 117 285 146 q 421 89 364 89 q 517 117 478 89 q 582 197 557 146 q 618 321 607 249 q 629 481 629 393 m 419 1063 q 301 1113 342 1063 q 260 1256 260 1164 l 340 1256 q 359 1176 343 1210 q 419 1143 375 1143 q 480 1176 464 1143 q 499 1256 496 1210 l 579 1256 q 538 1113 579 1164 q 419 1063 496 1063 z "},"ŏ":{"ha":643,"x_min":67,"x_max":576,"o":"m 576 364 q 561 208 576 278 q 515 88 546 138 q 435 10 483 38 q 322 -18 388 -18 q 208 10 257 -18 q 128 88 160 38 q 82 208 97 138 q 67 364 67 278 q 82 519 67 449 q 128 641 97 590 q 208 719 160 692 q 322 747 257 747 q 435 719 388 747 q 515 641 483 692 q 561 519 546 590 q 576 364 576 449 m 451 364 q 444 476 451 425 q 422 563 438 526 q 382 620 407 600 q 322 640 357 640 q 262 620 286 640 q 222 563 238 600 q 199 476 206 526 q 192 364 192 425 q 199 252 192 303 q 222 165 206 201 q 262 109 238 129 q 322 89 286 89 q 382 109 357 89 q 422 165 407 129 q 444 252 438 201 q 451 364 451 303 m 321 854 q 202 905 243 854 q 161 1047 161 956 l 242 1047 q 260 968 244 1001 q 321 935 276 935 q 381 968 365 935 q 400 1047 397 1001 l 481 1047 q 439 905 481 956 q 321 854 397 854 z "},"Ő":{"ha":840,"x_min":78,"x_max":763,"o":"m 763 481 q 742 276 763 368 q 680 117 722 183 q 573 15 638 51 q 421 -21 508 -21 q 269 15 333 -21 q 162 117 204 51 q 99 276 119 183 q 78 481 78 368 q 99 686 78 593 q 162 845 119 779 q 269 948 204 911 q 421 985 333 985 q 573 948 508 985 q 680 845 638 911 q 742 686 722 779 q 763 481 763 593 m 629 481 q 618 640 629 568 q 582 765 607 713 q 517 846 557 817 q 421 875 478 875 q 324 846 364 875 q 260 765 285 817 q 223 640 235 713 q 211 481 211 568 q 223 321 211 393 q 260 197 235 249 q 324 117 285 146 q 421 89 364 89 q 517 117 478 89 q 582 197 557 146 q 618 321 607 249 q 629 481 629 393 m 499 1240 l 343 1022 l 279 1061 l 413 1297 l 499 1240 m 689 1240 l 533 1022 l 469 1061 l 603 1297 l 689 1240 z "},"ő":{"ha":643,"x_min":67,"x_max":576,"o":"m 576 364 q 561 208 576 278 q 515 88 546 138 q 435 10 483 38 q 322 -18 388 -18 q 208 10 257 -18 q 128 88 160 38 q 82 208 97 138 q 67 364 67 278 q 82 519 67 449 q 128 641 97 590 q 208 719 160 692 q 322 747 257 747 q 435 719 388 747 q 515 641 483 692 q 561 519 546 590 q 576 364 576 449 m 451 364 q 444 476 451 425 q 422 563 438 526 q 382 620 407 600 q 322 640 357 640 q 262 620 286 640 q 222 563 238 600 q 199 476 206 526 q 192 364 192 425 q 199 252 192 303 q 222 165 206 201 q 262 109 238 129 q 322 89 286 89 q 382 109 357 89 q 422 165 407 129 q 444 252 438 201 q 451 364 451 303 m 378 1032 l 222 814 l 158 853 l 292 1089 l 378 1032 m 568 1032 l 413 814 l 349 853 l 482 1089 l 568 1032 z "},"Ŕ":{"ha":714,"x_min":117,"x_max":672,"o":"m 117 949 q 304 972 214 972 q 435 956 376 972 q 535 903 493 939 q 599 810 576 867 q 622 672 622 753 q 584 510 622 572 q 481 417 546 449 q 523 341 497 389 q 576 235 549 293 q 628 117 603 178 q 672 0 654 56 l 547 0 q 509 94 532 42 q 461 199 486 147 q 411 299 436 251 q 367 381 386 347 q 321 376 344 378 q 274 375 297 375 l 239 375 l 239 0 l 117 0 l 117 949 m 239 478 l 292 478 q 439 522 388 478 q 490 672 490 565 q 477 763 490 726 q 440 822 464 800 q 381 853 415 843 q 306 863 347 863 q 239 858 269 863 l 239 478 m 483 1217 l 294 1017 l 235 1068 l 399 1289 l 483 1217 z "},"ŕ":{"ha":456,"x_min":108,"x_max":446,"o":"m 424 621 q 324 640 379 640 q 228 622 272 640 l 228 0 l 108 0 l 108 697 q 201 730 149 717 q 315 743 253 743 q 382 739 349 743 q 444 724 415 735 l 424 621 m 446 1008 l 257 808 l 197 860 l 361 1081 l 446 1008 z "},"Ŗ":{"ha":714,"x_min":117,"x_max":672,"o":"m 117 949 q 304 972 214 972 q 435 956 376 972 q 535 903 493 939 q 599 810 576 867 q 622 672 622 753 q 584 510 622 572 q 481 417 546 449 q 523 341 497 389 q 576 235 549 293 q 628 117 603 178 q 672 0 654 56 l 547 0 q 509 94 532 42 q 461 199 486 147 q 411 299 436 251 q 367 381 386 347 q 321 376 344 378 q 274 375 297 375 l 239 375 l 239 0 l 117 0 l 117 949 m 239 478 l 292 478 q 439 522 388 478 q 490 672 490 565 q 477 763 490 726 q 440 822 464 800 q 381 853 415 843 q 306 863 347 863 q 239 858 269 863 l 239 478 m 331 -69 l 433 -69 q 435 -85 435 -76 q 435 -99 435 -94 q 393 -224 435 -186 q 290 -261 351 -261 q 263 -260 275 -261 q 243 -256 250 -258 l 243 -183 q 260 -185 249 -185 q 313 -164 294 -185 q 331 -87 331 -143 l 331 -69 z "},"ŗ":{"ha":456,"x_min":26,"x_max":444,"o":"m 424 621 q 324 640 379 640 q 228 622 272 640 l 228 0 l 108 0 l 108 697 q 201 730 149 717 q 315 743 253 743 q 382 739 349 743 q 444 724 415 735 l 424 621 m 114 -69 l 217 -69 q 218 -85 218 -76 q 218 -99 218 -94 q 176 -224 218 -186 q 74 -261 135 -261 q 46 -260 58 -261 q 26 -256 33 -258 l 26 -183 q 43 -185 32 -185 q 96 -164 78 -185 q 114 -87 114 -143 l 114 -69 z "},"Ř":{"ha":714,"x_min":117,"x_max":672,"o":"m 117 949 q 304 972 214 972 q 435 956 376 972 q 535 903 493 939 q 599 810 576 867 q 622 672 622 753 q 584 510 622 572 q 481 417 546 449 q 523 341 497 389 q 576 235 549 293 q 628 117 603 178 q 672 0 654 56 l 547 0 q 509 94 532 42 q 461 199 486 147 q 411 299 436 251 q 367 381 386 347 q 321 376 344 378 q 274 375 297 375 l 239 375 l 239 0 l 117 0 l 117 949 m 239 478 l 292 478 q 439 522 388 478 q 490 672 490 565 q 477 763 490 726 q 440 822 464 800 q 381 853 415 843 q 306 863 347 863 q 239 858 269 863 l 239 478 m 443 1275 l 501 1226 l 342 1015 l 182 1226 l 240 1275 l 342 1157 l 443 1275 z "},"ř":{"ha":456,"x_min":108,"x_max":444,"o":"m 424 621 q 324 640 379 640 q 228 622 272 640 l 228 0 l 108 0 l 108 697 q 201 730 149 717 q 315 743 253 743 q 382 739 349 743 q 444 724 415 735 l 424 621 m 378 1067 l 436 1018 l 276 807 l 117 1018 l 175 1067 l 276 949 l 378 1067 z "},"Ś":{"ha":556,"x_min":35,"x_max":524,"o":"m 236 86 q 352 128 311 86 q 393 240 393 169 q 381 307 393 278 q 348 360 368 336 q 301 403 328 383 q 247 442 275 422 q 181 489 215 464 q 117 547 146 514 q 71 625 89 581 q 53 729 53 669 q 73 835 53 788 q 128 915 93 882 q 213 967 164 949 q 319 985 263 985 q 422 971 375 985 q 501 938 469 957 l 463 839 q 399 869 433 858 q 328 879 365 879 q 219 842 260 879 q 178 735 178 806 q 191 667 178 696 q 226 614 204 638 q 276 571 247 590 q 336 531 304 551 q 401 485 368 510 q 462 427 435 460 q 506 351 489 394 q 524 247 524 307 q 507 144 524 193 q 455 59 490 96 q 366 1 419 22 q 240 -21 313 -21 q 124 -6 174 -21 q 35 35 74 10 l 74 135 q 148 99 110 113 q 236 86 186 86 m 469 1217 l 281 1017 l 221 1068 l 385 1289 l 469 1217 z "},"ś":{"ha":474,"x_min":50,"x_max":438,"o":"m 210 85 q 290 115 263 85 q 317 193 317 144 q 306 245 317 224 q 276 283 294 267 q 235 313 258 300 q 188 342 211 326 q 142 374 164 356 q 102 417 119 393 q 74 473 85 442 q 64 546 64 504 q 120 692 64 636 q 272 747 176 747 q 349 737 313 747 q 408 714 385 726 l 382 618 q 332 639 357 632 q 278 646 307 646 q 207 620 233 646 q 181 546 181 594 q 190 498 181 518 q 216 462 200 478 q 252 432 232 446 q 294 406 272 418 q 347 372 321 390 q 392 330 372 354 q 425 273 413 306 q 438 194 438 240 q 381 40 438 99 q 217 -18 325 -18 q 117 -3 161 -18 q 50 25 72 13 l 75 124 q 131 99 96 113 q 210 85 167 85 m 421 1008 l 232 808 l 172 860 l 336 1081 l 421 1008 z "},"Ŝ":{"ha":556,"x_min":35,"x_max":524,"o":"m 236 86 q 352 128 311 86 q 393 240 393 169 q 381 307 393 278 q 348 360 368 336 q 301 403 328 383 q 247 442 275 422 q 181 489 215 464 q 117 547 146 514 q 71 625 89 581 q 53 729 53 669 q 73 835 53 788 q 128 915 93 882 q 213 967 164 949 q 319 985 263 985 q 422 971 375 985 q 501 938 469 957 l 463 839 q 399 869 433 858 q 328 879 365 879 q 219 842 260 879 q 178 735 178 806 q 191 667 178 696 q 226 614 204 638 q 276 571 247 590 q 336 531 304 551 q 401 485 368 510 q 462 427 435 460 q 506 351 489 394 q 524 247 524 307 q 507 144 524 193 q 455 59 490 96 q 366 1 419 22 q 240 -21 313 -21 q 124 -6 174 -21 q 35 35 74 10 l 74 135 q 148 99 110 113 q 236 86 186 86 m 190 1015 l 132 1064 l 292 1275 l 451 1064 l 393 1015 l 292 1133 l 190 1015 z "},"ŝ":{"ha":474,"x_min":50,"x_max":438,"o":"m 210 85 q 290 115 263 85 q 317 193 317 144 q 306 245 317 224 q 276 283 294 267 q 235 313 258 300 q 188 342 211 326 q 142 374 164 356 q 102 417 119 393 q 74 473 85 442 q 64 546 64 504 q 120 692 64 636 q 272 747 176 747 q 349 737 313 747 q 408 714 385 726 l 382 618 q 332 639 357 632 q 278 646 307 646 q 207 620 233 646 q 181 546 181 594 q 190 498 181 518 q 216 462 200 478 q 252 432 232 446 q 294 406 272 418 q 347 372 321 390 q 392 330 372 354 q 425 273 413 306 q 438 194 438 240 q 381 40 438 99 q 217 -18 325 -18 q 117 -3 161 -18 q 50 25 72 13 l 75 124 q 131 99 96 113 q 210 85 167 85 m 156 807 l 97 856 l 257 1067 l 417 856 l 358 807 l 257 925 l 156 807 z "},"Ş":{"ha":556,"x_min":35,"x_max":524,"o":"m 236 86 q 352 128 311 86 q 393 240 393 169 q 381 307 393 278 q 348 360 368 336 q 301 403 328 383 q 247 442 275 422 q 181 489 215 464 q 117 547 146 514 q 71 625 89 581 q 53 729 53 669 q 73 835 53 788 q 128 915 93 882 q 213 967 164 949 q 319 985 263 985 q 422 971 375 985 q 501 938 469 957 l 463 839 q 399 869 433 858 q 328 879 365 879 q 219 842 260 879 q 178 735 178 806 q 191 667 178 696 q 226 614 204 638 q 276 571 247 590 q 336 531 304 551 q 401 485 368 510 q 462 427 435 460 q 506 351 489 394 q 524 247 524 307 q 510 156 524 199 q 470 77 497 113 q 402 17 443 42 q 306 -15 361 -7 q 295 -36 300 -26 q 288 -56 290 -46 q 344 -95 328 -71 q 361 -151 361 -119 q 319 -233 361 -204 q 217 -262 278 -262 q 171 -259 196 -262 q 122 -247 146 -256 l 136 -171 q 165 -177 150 -174 q 197 -181 181 -181 q 240 -173 222 -181 q 258 -143 258 -165 q 243 -117 258 -128 q 186 -97 228 -106 q 200 -59 192 -79 q 217 -19 208 -39 q 114 -3 158 -17 q 35 35 69 11 l 74 135 q 148 99 110 113 q 236 86 186 86 z "},"ş":{"ha":474,"x_min":50,"x_max":438,"o":"m 210 85 q 290 115 263 85 q 317 193 317 144 q 306 245 317 224 q 276 283 294 267 q 235 313 258 300 q 188 342 211 326 q 142 374 164 356 q 102 417 119 393 q 74 473 85 442 q 64 546 64 504 q 120 692 64 636 q 272 747 176 747 q 349 737 313 747 q 408 714 385 726 l 382 618 q 332 639 357 632 q 278 646 307 646 q 207 620 233 646 q 181 546 181 594 q 190 498 181 518 q 216 462 200 478 q 252 432 232 446 q 294 406 272 418 q 347 372 321 390 q 392 330 372 354 q 425 273 413 306 q 438 194 438 240 q 400 62 438 115 q 288 -10 363 8 q 276 -33 281 -21 q 267 -56 271 -44 q 324 -95 307 -71 q 340 -151 340 -119 q 299 -233 340 -204 q 196 -262 257 -262 q 150 -259 175 -262 q 101 -247 125 -256 l 115 -171 q 144 -177 129 -174 q 176 -181 160 -181 q 219 -173 201 -181 q 238 -143 238 -165 q 222 -117 238 -128 q 165 -97 207 -106 q 179 -57 171 -78 q 197 -17 188 -36 q 109 0 149 -14 q 50 25 69 14 l 75 124 q 131 99 96 113 q 210 85 167 85 z "},"Ţ":{"ha":592,"x_min":19,"x_max":572,"o":"m 572 963 l 572 856 l 358 856 l 358 0 l 343 0 q 330 -28 336 -14 q 318 -56 324 -43 q 375 -95 358 -71 q 392 -151 392 -119 q 350 -233 392 -204 q 247 -262 308 -262 q 201 -259 226 -262 q 153 -247 176 -256 l 167 -171 q 196 -177 181 -174 q 228 -181 211 -181 q 271 -173 253 -181 q 289 -143 289 -165 q 274 -117 289 -128 q 217 -97 258 -106 q 235 -47 224 -74 q 257 0 246 -21 l 233 0 l 233 856 l 19 856 l 19 963 l 572 963 z "},"ţ":{"ha":446,"x_min":100,"x_max":425,"o":"m 219 729 l 403 729 l 403 626 l 219 626 l 219 225 q 247 120 219 150 q 319 90 274 90 q 365 97 343 90 q 401 114 386 104 l 425 18 q 310 -15 371 -12 q 299 -36 304 -26 q 292 -56 294 -46 q 349 -95 332 -71 q 365 -151 365 -119 q 324 -233 365 -204 q 221 -262 282 -262 q 175 -259 200 -262 q 126 -247 150 -256 l 140 -171 q 169 -177 154 -174 q 201 -181 185 -181 q 244 -173 226 -181 q 263 -143 263 -165 q 247 -117 263 -128 q 190 -97 232 -106 q 207 -51 197 -75 q 228 -6 217 -26 q 131 69 163 13 q 100 233 100 126 l 100 925 l 219 946 l 219 729 z "},"Ť":{"ha":592,"x_min":19,"x_max":572,"o":"m 572 963 l 572 856 l 358 856 l 358 0 l 233 0 l 233 856 l 19 856 l 19 963 l 572 963 m 397 1275 l 456 1226 l 296 1015 l 136 1226 l 194 1275 l 296 1157 l 397 1275 z "},"ť":{"ha":446,"x_min":100,"x_max":429,"o":"m 219 729 l 403 729 l 403 626 l 219 626 l 219 225 q 247 120 219 150 q 319 90 274 90 q 365 97 343 90 q 401 114 386 104 l 425 18 q 304 -15 368 -15 q 151 42 201 -15 q 100 233 100 100 l 100 925 l 219 946 l 219 729 m 429 1078 l 392 808 l 313 808 l 313 1078 l 429 1078 z "},"Ŧ":{"ha":592,"x_min":19,"x_max":572,"o":"m 110 533 l 233 533 l 233 856 l 19 856 l 19 963 l 572 963 l 572 856 l 358 856 l 358 533 l 482 533 l 482 442 l 358 442 l 358 0 l 233 0 l 233 442 l 110 442 l 110 533 z "},"ŧ":{"ha":488,"x_min":100,"x_max":425,"o":"m 219 729 l 403 729 l 403 626 l 219 626 l 219 425 l 403 425 l 403 333 l 219 333 l 219 225 q 247 120 219 150 q 319 90 274 90 q 365 97 343 90 q 401 114 386 104 l 425 18 q 304 -15 368 -15 q 151 42 201 -15 q 100 233 100 100 l 100 925 l 219 946 l 219 729 z "},"Ũ":{"ha":763,"x_min":108,"x_max":654,"o":"m 378 -21 q 176 56 243 -21 q 108 297 108 132 l 108 963 l 233 963 l 233 308 q 265 144 233 199 q 381 89 297 89 q 498 145 467 89 q 529 308 529 201 l 529 963 l 654 963 l 654 297 q 585 57 654 135 q 378 -21 515 -21 m 560 1210 q 520 1108 547 1143 q 453 1072 493 1072 q 409 1082 429 1072 q 372 1104 389 1092 q 341 1126 356 1117 q 313 1136 326 1136 q 291 1122 300 1136 q 274 1072 282 1108 l 204 1096 q 243 1198 215 1163 q 311 1233 271 1233 q 356 1224 336 1233 q 392 1201 375 1214 q 422 1179 408 1189 q 451 1169 436 1169 q 473 1183 464 1169 q 490 1233 482 1197 l 560 1210 z "},"ũ":{"ha":667,"x_min":99,"x_max":560,"o":"m 560 21 q 516 8 542 14 q 462 -3 490 1 q 405 -12 433 -8 q 353 -15 376 -15 q 249 -2 296 -15 q 168 44 201 11 q 117 135 135 78 q 99 281 99 193 l 99 729 l 218 729 l 218 285 q 251 134 218 178 q 350 90 283 90 q 394 92 372 90 q 440 101 417 94 l 440 729 l 560 729 l 560 21 m 513 1001 q 473 899 500 935 q 406 864 446 864 q 362 874 382 864 q 325 896 342 883 q 294 918 308 908 q 265 928 279 928 q 244 914 253 928 q 226 864 235 900 l 157 888 q 196 990 168 954 q 264 1025 224 1025 q 308 1015 289 1025 q 344 993 328 1006 q 375 971 361 981 q 404 961 389 961 q 426 975 417 961 q 443 1025 435 989 l 513 1001 z "},"Ū":{"ha":763,"x_min":108,"x_max":654,"o":"m 378 -21 q 176 56 243 -21 q 108 297 108 132 l 108 963 l 233 963 l 233 308 q 265 144 233 199 q 381 89 297 89 q 498 145 467 89 q 529 308 529 201 l 529 963 l 654 963 l 654 297 q 585 57 654 135 q 378 -21 515 -21 m 233 1196 l 529 1196 l 529 1101 l 233 1101 l 233 1196 z "},"ū":{"ha":667,"x_min":99,"x_max":560,"o":"m 560 21 q 516 8 542 14 q 462 -3 490 1 q 405 -12 433 -8 q 353 -15 376 -15 q 249 -2 296 -15 q 168 44 201 11 q 117 135 135 78 q 99 281 99 193 l 99 729 l 218 729 l 218 285 q 251 134 218 178 q 350 90 283 90 q 394 92 372 90 q 440 101 417 94 l 440 729 l 560 729 l 560 21 m 186 988 l 482 988 l 482 893 l 186 893 l 186 988 z "},"Ŭ":{"ha":763,"x_min":108,"x_max":654,"o":"m 378 -21 q 176 56 243 -21 q 108 297 108 132 l 108 963 l 233 963 l 233 308 q 265 144 233 199 q 381 89 297 89 q 498 145 467 89 q 529 308 529 201 l 529 963 l 654 963 l 654 297 q 585 57 654 135 q 378 -21 515 -21 m 382 1063 q 263 1113 304 1063 q 222 1256 222 1164 l 303 1256 q 322 1176 306 1210 q 382 1143 338 1143 q 442 1176 426 1143 q 461 1256 458 1210 l 542 1256 q 500 1113 542 1164 q 382 1063 458 1063 z "},"ŭ":{"ha":667,"x_min":99,"x_max":560,"o":"m 560 21 q 516 8 542 14 q 462 -3 490 1 q 405 -12 433 -8 q 353 -15 376 -15 q 249 -2 296 -15 q 168 44 201 11 q 117 135 135 78 q 99 281 99 193 l 99 729 l 218 729 l 218 285 q 251 134 218 178 q 350 90 283 90 q 394 92 372 90 q 440 101 417 94 l 440 729 l 560 729 l 560 21 m 335 854 q 216 905 257 854 q 175 1047 175 956 l 256 1047 q 274 968 258 1001 q 335 935 290 935 q 395 968 379 935 q 414 1047 411 1001 l 494 1047 q 453 905 494 956 q 335 854 411 854 z "},"Ů":{"ha":763,"x_min":108,"x_max":654,"o":"m 378 -21 q 176 56 243 -21 q 108 297 108 132 l 108 963 l 233 963 l 233 308 q 265 144 233 199 q 381 89 297 89 q 498 145 467 89 q 529 308 529 201 l 529 963 l 654 963 l 654 297 q 585 57 654 135 q 378 -21 515 -21 m 500 1156 q 465 1069 500 1101 q 382 1038 431 1038 q 299 1069 333 1038 q 264 1156 264 1101 q 299 1242 264 1210 q 382 1274 333 1274 q 465 1242 431 1274 q 500 1156 500 1210 m 438 1156 q 422 1198 438 1183 q 382 1213 406 1213 q 342 1198 358 1213 q 326 1156 326 1183 q 342 1113 326 1128 q 382 1099 358 1099 q 422 1113 406 1099 q 438 1156 438 1128 z "},"ů":{"ha":667,"x_min":99,"x_max":560,"o":"m 560 21 q 516 8 542 14 q 462 -3 490 1 q 405 -12 433 -8 q 353 -15 376 -15 q 249 -2 296 -15 q 168 44 201 11 q 117 135 135 78 q 99 281 99 193 l 99 729 l 218 729 l 218 285 q 251 134 218 178 q 350 90 283 90 q 394 92 372 90 q 440 101 417 94 l 440 729 l 560 729 l 560 21 m 453 947 q 418 861 453 893 q 335 829 383 829 q 251 861 286 829 q 217 947 217 893 q 251 1033 217 1001 q 335 1065 286 1065 q 418 1033 383 1065 q 453 947 453 1001 m 390 947 q 374 990 390 975 q 335 1004 358 1004 q 295 990 311 1004 q 279 947 279 975 q 295 905 279 919 q 335 890 311 890 q 374 905 358 890 q 390 947 390 919 z "},"Ű":{"ha":763,"x_min":108,"x_max":654,"o":"m 378 -21 q 176 56 243 -21 q 108 297 108 132 l 108 963 l 233 963 l 233 308 q 265 144 233 199 q 381 89 297 89 q 498 145 467 89 q 529 308 529 201 l 529 963 l 654 963 l 654 297 q 585 57 654 135 q 378 -21 515 -21 m 451 1240 l 296 1022 l 232 1061 l 365 1297 l 451 1240 m 642 1240 l 486 1022 l 422 1061 l 556 1297 l 642 1240 z "},"ű":{"ha":667,"x_min":99,"x_max":581,"o":"m 560 21 q 516 8 542 14 q 462 -3 490 1 q 405 -12 433 -8 q 353 -15 376 -15 q 249 -2 296 -15 q 168 44 201 11 q 117 135 135 78 q 99 281 99 193 l 99 729 l 218 729 l 218 285 q 251 134 218 178 q 350 90 283 90 q 394 92 372 90 q 440 101 417 94 l 440 729 l 560 729 l 560 21 m 390 1032 l 235 814 l 171 853 l 304 1089 l 390 1032 m 581 1032 l 425 814 l 361 853 l 494 1089 l 581 1032 z "},"Ų":{"ha":763,"x_min":108,"x_max":654,"o":"m 549 -244 q 463 -260 510 -260 q 363 -228 401 -260 q 324 -139 324 -196 q 337 -76 324 -104 q 374 -21 350 -47 q 175 57 242 -19 q 108 297 108 133 l 108 963 l 233 963 l 233 308 q 265 144 233 199 q 381 89 297 89 q 498 145 467 89 q 529 308 529 201 l 529 963 l 654 963 l 654 297 q 644 185 654 232 q 615 106 633 139 q 571 47 596 72 q 515 0 546 22 q 487 -22 501 -10 q 460 -47 472 -33 q 440 -76 447 -60 q 432 -110 432 -92 q 449 -153 432 -140 q 492 -167 467 -167 q 542 -157 518 -167 l 549 -244 z "},"ų":{"ha":667,"x_min":99,"x_max":563,"o":"m 560 21 q 476 -44 506 -12 q 446 -110 446 -76 q 463 -153 446 -140 q 506 -167 481 -167 q 556 -157 532 -167 l 563 -244 q 476 -260 524 -260 q 376 -228 415 -260 q 338 -139 338 -196 q 353 -72 338 -103 q 397 -12 369 -40 q 375 -15 386 -14 q 353 -15 364 -15 q 249 -2 296 -15 q 168 44 201 11 q 117 135 135 78 q 99 281 99 193 l 99 729 l 218 729 l 218 285 q 251 134 218 178 q 350 90 283 90 q 394 92 372 90 q 440 101 417 94 l 440 729 l 560 729 l 560 21 z "},"Ŵ":{"ha":1050,"x_min":56,"x_max":994,"o":"m 589 849 q 628 672 607 765 q 672 488 649 579 q 718 310 694 396 q 763 153 742 224 q 794 326 779 231 q 824 525 810 421 q 851 740 839 629 q 872 963 864 851 l 994 963 q 923 449 963 683 q 831 0 883 214 l 704 0 q 659 151 683 68 q 611 324 635 235 q 565 506 588 414 q 525 683 543 597 q 485 506 507 597 q 439 324 463 414 q 391 151 415 235 q 346 0 367 68 l 219 0 q 127 449 167 214 q 56 963 88 683 l 182 963 q 203 741 190 851 q 230 526 215 631 q 260 326 244 421 q 292 153 275 231 q 336 310 313 224 q 383 488 360 396 q 426 672 406 579 q 465 849 447 765 l 589 849 m 422 1015 l 364 1064 l 524 1275 l 683 1064 l 625 1015 l 524 1133 l 422 1015 z "},"ŵ":{"ha":796,"x_min":28,"x_max":768,"o":"m 300 0 l 179 0 q 98 329 136 143 q 28 729 60 515 l 146 729 q 163 590 151 669 q 187 426 174 510 q 214 263 200 342 q 240 129 228 185 q 269 265 253 185 q 301 431 285 346 q 331 595 317 515 q 353 729 344 675 l 465 729 q 483 596 471 675 q 508 431 494 517 q 535 265 521 346 q 560 129 549 185 q 586 264 572 185 q 613 426 600 343 q 638 590 626 510 q 654 729 649 669 l 768 729 q 698 329 736 515 q 617 0 660 143 l 500 0 q 476 110 489 43 q 449 254 463 178 q 425 408 436 331 q 406 549 414 485 q 383 408 397 485 q 354 254 369 331 q 324 110 339 178 q 300 0 310 43 m 294 807 l 236 856 l 396 1067 l 556 856 l 497 807 l 396 925 l 294 807 z "},"Ŷ":{"ha":626,"x_min":4,"x_max":622,"o":"m 622 963 q 570 824 599 897 q 510 674 542 750 q 444 524 478 599 q 378 381 411 449 l 378 0 l 253 0 l 253 372 q 185 517 219 440 q 118 669 150 593 q 57 821 86 746 q 4 963 28 896 l 139 963 q 221 731 175 853 q 315 503 267 608 q 410 731 364 608 q 492 963 456 853 l 622 963 m 210 1015 l 151 1064 l 311 1275 l 471 1064 l 413 1015 l 311 1133 l 210 1015 z "},"ŷ":{"ha":550,"x_min":1,"x_max":532,"o":"m 276 151 q 350 431 317 290 q 414 729 383 571 l 532 729 q 487 529 511 628 q 437 339 463 431 q 385 166 411 247 q 338 18 360 85 q 287 -113 311 -60 q 234 -199 263 -167 q 172 -247 206 -232 q 93 -261 139 -261 q 43 -255 68 -261 q 1 -242 18 -249 l 24 -144 q 92 -160 60 -160 q 157 -131 132 -160 q 206 -43 182 -101 l 219 -8 q 166 152 193 64 q 113 336 139 240 q 64 533 88 432 q 21 729 40 633 l 147 729 q 174 586 158 664 q 206 431 189 508 q 242 280 224 353 q 276 151 260 207 m 171 807 l 113 856 l 272 1067 l 432 856 l 374 807 l 272 925 l 171 807 z "},"Ź":{"ha":600,"x_min":43,"x_max":551,"o":"m 542 864 q 449 691 500 790 q 347 487 397 592 q 251 282 296 382 q 176 107 206 182 l 551 107 l 551 0 l 43 0 l 43 76 q 92 199 64 132 q 151 337 119 265 q 217 481 183 408 q 285 621 251 553 q 351 749 319 689 q 408 856 382 810 l 61 856 l 61 963 l 542 963 l 542 864 m 435 1217 l 246 1017 l 186 1068 l 350 1289 l 435 1217 z "},"ź":{"ha":494,"x_min":46,"x_max":453,"o":"m 443 640 q 374 518 413 589 q 297 373 335 447 q 224 227 258 299 q 169 103 190 156 l 453 103 l 453 0 l 46 0 l 46 86 q 103 222 68 147 q 176 372 138 297 q 251 515 214 447 q 314 626 288 582 l 63 626 l 63 729 l 443 729 l 443 640 m 418 1008 l 229 808 l 169 860 l 333 1081 l 418 1008 z "},"Ż":{"ha":600,"x_min":43,"x_max":551,"o":"m 542 864 q 449 691 500 790 q 347 487 397 592 q 251 282 296 382 q 176 107 206 182 l 551 107 l 551 0 l 43 0 l 43 76 q 92 199 64 132 q 151 337 119 265 q 217 481 183 408 q 285 621 251 553 q 351 749 319 689 q 408 856 382 810 l 61 856 l 61 963 l 542 963 l 542 864 m 300 1067 q 245 1088 268 1067 q 222 1146 222 1110 q 245 1203 222 1182 q 300 1225 268 1225 q 355 1203 332 1225 q 378 1146 378 1182 q 355 1088 378 1110 q 300 1067 332 1067 z "},"ż":{"ha":494,"x_min":46,"x_max":453,"o":"m 443 640 q 374 518 413 589 q 297 373 335 447 q 224 227 258 299 q 169 103 190 156 l 453 103 l 453 0 l 46 0 l 46 86 q 103 222 68 147 q 176 372 138 297 q 251 515 214 447 q 314 626 288 582 l 63 626 l 63 729 l 443 729 l 443 640 m 249 858 q 194 880 217 858 q 171 938 171 901 q 194 995 171 974 q 249 1017 217 1017 q 303 995 281 1017 q 326 938 326 974 q 303 880 326 901 q 249 858 281 858 z "},"Ž":{"ha":600,"x_min":43,"x_max":551,"o":"m 542 864 q 449 691 500 790 q 347 487 397 592 q 251 282 296 382 q 176 107 206 182 l 551 107 l 551 0 l 43 0 l 43 76 q 92 199 64 132 q 151 337 119 265 q 217 481 183 408 q 285 621 251 553 q 351 749 319 689 q 408 856 382 810 l 61 856 l 61 963 l 542 963 l 542 864 m 401 1275 l 460 1226 l 300 1015 l 140 1226 l 199 1275 l 300 1157 l 401 1275 z "},"ž":{"ha":494,"x_min":46,"x_max":453,"o":"m 443 640 q 374 518 413 589 q 297 373 335 447 q 224 227 258 299 q 169 103 190 156 l 453 103 l 453 0 l 46 0 l 46 86 q 103 222 68 147 q 176 372 138 297 q 251 515 214 447 q 314 626 288 582 l 63 626 l 63 729 l 443 729 l 443 640 m 350 1067 l 408 1018 l 249 807 l 89 1018 l 147 1067 l 249 949 l 350 1067 z "},"ſ":{"ha":331,"x_min":108,"x_max":442,"o":"m 321 1078 q 392 1069 361 1078 q 442 1051 422 1061 l 417 957 q 376 972 397 967 q 332 976 356 976 q 279 965 300 976 q 247 935 258 954 q 232 888 236 915 q 228 831 228 861 l 228 0 l 108 0 l 108 831 q 161 1013 108 949 q 321 1078 214 1078 z "},"Ș":{"ha":556,"x_min":35,"x_max":524,"o":"m 236 86 q 352 128 311 86 q 393 240 393 169 q 381 307 393 278 q 348 360 368 336 q 301 403 328 383 q 247 442 275 422 q 181 489 215 464 q 117 547 146 514 q 71 625 89 581 q 53 729 53 669 q 73 835 53 788 q 128 915 93 882 q 213 967 164 949 q 319 985 263 985 q 422 971 375 985 q 501 938 469 957 l 463 839 q 399 869 433 858 q 328 879 365 879 q 219 842 260 879 q 178 735 178 806 q 191 667 178 696 q 226 614 204 638 q 276 571 247 590 q 336 531 304 551 q 401 485 368 510 q 462 427 435 460 q 506 351 489 394 q 524 247 524 307 q 507 144 524 193 q 455 59 490 96 q 366 1 419 22 q 240 -21 313 -21 q 124 -6 174 -21 q 35 35 74 10 l 74 135 q 148 99 110 113 q 236 86 186 86 m 233 -69 l 336 -69 q 338 -85 338 -76 q 338 -99 338 -94 q 296 -224 338 -186 q 193 -261 254 -261 q 165 -260 178 -261 q 146 -256 153 -258 l 146 -183 q 163 -185 151 -185 q 215 -164 197 -185 q 233 -87 233 -143 l 233 -69 z "},"ș":{"ha":474,"x_min":50,"x_max":438,"o":"m 210 85 q 290 115 263 85 q 317 193 317 144 q 306 245 317 224 q 276 283 294 267 q 235 313 258 300 q 188 342 211 326 q 142 374 164 356 q 102 417 119 393 q 74 473 85 442 q 64 546 64 504 q 120 692 64 636 q 272 747 176 747 q 349 737 313 747 q 408 714 385 726 l 382 618 q 332 639 357 632 q 278 646 307 646 q 207 620 233 646 q 181 546 181 594 q 190 498 181 518 q 216 462 200 478 q 252 432 232 446 q 294 406 272 418 q 347 372 321 390 q 392 330 372 354 q 425 273 413 306 q 438 194 438 240 q 381 40 438 99 q 217 -18 325 -18 q 117 -3 161 -18 q 50 25 72 13 l 75 124 q 131 99 96 113 q 210 85 167 85 m 206 -69 l 308 -69 q 310 -85 310 -76 q 310 -99 310 -94 q 268 -224 310 -186 q 165 -261 226 -261 q 138 -260 150 -261 q 118 -256 125 -258 l 118 -183 q 135 -185 124 -185 q 188 -164 169 -185 q 206 -87 206 -143 l 206 -69 z "},"Ț":{"ha":592,"x_min":19,"x_max":572,"o":"m 572 963 l 572 856 l 358 856 l 358 0 l 233 0 l 233 856 l 19 856 l 19 963 l 572 963 m 244 -69 l 347 -69 q 349 -85 349 -76 q 349 -99 349 -94 q 307 -224 349 -186 q 204 -261 265 -261 q 176 -260 189 -261 q 157 -256 164 -258 l 157 -183 q 174 -185 163 -185 q 226 -164 208 -185 q 244 -87 244 -143 l 244 -69 z "},"ț":{"ha":446,"x_min":100,"x_max":425,"o":"m 219 729 l 403 729 l 403 626 l 219 626 l 219 225 q 247 120 219 150 q 319 90 274 90 q 365 97 343 90 q 401 114 386 104 l 425 18 q 304 -15 368 -15 q 151 42 201 -15 q 100 233 100 100 l 100 925 l 219 946 l 219 729 m 208 -69 l 311 -69 q 313 -85 313 -76 q 313 -99 313 -94 q 271 -224 313 -186 q 168 -261 229 -261 q 140 -260 153 -261 q 121 -256 128 -258 l 121 -183 q 138 -185 126 -185 q 190 -164 172 -185 q 208 -87 208 -143 l 208 -69 z "},"ȷ":{"ha":336,"x_min":-47,"x_max":228,"o":"m 228 -36 q 175 -207 228 -156 q 35 -258 122 -258 q -47 -244 -11 -258 l -31 -143 q -6 -148 -18 -146 q 22 -150 7 -150 q 58 -145 42 -150 q 85 -126 74 -140 q 102 -89 96 -112 q 108 -29 108 -65 l 108 729 l 228 729 l 228 -36 z "},"ʼ":{"ha":436,"x_min":129,"x_max":306,"o":"m 304 1085 q 306 1067 306 1075 q 306 1051 306 1060 q 281 919 306 982 q 213 796 256 856 l 129 821 q 175 931 164 875 q 186 1035 186 986 q 185 1061 186 1049 q 183 1085 185 1074 l 304 1085 z "},"ˇ":{"ha":436,"x_min":58,"x_max":378,"o":"m 319 1067 l 378 1018 l 218 807 l 58 1018 l 117 1067 l 218 949 l 319 1067 z "},"ˉ":{"ha":436,"x_min":69,"x_max":365,"o":"m 69 988 l 365 988 l 365 893 l 69 893 l 69 988 z "},"˘":{"ha":436,"x_min":58,"x_max":378,"o":"m 218 854 q 99 905 140 854 q 58 1047 58 956 l 139 1047 q 158 968 142 1001 q 218 935 174 935 q 278 968 263 935 q 297 1047 294 1001 l 378 1047 q 336 905 378 956 q 218 854 294 854 z "},"˙":{"ha":436,"x_min":140,"x_max":296,"o":"m 218 858 q 163 880 186 858 q 140 938 140 901 q 163 995 140 974 q 218 1017 186 1017 q 273 995 250 1017 q 296 938 296 974 q 273 880 296 901 q 218 858 250 858 z "},"˚":{"ha":436,"x_min":100,"x_max":336,"o":"m 336 947 q 301 861 336 893 q 218 829 267 829 q 135 861 169 829 q 100 947 100 893 q 135 1033 100 1001 q 218 1065 169 1065 q 301 1033 267 1065 q 336 947 336 1001 m 274 947 q 258 990 274 975 q 218 1004 242 1004 q 178 990 194 1004 q 163 947 163 975 q 178 905 163 919 q 218 890 194 890 q 258 905 242 890 q 274 947 274 919 z "},"˛":{"ha":436,"x_min":106,"x_max":331,"o":"m 331 -244 q 244 -260 292 -260 q 144 -228 183 -260 q 106 -143 106 -197 q 132 -60 106 -97 q 206 11 158 -24 l 328 11 q 244 -51 274 -21 q 214 -112 214 -81 q 231 -154 214 -142 q 274 -167 249 -167 q 324 -157 300 -167 l 331 -244 z "},"˝":{"ha":436,"x_min":54,"x_max":464,"o":"m 274 1032 l 118 814 l 54 853 l 188 1089 l 274 1032 m 464 1032 l 308 814 l 244 853 l 378 1089 l 464 1032 z "},"Ẁ":{"ha":1050,"x_min":56,"x_max":994,"o":"m 589 849 q 628 672 607 765 q 672 488 649 579 q 718 310 694 396 q 763 153 742 224 q 794 326 779 231 q 824 525 810 421 q 851 740 839 629 q 872 963 864 851 l 994 963 q 923 449 963 683 q 831 0 883 214 l 704 0 q 659 151 683 68 q 611 324 635 235 q 565 506 588 414 q 525 683 543 597 q 485 506 507 597 q 439 324 463 414 q 391 151 415 235 q 346 0 367 68 l 219 0 q 127 449 167 214 q 56 963 88 683 l 182 963 q 203 741 190 851 q 230 526 215 631 q 260 326 244 421 q 292 153 275 231 q 336 310 313 224 q 383 488 360 396 q 426 672 406 579 q 465 849 447 765 l 589 849 m 444 1289 l 608 1068 l 549 1017 l 360 1217 l 444 1289 z "},"ẁ":{"ha":796,"x_min":28,"x_max":768,"o":"m 300 0 l 179 0 q 98 329 136 143 q 28 729 60 515 l 146 729 q 163 590 151 669 q 187 426 174 510 q 214 263 200 342 q 240 129 228 185 q 269 265 253 185 q 301 431 285 346 q 331 595 317 515 q 353 729 344 675 l 465 729 q 483 596 471 675 q 508 431 494 517 q 535 265 521 346 q 560 129 549 185 q 586 264 572 185 q 613 426 600 343 q 638 590 626 510 q 654 729 649 669 l 768 729 q 698 329 736 515 q 617 0 660 143 l 500 0 q 476 110 489 43 q 449 254 463 178 q 425 408 436 331 q 406 549 414 485 q 383 408 397 485 q 354 254 369 331 q 324 110 339 178 q 300 0 310 43 m 303 1081 l 467 860 l 407 808 l 218 1008 l 303 1081 z "},"Ẃ":{"ha":1050,"x_min":56,"x_max":994,"o":"m 589 849 q 628 672 607 765 q 672 488 649 579 q 718 310 694 396 q 763 153 742 224 q 794 326 779 231 q 824 525 810 421 q 851 740 839 629 q 872 963 864 851 l 994 963 q 923 449 963 683 q 831 0 883 214 l 704 0 q 659 151 683 68 q 611 324 635 235 q 565 506 588 414 q 525 683 543 597 q 485 506 507 597 q 439 324 463 414 q 391 151 415 235 q 346 0 367 68 l 219 0 q 127 449 167 214 q 56 963 88 683 l 182 963 q 203 741 190 851 q 230 526 215 631 q 260 326 244 421 q 292 153 275 231 q 336 310 313 224 q 383 488 360 396 q 426 672 406 579 q 465 849 447 765 l 589 849 m 701 1217 l 513 1017 l 453 1068 l 617 1289 l 701 1217 z "},"ẃ":{"ha":796,"x_min":28,"x_max":768,"o":"m 300 0 l 179 0 q 98 329 136 143 q 28 729 60 515 l 146 729 q 163 590 151 669 q 187 426 174 510 q 214 263 200 342 q 240 129 228 185 q 269 265 253 185 q 301 431 285 346 q 331 595 317 515 q 353 729 344 675 l 465 729 q 483 596 471 675 q 508 431 494 517 q 535 265 521 346 q 560 129 549 185 q 586 264 572 185 q 613 426 600 343 q 638 590 626 510 q 654 729 649 669 l 768 729 q 698 329 736 515 q 617 0 660 143 l 500 0 q 476 110 489 43 q 449 254 463 178 q 425 408 436 331 q 406 549 414 485 q 383 408 397 485 q 354 254 369 331 q 324 110 339 178 q 300 0 310 43 m 578 1008 l 389 808 l 329 860 l 493 1081 l 578 1008 z "},"Ẅ":{"ha":1050,"x_min":56,"x_max":994,"o":"m 589 849 q 628 672 607 765 q 672 488 649 579 q 718 310 694 396 q 763 153 742 224 q 794 326 779 231 q 824 525 810 421 q 851 740 839 629 q 872 963 864 851 l 994 963 q 923 449 963 683 q 831 0 883 214 l 704 0 q 659 151 683 68 q 611 324 635 235 q 565 506 588 414 q 525 683 543 597 q 485 506 507 597 q 439 324 463 414 q 391 151 415 235 q 346 0 367 68 l 219 0 q 127 449 167 214 q 56 963 88 683 l 182 963 q 203 741 190 851 q 230 526 215 631 q 260 326 244 421 q 292 153 275 231 q 336 310 313 224 q 383 488 360 396 q 426 672 406 579 q 465 849 447 765 l 589 849 m 410 1067 q 355 1088 378 1067 q 332 1146 332 1110 q 355 1203 332 1182 q 410 1225 378 1225 q 465 1203 442 1225 q 488 1146 488 1182 q 465 1088 488 1110 q 410 1067 442 1067 m 640 1067 q 585 1088 608 1067 q 563 1146 563 1110 q 585 1203 563 1182 q 640 1225 608 1225 q 695 1203 672 1225 q 718 1146 718 1182 q 695 1088 718 1110 q 640 1067 672 1067 z "},"ẅ":{"ha":796,"x_min":28,"x_max":768,"o":"m 300 0 l 179 0 q 98 329 136 143 q 28 729 60 515 l 146 729 q 163 590 151 669 q 187 426 174 510 q 214 263 200 342 q 240 129 228 185 q 269 265 253 185 q 301 431 285 346 q 331 595 317 515 q 353 729 344 675 l 465 729 q 483 596 471 675 q 508 431 494 517 q 535 265 521 346 q 560 129 549 185 q 586 264 572 185 q 613 426 600 343 q 638 590 626 510 q 654 729 649 669 l 768 729 q 698 329 736 515 q 617 0 660 143 l 500 0 q 476 110 489 43 q 449 254 463 178 q 425 408 436 331 q 406 549 414 485 q 383 408 397 485 q 354 254 369 331 q 324 110 339 178 q 300 0 310 43 m 282 858 q 227 880 250 858 q 204 938 204 901 q 227 995 204 974 q 282 1017 250 1017 q 337 995 314 1017 q 360 938 360 974 q 337 880 360 901 q 282 858 314 858 m 513 858 q 458 880 481 858 q 435 938 435 901 q 458 995 435 974 q 513 1017 481 1017 q 567 995 544 1017 q 590 938 590 974 q 567 880 590 901 q 513 858 544 858 z "},"Ỳ":{"ha":626,"x_min":4,"x_max":622,"o":"m 622 963 q 570 824 599 897 q 510 674 542 750 q 444 524 478 599 q 378 381 411 449 l 378 0 l 253 0 l 253 372 q 185 517 219 440 q 118 669 150 593 q 57 821 86 746 q 4 963 28 896 l 139 963 q 221 731 175 853 q 315 503 267 608 q 410 731 364 608 q 492 963 456 853 l 622 963 m 218 1289 l 382 1068 l 322 1017 l 133 1217 l 218 1289 z "},"ỳ":{"ha":550,"x_min":1,"x_max":532,"o":"m 276 151 q 350 431 317 290 q 414 729 383 571 l 532 729 q 487 529 511 628 q 437 339 463 431 q 385 166 411 247 q 338 18 360 85 q 287 -113 311 -60 q 234 -199 263 -167 q 172 -247 206 -232 q 93 -261 139 -261 q 43 -255 68 -261 q 1 -242 18 -249 l 24 -144 q 92 -160 60 -160 q 157 -131 132 -160 q 206 -43 182 -101 l 219 -8 q 166 152 193 64 q 113 336 139 240 q 64 533 88 432 q 21 729 40 633 l 147 729 q 174 586 158 664 q 206 431 189 508 q 242 280 224 353 q 276 151 260 207 m 179 1081 l 343 860 l 283 808 l 94 1008 l 179 1081 z "},"⁄":{"ha":189,"x_min":-157,"x_max":340,"o":"m 340 963 l -53 0 l -157 0 l 236 963 l 340 963 z "},"⁰":{"ha":389,"x_min":32,"x_max":357,"o":"m 32 693 q 43 823 32 769 q 75 909 54 876 q 126 956 96 942 q 193 971 156 971 q 263 956 232 971 q 314 909 293 942 q 346 823 335 876 q 357 693 357 769 q 346 563 357 615 q 314 477 335 510 q 263 430 293 444 q 193 415 232 415 q 126 430 156 415 q 75 477 96 444 q 43 563 54 510 q 32 693 32 615 m 256 693 q 242 838 256 793 q 193 883 229 883 q 147 838 160 883 q 133 693 133 793 q 147 549 133 593 q 193 504 160 504 q 242 549 229 504 q 256 693 256 593 z "},"⁴":{"ha":389,"x_min":32,"x_max":357,"o":"m 299 963 l 299 638 l 357 638 l 357 557 l 299 557 l 299 425 l 210 425 l 210 557 l 32 557 l 32 610 q 199 963 90 796 l 299 963 m 211 846 q 163 750 188 806 q 115 638 138 694 l 211 638 l 211 846 z "},"⁵":{"ha":389,"x_min":39,"x_max":340,"o":"m 340 589 q 329 523 340 554 q 296 467 318 492 q 240 429 274 443 q 164 415 207 415 q 97 424 129 415 q 39 444 64 432 l 54 526 q 143 506 101 506 q 212 528 185 506 q 239 596 239 550 q 207 666 239 638 q 96 694 175 694 q 81 694 89 694 q 67 693 74 693 q 78 829 74 758 q 85 963 82 900 l 324 963 l 324 876 l 165 876 q 163 822 164 850 q 158 767 161 793 q 292 713 244 758 q 340 589 340 667 z "},"⁶":{"ha":389,"x_min":39,"x_max":363,"o":"m 335 896 q 211 858 260 890 q 144 753 163 825 q 214 767 183 767 q 321 722 279 767 q 363 594 363 678 q 322 463 363 510 q 203 415 281 415 q 79 476 119 415 q 39 653 39 536 q 63 796 39 736 q 126 894 86 856 q 215 952 165 933 q 318 972 265 971 l 335 896 m 199 689 q 135 671 169 689 l 135 657 q 203 500 135 500 q 263 596 263 500 q 247 667 263 646 q 199 689 231 689 z "},"⁷":{"ha":389,"x_min":28,"x_max":360,"o":"m 93 425 q 110 540 97 479 q 144 661 124 601 q 190 776 164 721 q 244 872 215 831 l 28 872 l 28 963 l 360 963 l 360 893 q 310 814 338 864 q 259 701 283 764 q 217 567 235 639 q 194 425 199 496 l 93 425 z "},"⁸":{"ha":389,"x_min":35,"x_max":353,"o":"m 339 832 q 317 755 339 788 q 265 699 294 722 q 326 645 299 678 q 353 561 353 613 q 340 501 353 528 q 306 456 328 475 q 254 426 283 436 q 192 415 225 415 q 78 457 121 415 q 35 560 35 499 q 114 697 35 640 q 64 751 86 718 q 42 829 42 783 q 83 931 42 890 q 192 971 125 971 q 299 931 260 971 q 339 832 339 890 m 261 563 q 235 622 261 599 q 174 663 208 646 q 138 616 149 639 q 126 569 126 593 q 146 519 126 538 q 194 500 165 500 q 242 515 222 500 q 261 563 261 531 m 133 831 q 153 777 133 800 q 200 736 172 754 q 235 776 221 756 q 249 825 249 797 q 235 869 249 850 q 192 888 221 888 q 150 873 167 888 q 133 831 133 858 z "},"⁹":{"ha":389,"x_min":25,"x_max":349,"o":"m 44 492 q 173 530 124 499 q 242 635 222 561 q 203 624 222 628 q 168 621 185 621 q 65 665 106 621 q 25 794 25 710 q 65 923 25 875 q 182 971 106 971 q 308 910 267 971 q 349 742 349 850 q 324 592 349 653 q 258 492 299 531 q 167 435 218 453 q 61 415 115 417 l 44 492 m 189 697 q 219 701 203 697 q 253 714 235 704 l 253 729 q 183 888 253 888 q 125 789 125 888 q 141 718 125 739 q 189 697 157 697 z "},"₀":{"ha":389,"x_min":32,"x_max":357,"o":"m 32 269 q 43 399 32 346 q 75 485 54 453 q 126 533 96 518 q 193 547 156 547 q 263 533 232 547 q 314 485 293 518 q 346 399 335 453 q 357 269 357 346 q 346 139 357 192 q 314 53 335 86 q 263 6 293 21 q 193 -8 232 -8 q 126 6 156 -8 q 75 53 96 21 q 43 139 54 86 q 32 269 32 192 m 256 269 q 242 415 256 369 q 193 460 229 460 q 147 415 160 460 q 133 269 133 369 q 147 125 133 169 q 193 81 160 81 q 242 125 229 81 q 256 269 256 169 z "},"₁":{"ha":389,"x_min":44,"x_max":269,"o":"m 44 422 q 125 474 85 444 q 199 539 165 503 l 269 539 l 269 1 l 172 1 l 172 403 q 82 349 125 367 l 44 422 z "},"₂":{"ha":389,"x_min":44,"x_max":339,"o":"m 332 401 q 322 339 332 368 q 295 284 311 310 q 260 235 279 258 q 225 193 242 213 q 188 144 206 169 q 163 90 169 118 l 339 90 l 339 0 l 47 0 l 47 24 q 58 92 47 60 q 84 151 68 124 q 120 205 100 179 q 160 254 140 231 q 215 329 196 299 q 235 392 235 360 q 216 441 235 425 q 172 457 197 457 q 128 447 151 457 q 86 422 106 438 l 44 496 q 110 533 76 519 q 183 546 144 546 q 290 507 249 546 q 332 401 332 468 z "},"₃":{"ha":389,"x_min":33,"x_max":336,"o":"m 154 81 q 215 102 192 81 q 239 158 239 124 q 208 223 239 203 q 140 243 176 243 l 107 243 l 107 325 l 146 325 q 172 328 158 325 q 199 340 186 332 q 219 363 211 349 q 228 397 228 376 q 209 444 228 429 q 160 460 190 460 q 115 451 136 460 q 71 428 93 443 l 38 503 q 99 535 67 524 q 167 547 131 547 q 235 535 206 547 q 283 505 264 524 q 312 463 303 486 q 321 414 321 439 q 303 341 321 369 q 257 290 285 313 q 315 235 293 271 q 336 154 336 199 q 325 93 336 122 q 291 41 314 64 q 234 5 268 18 q 154 -8 200 -8 q 33 26 92 -8 l 61 110 q 106 88 85 94 q 154 81 128 81 z "},"₄":{"ha":389,"x_min":32,"x_max":357,"o":"m 299 538 l 299 213 l 357 213 l 357 132 l 299 132 l 299 0 l 210 0 l 210 132 l 32 132 l 32 185 q 199 538 90 371 l 299 538 m 211 421 q 163 325 188 381 q 115 213 138 269 l 211 213 l 211 421 z "},"₅":{"ha":389,"x_min":38,"x_max":339,"o":"m 339 165 q 328 99 339 131 q 294 44 317 68 q 239 6 272 19 q 163 -8 206 -8 q 95 0 128 -8 q 38 21 63 8 l 53 103 q 142 82 100 82 q 210 104 183 82 q 238 172 238 126 q 206 242 238 214 q 94 271 174 271 q 80 270 88 271 q 65 269 72 269 q 76 406 72 335 q 83 539 81 476 l 322 539 l 322 453 l 164 453 q 161 398 163 426 q 157 343 160 369 q 291 289 243 335 q 339 165 339 243 z "},"₆":{"ha":389,"x_min":39,"x_max":363,"o":"m 335 472 q 211 434 260 467 q 144 329 163 401 q 214 343 183 343 q 321 299 279 343 q 363 171 363 254 q 322 39 363 86 q 203 -8 281 -8 q 79 52 119 -8 q 39 229 39 113 q 63 372 39 313 q 126 471 86 432 q 215 528 165 510 q 318 549 265 547 l 335 472 m 199 265 q 135 247 169 265 l 135 233 q 203 76 135 76 q 263 172 263 76 q 247 244 263 222 q 199 265 231 265 z "},"₇":{"ha":389,"x_min":28,"x_max":360,"o":"m 93 0 q 110 115 97 54 q 144 236 124 176 q 190 351 164 296 q 244 447 215 406 l 28 447 l 28 538 l 360 538 l 360 468 q 310 389 338 439 q 259 276 283 339 q 217 142 235 214 q 194 0 199 71 l 93 0 z "},"₈":{"ha":389,"x_min":35,"x_max":353,"o":"m 339 408 q 317 331 339 364 q 265 275 294 299 q 326 222 299 254 q 353 138 353 189 q 340 78 353 104 q 306 32 328 51 q 254 2 283 13 q 192 -8 225 -8 q 78 33 121 -8 q 35 136 35 75 q 114 274 35 217 q 64 327 86 294 q 42 406 42 360 q 83 507 42 467 q 192 547 125 547 q 299 507 260 547 q 339 408 339 467 m 261 139 q 235 199 261 175 q 174 239 208 222 q 138 192 149 215 q 126 146 126 169 q 146 95 126 114 q 194 76 165 76 q 242 92 222 76 q 261 139 261 107 m 133 407 q 153 353 133 376 q 200 313 172 331 q 235 353 221 332 q 249 401 249 374 q 235 445 249 426 q 192 464 221 464 q 150 449 167 464 q 133 407 133 435 z "},"₉":{"ha":389,"x_min":25,"x_max":349,"o":"m 44 68 q 173 106 124 75 q 242 211 222 138 q 203 201 222 204 q 168 197 185 197 q 65 242 106 197 q 25 371 25 286 q 65 499 25 451 q 182 547 106 547 q 308 487 267 547 q 349 318 349 426 q 324 168 349 229 q 258 68 299 107 q 167 11 218 29 q 61 -8 115 -7 l 44 68 m 189 274 q 219 277 203 274 q 253 290 235 281 l 253 306 q 183 464 253 464 q 125 365 125 464 q 141 294 125 315 q 189 274 157 274 z "},"ℓ":{"ha":499,"x_min":6,"x_max":469,"o":"m 450 854 q 397 592 450 718 q 257 365 344 467 l 257 201 q 274 115 257 147 q 336 83 292 83 q 432 121 388 83 l 469 33 q 405 -6 440 10 q 319 -21 369 -21 q 180 42 222 -21 q 138 204 138 104 l 138 246 l 61 174 l 6 236 l 138 364 l 138 856 q 150 964 138 921 q 184 1032 163 1007 q 234 1067 206 1057 q 294 1078 263 1078 q 369 1060 339 1078 q 417 1011 399 1042 q 442 940 435 981 q 450 854 450 900 m 257 494 q 336 659 315 574 q 357 856 357 744 q 348 947 357 914 q 310 979 339 979 q 267 949 278 979 q 257 856 257 918 l 257 494 z "},"℮":{"ha":1294,"x_min":90,"x_max":1204,"o":"m 301 468 q 294 463 294 468 l 294 189 q 307 158 294 171 q 460 49 374 88 q 647 10 546 10 q 849 55 757 10 q 1007 175 940 100 l 1086 175 q 1002 95 1050 131 q 897 35 954 60 q 776 -4 840 10 q 646 -18 713 -18 q 429 22 531 -18 q 253 128 328 61 q 134 287 178 196 q 90 482 90 378 q 134 677 90 586 q 253 836 178 768 q 429 944 328 904 q 646 983 531 983 q 863 944 761 983 q 1041 836 965 904 q 1160 677 1117 768 q 1204 482 1204 586 l 1204 468 l 301 468 m 999 778 q 986 811 999 796 q 833 915 919 878 q 647 953 747 953 q 461 913 547 953 q 308 806 375 872 q 298 791 301 800 q 294 772 294 782 l 294 504 q 301 494 294 494 l 993 494 q 999 504 999 494 l 999 778 z "},"⅓":{"ha":1008,"x_min":36,"x_max":926,"o":"m 36 846 q 117 897 76 868 q 190 963 157 926 l 261 963 l 261 425 l 164 425 l 164 826 q 74 772 117 790 l 36 846 m 706 963 l 313 0 l 208 0 l 601 963 l 706 963 m 744 82 q 806 103 782 82 q 829 160 829 125 q 798 224 829 204 q 731 244 767 244 l 697 244 l 697 326 l 736 326 q 763 330 749 326 q 789 342 776 333 q 810 364 801 350 q 818 399 818 378 q 799 446 818 431 q 750 461 781 461 q 705 453 726 461 q 661 429 683 444 l 628 504 q 689 537 657 525 q 757 549 721 549 q 825 537 796 549 q 874 506 854 525 q 902 464 893 488 q 911 415 911 440 q 893 342 911 371 q 847 292 875 314 q 905 236 883 272 q 926 156 926 200 q 915 94 926 124 q 881 42 904 65 q 824 6 858 19 q 744 -7 790 -7 q 624 28 682 -7 l 651 111 q 697 89 675 96 q 744 82 718 82 z "},"⅔":{"ha":1008,"x_min":71,"x_max":925,"o":"m 358 826 q 348 764 358 793 q 322 709 338 735 q 287 660 306 683 q 251 618 268 638 q 214 569 232 594 q 189 515 196 543 l 365 515 l 365 425 l 74 425 l 74 449 q 84 517 74 485 q 110 576 94 549 q 147 630 126 604 q 186 679 167 656 q 242 754 222 724 q 261 817 261 785 q 242 866 261 850 q 199 882 224 882 q 155 872 178 882 q 113 847 132 863 l 71 921 q 137 958 103 944 q 210 971 171 971 q 317 932 275 971 q 358 826 358 893 m 760 963 l 367 0 l 263 0 l 656 963 l 760 963 m 743 71 q 804 92 781 71 q 828 149 828 114 q 797 213 828 193 q 729 233 765 233 l 696 233 l 696 315 l 735 315 q 761 319 747 315 q 788 331 775 322 q 808 353 800 339 q 817 388 817 367 q 798 435 817 419 q 749 450 779 450 q 703 442 725 450 q 660 418 682 433 l 626 493 q 688 526 656 514 q 756 538 719 538 q 824 526 794 538 q 872 495 853 514 q 901 453 892 476 q 910 404 910 429 q 892 331 910 360 q 846 281 874 303 q 903 225 882 261 q 925 144 925 189 q 914 83 925 113 q 880 31 903 54 q 823 -5 857 8 q 743 -18 789 -18 q 622 17 681 -18 l 650 100 q 695 78 674 85 q 743 71 717 71 z "},"⅛":{"ha":1008,"x_min":36,"x_max":943,"o":"m 36 846 q 117 897 76 868 q 190 963 157 926 l 261 963 l 261 425 l 164 425 l 164 826 q 74 772 117 790 l 36 846 m 725 963 l 332 0 l 228 0 l 621 963 l 725 963 m 929 410 q 907 333 929 365 q 856 276 885 300 q 916 223 889 256 q 943 139 943 190 q 931 79 943 106 q 896 33 918 53 q 844 3 874 14 q 782 -7 815 -7 q 668 35 711 -7 q 625 138 625 76 q 704 275 625 218 q 654 328 676 296 q 632 407 632 361 q 674 508 632 468 q 782 549 715 549 q 890 508 850 549 q 929 410 929 468 m 851 140 q 825 200 851 176 q 764 240 799 224 q 728 194 739 217 q 717 147 717 171 q 736 97 717 115 q 785 78 756 78 q 832 93 813 78 q 851 140 851 108 m 724 408 q 743 355 724 378 q 790 314 763 332 q 825 354 811 333 q 839 403 839 375 q 825 447 839 428 q 782 465 811 465 q 740 451 757 465 q 724 408 724 436 z "},"⅜":{"ha":1008,"x_min":67,"x_max":943,"o":"m 188 504 q 249 526 225 504 q 272 582 272 547 q 241 647 272 626 q 174 667 210 667 l 140 667 l 140 749 l 179 749 q 206 752 192 749 q 232 764 219 756 q 253 786 244 772 q 261 821 261 800 q 242 868 261 853 q 193 883 224 883 q 148 875 169 883 q 104 851 126 867 l 71 926 q 132 959 100 947 q 200 971 164 971 q 268 959 239 971 q 317 928 297 947 q 345 886 336 910 q 354 838 354 863 q 336 765 354 793 q 290 714 318 736 q 348 658 326 694 q 369 578 369 622 q 358 517 369 546 q 324 465 347 488 q 267 428 301 442 q 188 415 233 415 q 67 450 125 415 l 94 533 q 140 511 118 518 q 188 504 161 504 m 749 963 l 356 0 l 251 0 l 644 963 l 749 963 m 929 410 q 907 333 929 365 q 856 276 885 300 q 916 223 889 256 q 943 139 943 190 q 931 79 943 106 q 896 33 918 53 q 844 3 874 14 q 782 -7 815 -7 q 668 35 711 -7 q 625 138 625 76 q 704 275 625 218 q 654 328 676 296 q 632 407 632 361 q 674 508 632 468 q 782 549 715 549 q 890 508 850 549 q 929 410 929 468 m 851 140 q 825 200 851 176 q 764 240 799 224 q 728 194 739 217 q 717 147 717 171 q 736 97 717 115 q 785 78 756 78 q 832 93 813 78 q 851 140 851 108 m 724 408 q 743 355 724 378 q 790 314 763 332 q 825 354 811 333 q 839 403 839 375 q 825 447 839 428 q 782 465 811 465 q 740 451 757 465 q 724 408 724 436 z "},"⅝":{"ha":1008,"x_min":74,"x_max":943,"o":"m 375 589 q 364 523 375 554 q 331 467 353 492 q 275 429 308 443 q 199 415 242 415 q 131 424 164 415 q 74 444 99 432 l 89 526 q 178 506 136 506 q 247 528 219 506 q 274 596 274 550 q 242 666 274 638 q 131 694 210 694 q 116 694 124 694 q 101 693 108 693 q 113 829 108 758 q 119 963 117 900 l 358 963 l 358 876 l 200 876 q 197 822 199 850 q 193 767 196 793 q 327 713 279 758 q 375 589 375 667 m 750 963 l 357 0 l 253 0 l 646 963 l 750 963 m 929 410 q 907 333 929 365 q 856 276 885 300 q 916 223 889 256 q 943 139 943 190 q 931 79 943 106 q 896 33 918 53 q 844 3 874 14 q 782 -7 815 -7 q 668 35 711 -7 q 625 138 625 76 q 704 275 625 218 q 654 328 676 296 q 632 407 632 361 q 674 508 632 468 q 782 549 715 549 q 890 508 850 549 q 929 410 929 468 m 851 140 q 825 200 851 176 q 764 240 799 224 q 728 194 739 217 q 717 147 717 171 q 736 97 717 115 q 785 78 756 78 q 832 93 813 78 q 851 140 851 108 m 724 408 q 743 355 724 378 q 790 314 763 332 q 825 354 811 333 q 839 403 839 375 q 825 447 839 428 q 782 465 811 465 q 740 451 757 465 q 724 408 724 436 z "},"⅞":{"ha":1008,"x_min":118,"x_max":943,"o":"m 183 425 q 201 540 188 479 q 234 661 214 601 q 280 776 254 721 q 335 872 306 831 l 118 872 l 118 963 l 450 963 l 450 893 q 401 814 428 864 q 349 701 374 764 q 307 567 325 639 q 285 425 289 496 l 183 425 m 739 963 l 346 0 l 242 0 l 635 963 l 739 963 m 929 410 q 907 333 929 365 q 856 276 885 300 q 916 223 889 256 q 943 139 943 190 q 931 79 943 106 q 896 33 918 53 q 844 3 874 14 q 782 -7 815 -7 q 668 35 711 -7 q 625 138 625 76 q 704 275 625 218 q 654 328 676 296 q 632 407 632 361 q 674 508 632 468 q 782 549 715 549 q 890 508 850 549 q 929 410 929 468 m 851 140 q 825 200 851 176 q 764 240 799 224 q 728 194 739 217 q 717 147 717 171 q 736 97 717 115 q 785 78 756 78 q 832 93 813 78 q 851 140 851 108 m 724 408 q 743 355 724 378 q 790 314 763 332 q 825 354 811 333 q 839 403 839 375 q 825 447 839 428 q 782 465 811 465 q 740 451 757 465 q 724 408 724 436 z "},"⅕":{"ha":1008,"x_min":36,"x_max":935,"o":"m 36 846 q 117 897 76 868 q 190 963 157 926 l 261 963 l 261 425 l 164 425 l 164 826 q 74 772 117 790 l 36 846 m 725 963 l 332 0 l 228 0 l 621 963 l 725 963 m 935 167 q 924 101 935 132 q 890 45 913 69 q 835 7 868 21 q 758 -7 801 -7 q 691 1 724 -7 q 633 22 658 10 l 649 104 q 738 83 696 83 q 806 106 779 83 q 833 174 833 128 q 801 244 833 215 q 690 272 769 272 q 676 272 683 272 q 661 271 668 271 q 672 407 668 336 q 679 540 676 478 l 918 540 l 918 454 l 760 454 q 757 399 758 428 q 753 344 756 371 q 887 290 839 336 q 935 167 935 244 z "},"⅖":{"ha":1008,"x_min":71,"x_max":935,"o":"m 358 826 q 348 764 358 793 q 322 709 338 735 q 287 660 306 683 q 251 618 268 638 q 214 569 232 594 q 189 515 196 543 l 365 515 l 365 425 l 74 425 l 74 449 q 84 517 74 485 q 110 576 94 549 q 147 630 126 604 q 186 679 167 656 q 242 754 222 724 q 261 817 261 785 q 242 866 261 850 q 199 882 224 882 q 155 872 178 882 q 113 847 132 863 l 71 921 q 137 958 103 944 q 210 971 171 971 q 317 932 275 971 q 358 826 358 893 m 767 963 l 374 0 l 269 0 l 663 963 l 767 963 m 935 167 q 924 101 935 132 q 890 45 913 69 q 835 7 868 21 q 758 -7 801 -7 q 691 1 724 -7 q 633 22 658 10 l 649 104 q 738 83 696 83 q 806 106 779 83 q 833 174 833 128 q 801 244 833 215 q 690 272 769 272 q 676 272 683 272 q 661 271 668 271 q 672 407 668 336 q 679 540 676 478 l 918 540 l 918 454 l 760 454 q 757 399 758 428 q 753 344 756 371 q 887 290 839 336 q 935 167 935 244 z "},"⅗":{"ha":1008,"x_min":67,"x_max":935,"o":"m 188 504 q 249 526 225 504 q 272 582 272 547 q 241 647 272 626 q 174 667 210 667 l 140 667 l 140 749 l 179 749 q 206 752 192 749 q 232 764 219 756 q 253 786 244 772 q 261 821 261 800 q 242 868 261 853 q 193 883 224 883 q 148 875 169 883 q 104 851 126 867 l 71 926 q 132 959 100 947 q 200 971 164 971 q 268 959 239 971 q 317 928 297 947 q 345 886 336 910 q 354 838 354 863 q 336 765 354 793 q 290 714 318 736 q 348 658 326 694 q 369 578 369 622 q 358 517 369 546 q 324 465 347 488 q 267 428 301 442 q 188 415 233 415 q 67 450 125 415 l 94 533 q 140 511 118 518 q 188 504 161 504 m 753 963 l 360 0 l 256 0 l 649 963 l 753 963 m 935 167 q 924 101 935 132 q 890 45 913 69 q 835 7 868 21 q 758 -7 801 -7 q 691 1 724 -7 q 633 22 658 10 l 649 104 q 738 83 696 83 q 806 106 779 83 q 833 174 833 128 q 801 244 833 215 q 690 272 769 272 q 676 272 683 272 q 661 271 668 271 q 672 407 668 336 q 679 540 676 478 l 918 540 l 918 454 l 760 454 q 757 399 758 428 q 753 344 756 371 q 887 290 839 336 q 935 167 935 244 z "},"⅘":{"ha":1008,"x_min":58,"x_max":935,"o":"m 325 963 l 325 638 l 383 638 l 383 557 l 325 557 l 325 425 l 236 425 l 236 557 l 58 557 l 58 610 q 225 963 117 796 l 325 963 m 238 846 q 189 750 214 806 q 142 638 164 694 l 238 638 l 238 846 m 753 963 l 360 0 l 256 0 l 649 963 l 753 963 m 935 167 q 924 101 935 132 q 890 45 913 69 q 835 7 868 21 q 758 -7 801 -7 q 691 1 724 -7 q 633 22 658 10 l 649 104 q 738 83 696 83 q 806 106 779 83 q 833 174 833 128 q 801 244 833 215 q 690 272 769 272 q 676 272 683 272 q 661 271 668 271 q 672 407 668 336 q 679 540 676 478 l 918 540 l 918 454 l 760 454 q 757 399 758 428 q 753 344 756 371 q 887 290 839 336 q 935 167 935 244 z "},"⅙":{"ha":1008,"x_min":36,"x_max":917,"o":"m 36 846 q 117 897 76 868 q 190 963 157 926 l 261 963 l 261 425 l 164 425 l 164 826 q 74 772 117 790 l 36 846 m 718 963 l 325 0 l 221 0 l 614 963 l 718 963 m 889 474 q 765 435 814 468 q 699 331 717 403 q 768 344 738 344 q 875 300 833 344 q 917 172 917 256 q 876 40 917 88 q 757 -7 835 -7 q 633 53 674 -7 q 593 231 593 114 q 617 374 593 314 q 680 472 640 433 q 769 530 719 511 q 872 550 819 549 l 889 474 m 753 267 q 689 249 724 267 l 689 235 q 757 78 689 78 q 817 174 817 78 q 801 245 817 224 q 753 267 785 267 z "},"⅚":{"ha":1008,"x_min":74,"x_max":943,"o":"m 375 589 q 364 523 375 554 q 331 467 353 492 q 275 429 308 443 q 199 415 242 415 q 131 424 164 415 q 74 444 99 432 l 89 526 q 178 506 136 506 q 247 528 219 506 q 274 596 274 550 q 242 666 274 638 q 131 694 210 694 q 116 694 124 694 q 101 693 108 693 q 113 829 108 758 q 119 963 117 900 l 358 963 l 358 876 l 200 876 q 197 822 199 850 q 193 767 196 793 q 327 713 279 758 q 375 589 375 667 m 767 963 l 374 0 l 269 0 l 663 963 l 767 963 m 915 474 q 792 435 840 468 q 725 331 743 403 q 794 344 764 344 q 901 300 860 344 q 943 172 943 256 q 902 40 943 88 q 783 -7 861 -7 q 660 53 700 -7 q 619 231 619 114 q 643 374 619 314 q 706 472 667 433 q 796 530 746 511 q 899 550 846 549 l 915 474 m 779 267 q 715 249 750 267 l 715 235 q 783 78 715 78 q 843 174 843 78 q 827 245 843 224 q 779 267 811 267 z "},"":{"ha":1008,"x_min":36,"x_max":982,"o":"m 36 846 q 117 897 76 868 q 190 963 157 926 l 261 963 l 261 425 l 164 425 l 164 826 q 74 772 117 790 l 36 846 m 708 963 l 315 0 l 211 0 l 604 963 l 708 963 m 715 1 q 733 117 719 56 q 766 238 746 178 q 812 352 786 297 q 867 449 838 407 l 650 449 l 650 539 l 982 539 l 982 469 q 933 390 960 440 q 881 278 906 340 q 839 144 857 215 q 817 1 821 72 l 715 1 z "},"":{"ha":1008,"x_min":71,"x_max":982,"o":"m 358 826 q 348 764 358 793 q 322 709 338 735 q 287 660 306 683 q 251 618 268 638 q 214 569 232 594 q 189 515 196 543 l 365 515 l 365 425 l 74 425 l 74 449 q 84 517 74 485 q 110 576 94 549 q 147 630 126 604 q 186 679 167 656 q 242 754 222 724 q 261 817 261 785 q 242 866 261 850 q 199 882 224 882 q 155 872 178 882 q 113 847 132 863 l 71 921 q 137 958 103 944 q 210 971 171 971 q 317 932 275 971 q 358 826 358 893 m 753 963 l 360 0 l 256 0 l 649 963 l 753 963 m 715 1 q 733 117 719 56 q 766 238 746 178 q 812 352 786 297 q 867 449 838 407 l 650 449 l 650 539 l 982 539 l 982 469 q 933 390 960 440 q 881 278 906 340 q 839 144 857 215 q 817 1 821 72 l 715 1 z "},"":{"ha":1008,"x_min":67,"x_max":982,"o":"m 188 504 q 249 526 225 504 q 272 582 272 547 q 241 647 272 626 q 174 667 210 667 l 140 667 l 140 749 l 179 749 q 206 752 192 749 q 232 764 219 756 q 253 786 244 772 q 261 821 261 800 q 242 868 261 853 q 193 883 224 883 q 148 875 169 883 q 104 851 126 867 l 71 926 q 132 959 100 947 q 200 971 164 971 q 268 959 239 971 q 317 928 297 947 q 345 886 336 910 q 354 838 354 863 q 336 765 354 793 q 290 714 318 736 q 348 658 326 694 q 369 578 369 622 q 358 517 369 546 q 324 465 347 488 q 267 428 301 442 q 188 415 233 415 q 67 450 125 415 l 94 533 q 140 511 118 518 q 188 504 161 504 m 753 963 l 360 0 l 256 0 l 649 963 l 753 963 m 715 1 q 733 117 719 56 q 766 238 746 178 q 812 352 786 297 q 867 449 838 407 l 650 449 l 650 539 l 982 539 l 982 469 q 933 390 960 440 q 881 278 906 340 q 839 144 857 215 q 817 1 821 72 l 715 1 z "},"":{"ha":1008,"x_min":58,"x_max":982,"o":"m 325 963 l 325 638 l 383 638 l 383 557 l 325 557 l 325 425 l 236 425 l 236 557 l 58 557 l 58 610 q 225 963 117 796 l 325 963 m 238 846 q 189 750 214 806 q 142 638 164 694 l 238 638 l 238 846 m 753 963 l 360 0 l 256 0 l 649 963 l 753 963 m 715 1 q 733 117 719 56 q 766 238 746 178 q 812 352 786 297 q 867 449 838 407 l 650 449 l 650 539 l 982 539 l 982 469 q 933 390 960 440 q 881 278 906 340 q 839 144 857 215 q 817 1 821 72 l 715 1 z "},"":{"ha":1008,"x_min":74,"x_max":982,"o":"m 375 589 q 364 523 375 554 q 331 467 353 492 q 275 429 308 443 q 199 415 242 415 q 131 424 164 415 q 74 444 99 432 l 89 526 q 178 506 136 506 q 247 528 219 506 q 274 596 274 550 q 242 666 274 638 q 131 694 210 694 q 116 694 124 694 q 101 693 108 693 q 113 829 108 758 q 119 963 117 900 l 358 963 l 358 876 l 200 876 q 197 822 199 850 q 193 767 196 793 q 327 713 279 758 q 375 589 375 667 m 753 963 l 360 0 l 256 0 l 649 963 l 753 963 m 715 1 q 733 117 719 56 q 766 238 746 178 q 812 352 786 297 q 867 449 838 407 l 650 449 l 650 539 l 982 539 l 982 469 q 933 390 960 440 q 881 278 906 340 q 839 144 857 215 q 817 1 821 72 l 715 1 z "},"":{"ha":1008,"x_min":53,"x_max":982,"o":"m 349 896 q 225 858 274 890 q 158 753 176 825 q 228 767 197 767 q 335 722 293 767 q 376 594 376 678 q 335 463 376 510 q 217 415 294 415 q 93 476 133 415 q 53 653 53 536 q 76 796 53 736 q 140 894 100 856 q 229 952 179 933 q 332 972 279 971 l 349 896 m 213 689 q 149 671 183 689 l 149 657 q 217 500 149 500 q 276 596 276 500 q 260 667 276 646 q 213 689 244 689 m 750 963 l 357 0 l 253 0 l 646 963 l 750 963 m 715 1 q 733 117 719 56 q 766 238 746 178 q 812 352 786 297 q 867 449 838 407 l 650 449 l 650 539 l 982 539 l 982 469 q 933 390 960 440 q 881 278 906 340 q 839 144 857 215 q 817 1 821 72 l 715 1 z "},"":{"ha":1008,"x_min":36,"x_max":964,"o":"m 36 846 q 117 897 76 868 q 190 963 157 926 l 261 963 l 261 425 l 164 425 l 164 826 q 74 772 117 790 l 36 846 m 721 963 l 328 0 l 224 0 l 617 963 l 721 963 m 660 69 q 788 108 739 76 q 857 213 838 139 q 819 202 838 206 q 783 199 800 199 q 681 243 721 199 q 640 372 640 288 q 681 501 640 453 q 797 549 721 549 q 923 488 882 549 q 964 319 964 428 q 939 169 964 231 q 874 69 914 108 q 782 13 833 31 q 676 -7 731 -6 l 660 69 m 804 275 q 834 278 818 275 q 868 292 850 282 l 868 307 q 799 465 868 465 q 740 367 740 465 q 756 296 740 317 q 804 275 772 275 z "},"":{"ha":1008,"x_min":71,"x_max":963,"o":"m 358 826 q 348 764 358 793 q 322 709 338 735 q 287 660 306 683 q 251 618 268 638 q 214 569 232 594 q 189 515 196 543 l 365 515 l 365 425 l 74 425 l 74 449 q 84 517 74 485 q 110 576 94 549 q 147 630 126 604 q 186 679 167 656 q 242 754 222 724 q 261 817 261 785 q 242 866 261 850 q 199 882 224 882 q 155 872 178 882 q 113 847 132 863 l 71 921 q 137 958 103 944 q 210 971 171 971 q 317 932 275 971 q 358 826 358 893 m 763 963 l 369 0 l 265 0 l 658 963 l 763 963 m 658 69 q 787 108 738 76 q 856 213 836 139 q 817 202 836 206 q 782 199 799 199 q 679 243 719 199 q 639 372 639 288 q 679 501 639 453 q 796 549 719 549 q 922 488 881 549 q 963 319 963 428 q 938 169 963 231 q 872 69 913 108 q 781 13 832 31 q 675 -7 729 -6 l 658 69 m 803 275 q 833 278 817 275 q 867 292 849 282 l 867 307 q 797 465 867 465 q 739 367 739 465 q 755 296 739 317 q 803 275 771 275 z "},"":{"ha":1008,"x_min":58,"x_max":963,"o":"m 325 963 l 325 638 l 383 638 l 383 557 l 325 557 l 325 425 l 236 425 l 236 557 l 58 557 l 58 610 q 225 963 117 796 l 325 963 m 238 846 q 189 750 214 806 q 142 638 164 694 l 238 638 l 238 846 m 760 963 l 367 0 l 263 0 l 656 963 l 760 963 m 658 69 q 787 108 738 76 q 856 213 836 139 q 817 202 836 206 q 782 199 799 199 q 679 243 719 199 q 639 372 639 288 q 679 501 639 453 q 796 549 719 549 q 922 488 881 549 q 963 319 963 428 q 938 169 963 231 q 872 69 913 108 q 781 13 832 31 q 675 -7 729 -6 l 658 69 m 803 275 q 833 278 817 275 q 867 292 849 282 l 867 307 q 797 465 867 465 q 739 367 739 465 q 755 296 739 317 q 803 275 771 275 z "},"":{"ha":1008,"x_min":74,"x_max":963,"o":"m 375 589 q 364 523 375 554 q 331 467 353 492 q 275 429 308 443 q 199 415 242 415 q 131 424 164 415 q 74 444 99 432 l 89 526 q 178 506 136 506 q 247 528 219 506 q 274 596 274 550 q 242 666 274 638 q 131 694 210 694 q 116 694 124 694 q 101 693 108 693 q 113 829 108 758 q 119 963 117 900 l 358 963 l 358 876 l 200 876 q 197 822 199 850 q 193 767 196 793 q 327 713 279 758 q 375 589 375 667 m 756 963 l 363 0 l 258 0 l 651 963 l 756 963 m 658 69 q 787 108 738 76 q 856 213 836 139 q 817 202 836 206 q 782 199 799 199 q 679 243 719 199 q 639 372 639 288 q 679 501 639 453 q 796 549 719 549 q 922 488 881 549 q 963 319 963 428 q 938 169 963 231 q 872 69 913 108 q 781 13 832 31 q 675 -7 729 -6 l 658 69 m 803 275 q 833 278 817 275 q 867 292 849 282 l 867 307 q 797 465 867 465 q 739 367 739 465 q 755 296 739 317 q 803 275 771 275 z "},"":{"ha":1008,"x_min":111,"x_max":964,"o":"m 176 425 q 194 540 181 479 q 227 661 207 601 q 273 776 247 721 q 328 872 299 831 l 111 872 l 111 963 l 443 963 l 443 893 q 394 814 421 864 q 342 701 367 764 q 300 567 318 639 q 278 425 282 496 l 176 425 m 740 963 l 347 0 l 243 0 l 636 963 l 740 963 m 660 69 q 788 108 739 76 q 857 213 838 139 q 819 202 838 206 q 783 199 800 199 q 681 243 721 199 q 640 372 640 288 q 681 501 640 453 q 797 549 721 549 q 923 488 882 549 q 964 319 964 428 q 939 169 964 231 q 874 69 914 108 q 782 13 833 31 q 676 -7 731 -6 l 660 69 m 804 275 q 834 278 818 275 q 868 292 850 282 l 868 307 q 799 465 868 465 q 740 367 740 465 q 756 296 740 317 q 804 275 772 275 z "},"":{"ha":1008,"x_min":61,"x_max":964,"o":"m 365 832 q 343 755 365 788 q 292 699 321 722 q 352 645 325 678 q 379 561 379 613 q 367 501 379 528 q 332 456 354 475 q 281 426 310 436 q 218 415 251 415 q 104 457 147 415 q 61 560 61 499 q 140 697 61 640 q 90 751 113 718 q 68 829 68 783 q 110 931 68 890 q 218 971 151 971 q 326 931 286 971 q 365 832 365 890 m 288 563 q 261 622 288 599 q 200 663 235 646 q 164 616 175 639 q 153 569 153 593 q 172 519 153 538 q 221 500 192 500 q 268 515 249 500 q 288 563 288 531 m 160 831 q 179 777 160 800 q 226 736 199 754 q 261 776 247 756 q 275 825 275 797 q 261 869 275 850 q 218 888 247 888 q 176 873 193 888 q 160 831 160 858 m 761 963 l 368 0 l 264 0 l 657 963 l 761 963 m 660 69 q 788 108 739 76 q 857 213 838 139 q 819 202 838 206 q 783 199 800 199 q 681 243 721 199 q 640 372 640 288 q 681 501 640 453 q 797 549 721 549 q 923 488 882 549 q 964 319 964 428 q 939 169 964 231 q 874 69 914 108 q 782 13 833 31 q 676 -7 731 -6 l 660 69 m 804 275 q 834 278 818 275 q 868 292 850 282 l 868 307 q 799 465 868 465 q 740 367 740 465 q 756 296 740 317 q 804 275 772 275 z "},"∂":{"ha":642,"x_min":54,"x_max":572,"o":"m 111 1047 q 256 1078 181 1078 q 413 1035 351 1078 q 509 922 474 993 q 558 758 544 851 q 572 564 572 665 q 558 335 572 442 q 511 151 544 229 q 424 27 478 72 q 289 -18 369 -18 q 113 63 172 -18 q 54 300 54 144 q 123 589 54 486 q 313 692 192 692 q 389 678 353 692 q 453 640 425 664 q 435 777 449 715 q 396 882 421 839 q 334 949 371 925 q 247 972 297 972 q 188 965 217 972 q 135 946 160 957 l 111 1047 m 289 86 q 366 130 335 86 q 416 240 397 174 q 444 382 435 306 q 454 525 453 458 q 400 576 431 557 q 329 596 369 596 q 256 571 286 596 q 207 504 226 546 q 178 410 188 463 q 169 303 169 357 q 289 86 169 86 z "},"∆":{"ha":714,"x_min":28,"x_max":686,"o":"m 28 0 q 92 274 61 147 q 156 515 124 400 q 222 740 188 631 q 296 965 257 850 l 421 965 q 494 740 460 850 q 560 515 528 631 q 622 274 592 400 q 686 0 653 147 l 28 0 m 356 807 q 319 692 340 761 q 274 533 299 622 q 221 336 249 443 q 167 108 193 229 l 543 108 q 488 337 515 229 q 437 534 461 444 q 392 693 413 624 q 356 807 371 763 z "},"∏":{"ha":771,"x_min":117,"x_max":654,"o":"m 654 963 l 654 -151 l 529 -151 l 529 854 l 242 854 l 242 -151 l 117 -151 l 117 963 l 654 963 z "},"∑":{"ha":544,"x_min":24,"x_max":524,"o":"m 163 854 q 264 633 211 740 q 379 419 317 525 q 259 191 315 306 q 156 -43 203 76 l 524 -43 l 524 -151 l 24 -151 l 24 -68 q 129 177 72 56 q 253 421 186 299 q 135 647 193 529 q 28 885 76 765 l 28 963 l 524 963 l 524 854 l 163 854 z "},"Ω":{"ha":849,"x_min":69,"x_max":779,"o":"m 425 878 q 343 858 381 878 q 278 797 306 839 q 234 687 250 754 q 218 525 218 619 q 261 277 218 388 q 368 82 304 167 l 368 0 l 69 0 l 69 106 l 226 106 q 176 186 201 140 q 131 286 151 232 q 99 403 111 340 q 86 532 86 465 q 110 727 86 642 q 179 870 135 813 q 286 958 224 928 q 425 988 349 988 q 563 958 500 988 q 669 870 625 928 q 738 727 714 813 q 763 532 763 642 q 750 403 763 465 q 717 286 738 340 q 672 186 697 232 q 622 106 647 140 l 779 106 l 779 0 l 481 0 l 481 82 q 538 173 511 124 q 586 278 565 222 q 619 395 607 333 q 631 525 631 457 q 615 687 631 619 q 572 797 599 754 q 506 858 544 839 q 425 878 468 878 z "},"−":{"ha":597,"x_min":60,"x_max":538,"o":"m 60 467 l 538 467 l 538 365 l 60 365 l 60 467 z "},"∕":{"ha":189,"x_min":-157,"x_max":340,"o":"m 340 963 l -53 0 l -157 0 l 236 963 l 340 963 z "},"∙":{"ha":322,"x_min":79,"x_max":244,"o":"m 244 415 q 222 358 244 383 q 161 333 199 333 q 101 358 124 333 q 79 415 79 383 q 101 474 79 449 q 161 499 124 499 q 222 474 199 499 q 244 415 244 449 z "},"√":{"ha":625,"x_min":25,"x_max":632,"o":"m 25 504 l 228 556 q 284 358 257 464 q 338 135 311 253 l 514 1088 l 632 1088 l 415 -21 l 265 -21 q 237 105 251 46 q 208 220 222 164 q 177 331 193 276 q 143 440 161 385 l 50 417 l 25 504 z "},"∞":{"ha":597,"x_min":22,"x_max":575,"o":"m 482 415 q 464 501 482 474 q 418 529 446 529 q 374 506 394 529 q 340 415 353 482 q 374 325 353 349 q 418 301 394 301 q 464 329 446 301 q 482 415 482 357 m 299 522 q 347 585 318 558 q 432 613 376 613 q 478 603 453 613 q 524 572 503 594 q 560 511 546 549 q 575 415 575 474 q 560 319 575 357 q 524 259 546 282 q 478 227 503 236 q 432 218 453 218 q 347 245 376 218 q 299 308 318 272 q 250 245 279 272 q 165 218 221 218 q 119 227 144 218 q 73 259 94 236 q 37 319 51 282 q 22 415 22 357 q 37 511 22 474 q 73 572 51 549 q 119 603 94 594 q 165 613 144 613 q 250 585 221 613 q 299 522 279 558 m 115 415 q 133 329 115 357 q 179 301 151 301 q 224 325 203 301 q 257 415 244 349 q 224 506 244 482 q 179 529 203 529 q 133 501 151 529 q 115 415 115 474 z "},"∫":{"ha":406,"x_min":8,"x_max":397,"o":"m 263 11 q 209 -184 263 -111 q 46 -257 156 -257 q 28 -256 38 -257 q 8 -254 18 -256 l 8 -151 l 32 -151 q 117 -110 92 -151 q 143 11 143 -68 l 143 811 q 197 1006 143 933 q 358 1078 250 1078 q 377 1078 368 1078 q 397 1076 386 1078 l 397 974 l 374 974 q 285 932 314 974 q 263 811 256 890 l 263 11 z "},"≈":{"ha":597,"x_min":35,"x_max":563,"o":"m 194 665 q 261 649 232 665 q 315 613 290 633 q 360 577 339 593 q 406 561 382 561 q 454 589 439 561 q 481 661 469 617 l 563 636 q 548 573 558 606 q 519 514 538 540 q 472 470 500 488 q 401 453 443 453 q 335 469 364 453 q 283 505 307 485 q 236 541 258 525 q 192 557 214 557 q 145 529 163 557 q 117 457 128 501 l 35 482 q 49 545 39 513 q 78 604 60 578 q 126 648 97 631 q 194 665 154 665 m 194 397 q 261 381 232 397 q 315 345 290 365 q 360 309 339 325 q 406 293 382 293 q 454 321 439 293 q 481 393 469 349 l 563 368 q 548 305 558 338 q 519 246 538 272 q 472 202 500 219 q 401 185 443 185 q 335 201 364 185 q 283 237 307 217 q 236 273 258 257 q 192 289 214 289 q 145 261 163 289 q 117 189 128 233 l 35 214 q 49 277 39 244 q 78 336 60 310 q 126 380 97 363 q 194 397 154 397 z "},"≠":{"ha":597,"x_min":60,"x_max":538,"o":"m 60 600 l 313 600 l 374 761 l 471 725 l 424 600 l 538 600 l 538 499 l 385 499 l 321 332 l 538 332 l 538 231 l 283 231 l 221 67 l 125 103 l 172 231 l 60 231 l 60 332 l 211 332 l 274 499 l 60 499 l 60 600 z "},"≤":{"ha":597,"x_min":60,"x_max":538,"o":"m 60 413 l 60 513 l 483 733 l 531 640 l 169 463 l 531 285 l 483 192 l 60 413 m 60 101 l 538 101 l 538 0 l 60 0 l 60 101 z "},"≥":{"ha":597,"x_min":60,"x_max":538,"o":"m 114 192 l 67 285 l 426 463 l 67 640 l 114 733 l 538 513 l 538 413 l 114 192 m 60 101 l 538 101 l 538 0 l 60 0 l 60 101 z "},"◊":{"ha":592,"x_min":39,"x_max":553,"o":"m 39 482 q 158 735 96 608 q 289 988 221 861 l 303 988 q 433 734 371 860 q 553 482 496 608 q 433 230 496 356 q 303 -24 371 104 l 289 -24 q 158 230 222 104 q 39 482 93 356 m 442 482 q 369 632 406 558 q 296 779 332 706 q 222 632 258 706 q 150 482 186 558 q 222 331 186 406 q 296 183 258 257 q 369 331 332 257 q 442 482 406 406 z "},"ﬀ":{"ha":850,"x_min":108,"x_max":867,"o":"m 321 1078 q 392 1069 361 1078 q 442 1051 422 1061 l 417 957 q 376 972 397 967 q 332 976 356 976 q 279 965 300 976 q 247 935 258 954 q 232 888 236 915 q 228 831 228 861 l 228 729 l 415 729 l 415 626 l 228 626 l 228 0 l 108 0 l 108 831 q 161 1013 108 949 q 321 1078 214 1078 m 746 1078 q 817 1069 786 1078 q 867 1051 847 1061 l 842 957 q 801 972 822 967 q 757 976 781 976 q 704 965 725 976 q 672 935 683 954 q 657 888 661 915 q 653 831 653 861 l 653 729 l 840 729 l 840 626 l 653 626 l 653 0 l 533 0 l 533 831 q 586 1013 533 949 q 746 1078 639 1078 z "},"":{"ha":747,"x_min":108,"x_max":657,"o":"m 321 1078 q 379 1072 353 1078 q 425 1058 406 1067 l 403 964 q 332 976 367 976 q 255 944 282 976 q 228 831 228 911 l 228 729 l 415 729 l 415 626 l 228 626 l 228 0 l 108 0 l 108 831 q 161 1013 108 949 q 321 1078 214 1078 m 639 0 l 519 0 l 519 729 l 639 729 l 639 0 m 579 858 q 524 880 547 858 q 501 938 501 901 q 524 995 501 974 q 579 1017 547 1017 q 634 995 611 1017 q 657 938 657 974 q 634 880 657 901 q 579 858 611 858 z "},"ﬁ":{"ha":747,"x_min":108,"x_max":657,"o":"m 321 1078 q 379 1072 353 1078 q 425 1058 406 1067 l 403 964 q 332 976 367 976 q 255 944 282 976 q 228 831 228 911 l 228 729 l 415 729 l 415 626 l 228 626 l 228 0 l 108 0 l 108 831 q 161 1013 108 949 q 321 1078 214 1078 m 639 0 l 519 0 l 519 729 l 639 729 l 639 0 m 579 858 q 524 880 547 858 q 501 938 501 901 q 524 995 501 974 q 579 1017 547 1017 q 634 995 611 1017 q 657 938 657 974 q 634 880 657 901 q 579 858 611 858 z "},"":{"ha":763,"x_min":108,"x_max":738,"o":"m 722 -14 q 575 37 619 -11 q 531 189 531 85 l 531 1057 l 650 1078 l 650 186 q 669 116 650 138 q 738 86 689 94 l 722 -14 m 321 1078 q 379 1072 353 1078 q 425 1058 406 1067 l 403 964 q 332 976 367 976 q 255 944 282 976 q 228 831 228 911 l 228 729 l 415 729 l 415 626 l 228 626 l 228 0 l 108 0 l 108 831 q 161 1013 108 949 q 321 1078 214 1078 z "},"ﬂ":{"ha":763,"x_min":108,"x_max":738,"o":"m 722 -14 q 575 37 619 -11 q 531 189 531 85 l 531 1057 l 650 1078 l 650 186 q 669 116 650 138 q 738 86 689 94 l 722 -14 m 321 1078 q 379 1072 353 1078 q 425 1058 406 1067 l 403 964 q 332 976 367 976 q 255 944 282 976 q 228 831 228 911 l 228 729 l 415 729 l 415 626 l 228 626 l 228 0 l 108 0 l 108 831 q 161 1013 108 949 q 321 1078 214 1078 z "},"ﬃ":{"ha":1172,"x_min":108,"x_max":1082,"o":"m 746 1078 q 804 1072 778 1078 q 850 1058 831 1067 l 828 964 q 757 976 792 976 q 680 944 707 976 q 653 831 653 911 l 653 729 l 840 729 l 840 626 l 653 626 l 653 0 l 533 0 l 533 831 q 586 1013 533 949 q 746 1078 639 1078 m 1064 0 l 944 0 l 944 729 l 1064 729 l 1064 0 m 1004 858 q 949 880 972 858 q 926 938 926 901 q 949 995 926 974 q 1004 1017 972 1017 q 1059 995 1036 1017 q 1082 938 1082 974 q 1059 880 1082 901 q 1004 858 1036 858 m 321 1078 q 392 1069 361 1078 q 442 1051 422 1061 l 417 957 q 376 972 397 967 q 332 976 356 976 q 279 965 300 976 q 247 935 258 954 q 232 888 236 915 q 228 831 228 861 l 228 729 l 415 729 l 415 626 l 228 626 l 228 0 l 108 0 l 108 831 q 161 1013 108 949 q 321 1078 214 1078 z "}}}
